<?xml version="1.0" encoding="UTF-8" standalone="no"?>
<!DOCTYPE svg PUBLIC "-//W3C//DTD SVG 1.1//EN" "http://www.w3.org/Graphics/SVG/1.1/DTD/svg11.dtd">
<!-- Created with gpx2svg 0.2.0 -->
<svg xmlns="http://www.w3.org/2000/svg" version="1.1" width="1040.1322530902053px" height="945.2190776109695px" viewBox="0 0 1040.1322530902053 945.2190776109695" viewport-fill="black" >
<rect width="100%" height="100%" fill="#3B3434" />
<g>
<circle cx="469.01055528767574" cy="779.9796779707074" r="0.5" style="fill:none;stroke:white;stroke-width:3"/>
<circle cx="477.1457836748484" cy="759.9580293014645" r="0.5" style="fill:none;stroke:white;stroke-width:3"/>
<circle cx="468.9304052543048" cy="745.5527064219117" r="0.5" style="fill:none;stroke:white;stroke-width:3"/>
<circle cx="460.02039321121117" cy="736.099201760441" r="0.5" style="fill:none;stroke:white;stroke-width:3"/>
<circle cx="451.7382230961917" cy="727.481713360548" r="0.5" style="fill:none;stroke:white;stroke-width:3"/>
<circle cx="442.8148527142024" cy="720.6434522420168" r="0.5" style="fill:none;stroke:white;stroke-width:3"/>
<circle cx="426.1837207896882" cy="720.171847851947" r="0.5" style="fill:none;stroke:white;stroke-width:3"/>
<circle cx="411.85022315514635" cy="716.870616479963" r="0.5" style="fill:none;stroke:white;stroke-width:3"/>
<circle cx="400.8696685832976" cy="707.6743232041597" r="0.5" style="fill:none;stroke:white;stroke-width:3"/>
<circle cx="391.79935647346156" cy="699.3783589191735" r="0.5" style="fill:none;stroke:white;stroke-width:3"/>
<circle cx="382.5954609746739" cy="689.8390631329268" r="0.5" style="fill:none;stroke:white;stroke-width:3"/>
<circle cx="376.37047504951386" cy="682.8292825464159" r="0.5" style="fill:none;stroke:white;stroke-width:3"/>
<circle cx="372.97745697013414" cy="673.8044506095349" r="0.5" style="fill:none;stroke:white;stroke-width:3"/>
<circle cx="370.30578919109576" cy="662.8503084953874" r="0.5" style="fill:none;stroke:white;stroke-width:3"/>
<circle cx="369.75809729639366" cy="650.1597801949829" r="0.5" style="fill:none;stroke:white;stroke-width:3"/>
<circle cx="369.9718307187162" cy="637.169121003896" r="0.5" style="fill:none;stroke:white;stroke-width:3"/>
<circle cx="369.69130560191735" cy="625.1645361162722" r="0.5" style="fill:none;stroke:white;stroke-width:3"/>
<circle cx="370.2657141744108" cy="610.6303939998149" r="0.5" style="fill:none;stroke:white;stroke-width:3"/>
<circle cx="367.1532212118305" cy="599.654744342342" r="0.5" style="fill:none;stroke:white;stroke-width:3"/>
<circle cx="369.91839736313557" cy="602.9345784388482" r="0.5" style="fill:none;stroke:white;stroke-width:3"/>
<circle cx="369.89168068534525" cy="596.2891618095338" r="0.5" style="fill:none;stroke:white;stroke-width:3"/>
<circle cx="370.5462392912097" cy="583.9415369935333" r="0.5" style="fill:none;stroke:white;stroke-width:3"/>
<circle cx="367.22001290630686" cy="567.4780129998923" r="0.5" style="fill:none;stroke:white;stroke-width:3"/>
<circle cx="362.91862778205467" cy="553.1581545006484" r="0.5" style="fill:none;stroke:white;stroke-width:3"/>
<circle cx="358.59052598001216" cy="540.6604165636003" r="0.5" style="fill:none;stroke:white;stroke-width:3"/>
<circle cx="353.674657266581" cy="527.3051832541823" r="0.5" style="fill:none;stroke:white;stroke-width:3"/>
<circle cx="350.2282058316217" cy="516.8439283858985" r="0.5" style="fill:none;stroke:white;stroke-width:3"/>
<circle cx="348.86565526431167" cy="506.91858811229463" r="0.5" style="fill:none;stroke:white;stroke-width:3"/>
<circle cx="338.35264255379514" cy="507.6474471375346" r="0.5" style="fill:none;stroke:white;stroke-width:3"/>
<circle cx="327.11827954293784" cy="515.5577077478171" r="0.5" style="fill:none;stroke:white;stroke-width:3"/>
<circle cx="317.112883710439" cy="519.2019991021604" r="0.5" style="fill:none;stroke:white;stroke-width:3"/>
<circle cx="309.2982554567512" cy="519.0090660687536" r="0.5" style="fill:none;stroke:white;stroke-width:3"/>
<circle cx="306.45292927207464" cy="519.9308572154492" r="0.5" style="fill:none;stroke:white;stroke-width:3"/>
<circle cx="299.3195763020416" cy="523.339339999482" r="0.5" style="fill:none;stroke:white;stroke-width:3"/>
<circle cx="285.7074289678399" cy="519.8022351980209" r="0.5" style="fill:none;stroke:white;stroke-width:3"/>
<circle cx="273.1505904063586" cy="522.288927192986" r="0.5" style="fill:none;stroke:white;stroke-width:3"/>
<circle cx="257.2808837988701" cy="524.4969376534224" r="0.5" style="fill:none;stroke:white;stroke-width:3"/>
<circle cx="246.6075710216106" cy="529.4703186258673" r="0.5" style="fill:none;stroke:white;stroke-width:3"/>
<circle cx="236.0010499388274" cy="530.4992936812341" r="0.5" style="fill:none;stroke:white;stroke-width:3"/>
<circle cx="223.69801981635518" cy="530.2849238879978" r="0.5" style="fill:none;stroke:white;stroke-width:3"/>
<circle cx="214.46740763977613" cy="533.6076551824808" r="0.5" style="fill:none;stroke:white;stroke-width:3"/>
<circle cx="203.63379479577523" cy="538.1737292390317" r="0.5" style="fill:none;stroke:white;stroke-width:3"/>
<circle cx="192.55973185166093" cy="540.5103578690439" r="0.5" style="fill:none;stroke:white;stroke-width:3"/>
<circle cx="182.2070192078858" cy="541.689390444383" r="0.5" style="fill:none;stroke:white;stroke-width:3"/>
<circle cx="169.97078077988934" cy="545.0549917571246" r="0.5" style="fill:none;stroke:white;stroke-width:3"/>
<circle cx="159.5512764416395" cy="546.8128212880343" r="0.5" style="fill:none;stroke:white;stroke-width:3"/>
<circle cx="149.09169708670305" cy="551.1002090435475" r="0.5" style="fill:none;stroke:white;stroke-width:3"/>
<circle cx="133.5559489515941" cy="556.9524903092533" r="0.5" style="fill:none;stroke:white;stroke-width:3"/>
<circle cx="123.24331132450497" cy="558.6460069421679" r="0.5" style="fill:none;stroke:white;stroke-width:3"/>
<circle cx="115.21494964849516" cy="554.4229332659394" r="0.5" style="fill:none;stroke:white;stroke-width:3"/>
<circle cx="107.48047142817722" cy="547.3273079171777" r="0.5" style="fill:none;stroke:white;stroke-width:3"/>
<circle cx="108.7895886399061" cy="532.6001174267382" r="0.5" style="fill:none;stroke:white;stroke-width:3"/>
<circle cx="108.54913853979323" cy="517.444164622575" r="0.5" style="fill:none;stroke:white;stroke-width:3"/>
<circle cx="108.01480498398469" cy="506.06110684052106" r="0.5" style="fill:none;stroke:white;stroke-width:3"/>
<circle cx="107.32017136143476" cy="492.5772039413452" r="0.5" style="fill:none;stroke:white;stroke-width:3"/>
<circle cx="103.91379494316097" cy="477.7641826730221" r="0.5" style="fill:none;stroke:white;stroke-width:3"/>
<circle cx="104.0340199932174" cy="466.0595219369977" r="0.5" style="fill:none;stroke:white;stroke-width:3"/>
<circle cx="102.25736092015686" cy="453.3473012857139" r="0.5" style="fill:none;stroke:white;stroke-width:3"/>
<circle cx="100.9749603862183" cy="442.6287212960422" r="0.5" style="fill:none;stroke:white;stroke-width:3"/>
<circle cx="101.46921892534083" cy="430.7096465606242" r="0.5" style="fill:none;stroke:white;stroke-width:3"/>
<circle cx="98.95785121304434" cy="418.1260033395141" r="0.5" style="fill:none;stroke:white;stroke-width:3"/>
<circle cx="98.47695101281751" cy="406.35695952102543" r="0.5" style="fill:none;stroke:white;stroke-width:3"/>
<circle cx="96.94074203986983" cy="391.88680427670477" r="0.5" style="fill:none;stroke:white;stroke-width:3"/>
<circle cx="88.91238036385948" cy="375.8302662301808" r="0.5" style="fill:none;stroke:white;stroke-width:3"/>
<circle cx="87.2292296630645" cy="365.4974734738469" r="0.5" style="fill:none;stroke:white;stroke-width:3"/>
<circle cx="86.29414594040172" cy="352.8065595578402" r="0.5" style="fill:none;stroke:white;stroke-width:3"/>
<circle cx="80.18938506529867" cy="339.8155056316405" r="0.5" style="fill:none;stroke:white;stroke-width:3"/>
<circle cx="77.97190080869622" cy="330.57598318979143" r="0.5" style="fill:none;stroke:white;stroke-width:3"/>
<circle cx="74.87276618501218" cy="323.1371965941042" r="0.5" style="fill:none;stroke:white;stroke-width:3"/>
<circle cx="76.86315868039527" cy="325.2380648486316" r="0.5" style="fill:none;stroke:white;stroke-width:3"/>
<circle cx="78.54630938119026" cy="318.09939842820165" r="0.5" style="fill:none;stroke:white;stroke-width:3"/>
<circle cx="78.7466844646171" cy="304.25079947412013" r="0.5" style="fill:none;stroke:white;stroke-width:3"/>
<circle cx="75.80784990767552" cy="289.7161807246506" r="0.5" style="fill:none;stroke:white;stroke-width:3"/>
<circle cx="73.56364897328275" cy="277.4539192132652" r="0.5" style="fill:none;stroke:white;stroke-width:3"/>
<circle cx="73.16289880642744" cy="264.9129540447146" r="0.5" style="fill:none;stroke:white;stroke-width:3"/>
<circle cx="71.17250631104379" cy="252.24334727860986" r="0.5" style="fill:none;stroke:white;stroke-width:3"/>
<circle cx="68.27374677078714" cy="240.96716907732187" r="0.5" style="fill:none;stroke:white;stroke-width:3"/>
<circle cx="62.35600264021577" cy="227.93309139870107" r="0.5" style="fill:none;stroke:white;stroke-width:3"/>
<circle cx="62.142269217892675" cy="216.91413718946276" r="0.5" style="fill:none;stroke:white;stroke-width:3"/>
<circle cx="60.87322702284982" cy="207.245744965598" r="0.5" style="fill:none;stroke:white;stroke-width:3"/>
<circle cx="57.65386734910771" cy="193.56849086992443" r="0.5" style="fill:none;stroke:white;stroke-width:3"/>
<circle cx="53.165465480322744" cy="196.35539372116327" r="0.5" style="fill:none;stroke:white;stroke-width:3"/>
<circle cx="52.88494036352495" cy="197.62021860592066" r="0.5" style="fill:none;stroke:white;stroke-width:3"/>
<circle cx="51.52238979621488" cy="181.39185985699297" r="0.5" style="fill:none;stroke:white;stroke-width:3"/>
<circle cx="50.18655590669568" cy="168.70070717968045" r="0.5" style="fill:none;stroke:white;stroke-width:3"/>
<circle cx="44.108511709382945" cy="158.00325320474803" r="0.5" style="fill:none;stroke:white;stroke-width:3"/>
<circle cx="42.7058861253874" cy="145.41925930827855" r="0.5" style="fill:none;stroke:white;stroke-width:3"/>
<circle cx="42.35856931411272" cy="136.99419132135807" r="0.5" style="fill:none;stroke:white;stroke-width:3"/>
<circle cx="41.37005223586821" cy="126.1251997679472" r="0.5" style="fill:none;stroke:white;stroke-width:3"/>
<circle cx="44.02836167601144" cy="115.29907191731036" r="0.5" style="fill:none;stroke:white;stroke-width:3"/>
<circle cx="54.487941030946786" cy="111.35449958927929" r="0.5" style="fill:none;stroke:white;stroke-width:3"/>
<circle cx="52.217023418764256" cy="102.75789894349873" r="0.5" style="fill:none;stroke:white;stroke-width:3"/>
<circle cx="50.97469790151172" cy="96.96965983919799" r="0.5" style="fill:none;stroke:white;stroke-width:3"/>
<circle cx="52.37732348550617" cy="85.65042680986225" r="0.5" style="fill:none;stroke:white;stroke-width:3"/>
<circle cx="50.8678311903499" cy="73.73091727606952" r="0.5" style="fill:none;stroke:white;stroke-width:3"/>
<circle cx="54.474582692052174" cy="65.0699695855379" r="0.5" style="fill:none;stroke:white;stroke-width:3"/>
<circle cx="62.03540250673195" cy="60.69661684334278" r="0.5" style="fill:none;stroke:white;stroke-width:3"/>
<circle cx="62.07547752341688" cy="60.46079874783754" r="0.5" style="fill:none;stroke:white;stroke-width:3"/>
<circle cx="62.128910878997516" cy="59.32458421066403" r="0.5" style="fill:none;stroke:white;stroke-width:3"/>
<circle cx="62.46286935137814" cy="57.09503076933324" r="0.5" style="fill:none;stroke:white;stroke-width:3"/>
<circle cx="63.010561246080755" cy="55.7015596088022" r="0.5" style="fill:none;stroke:white;stroke-width:3"/>
<circle cx="63.90556995205861" cy="54.47959243431687" r="0.5" style="fill:none;stroke:white;stroke-width:3"/>
<circle cx="65.45513726390091" cy="52.87174064554274" r="0.5" style="fill:none;stroke:white;stroke-width:3"/>
<circle cx="66.81768783121042" cy="50.878004072606565" r="0.5" style="fill:none;stroke:white;stroke-width:3"/>
<circle cx="67.27187135364693" cy="51.02807027734816" r="0.5" style="fill:none;stroke:white;stroke-width:3"/>
<circle cx="68.30046344857637" cy="51.521144944801925" r="0.5" style="fill:none;stroke:white;stroke-width:3"/>
<circle cx="68.55427188758549" cy="49.65603628344834" r="0.5" style="fill:none;stroke:white;stroke-width:3"/>
<circle cx="68.48748019310915" cy="49.698912353441116" r="0.5" style="fill:none;stroke:white;stroke-width:3"/>
<circle cx="66.20320424203146" cy="49.44165596142411" r="0.5" style="fill:none;stroke:white;stroke-width:3"/>
<circle cx="66.00282915860407" cy="50.06335889697075" r="0.5" style="fill:none;stroke:white;stroke-width:3"/>
<circle cx="65.12117879152137" cy="50.32061527892947" r="0.5" style="fill:none;stroke:white;stroke-width:3"/>
<circle cx="63.49146144630758" cy="50.70649982951581" r="0.5" style="fill:none;stroke:white;stroke-width:3"/>
<circle cx="62.36936097911148" cy="52.185723803937435" r="0.5" style="fill:none;stroke:white;stroke-width:3"/>
<circle cx="61.74151905103736" cy="56.36613818854094" r="0.5" style="fill:none;stroke:white;stroke-width:3"/>
<circle cx="63.571611479679085" cy="58.74575788378715" r="0.5" style="fill:none;stroke:white;stroke-width:3"/>
<circle cx="63.41131141293608" cy="58.76719589531422" r="0.5" style="fill:none;stroke:white;stroke-width:3"/>
<circle cx="66.09633753087019" cy="57.24509687907994" r="0.5" style="fill:none;stroke:white;stroke-width:3"/>
<circle cx="68.03329667067318" cy="57.24509687907994" r="0.5" style="fill:none;stroke:white;stroke-width:3"/>
<circle cx="66.17648756424114" cy="57.97398939505219" r="0.5" style="fill:none;stroke:white;stroke-width:3"/>
<circle cx="64.90744536919829" cy="58.424187688529486" r="0.5" style="fill:none;stroke:white;stroke-width:3"/>
<circle cx="64.97423706367462" cy="59.04589005857706" r="0.5" style="fill:none;stroke:white;stroke-width:3"/>
<circle cx="65.014312080359" cy="59.00301403664052" r="0.5" style="fill:none;stroke:white;stroke-width:3"/>
<circle cx="64.98759540256869" cy="59.00301403664052" r="0.5" style="fill:none;stroke:white;stroke-width:3"/>
<circle cx="64.94752038588321" cy="58.98157601952553" r="0.5" style="fill:none;stroke:white;stroke-width:3"/>
<circle cx="64.89408703030313" cy="58.96013800911605" r="0.5" style="fill:none;stroke:white;stroke-width:3"/>
<circle cx="65.18797048599663" cy="59.02445204816758" r="0.5" style="fill:none;stroke:white;stroke-width:3"/>
<circle cx="66.53716271441098" cy="57.11646878533065" r="0.5" style="fill:none;stroke:white;stroke-width:3"/>
<circle cx="62.4762276902733" cy="54.95122890248894" r="0.5" style="fill:none;stroke:white;stroke-width:3"/>
<circle cx="52.11015670760298" cy="52.85030262060463" r="0.5" style="fill:none;stroke:white;stroke-width:3"/>
<circle cx="53.82002408618773" cy="45.77575161829591" r="0.5" style="fill:none;stroke:white;stroke-width:3"/>
<circle cx="54.55473272542313" cy="44.339402762800454" r="0.5" style="fill:none;stroke:white;stroke-width:3"/>
<circle cx="55.02227458675534" cy="44.4680310241878" r="0.5" style="fill:none;stroke:white;stroke-width:3"/>
<circle cx="55.90392495383748" cy="44.89679189398885" r="0.5" style="fill:none;stroke:white;stroke-width:3"/>
<circle cx="56.3848251540654" cy="45.2398005746305" r="0.5" style="fill:none;stroke:white;stroke-width:3"/>
<circle cx="56.65199193196913" cy="46.869091655686496" r="0.5" style="fill:none;stroke:white;stroke-width:3"/>
<circle cx="56.67870860975891" cy="47.44791868329048" r="0.5" style="fill:none;stroke:white;stroke-width:3"/>
<circle cx="57.21304216556691" cy="44.38227884955704" r="0.5" style="fill:none;stroke:white;stroke-width:3"/>
<circle cx="58.3084259549727" cy="43.97495600134134" r="0.5" style="fill:none;stroke:white;stroke-width:3"/>
<circle cx="58.50880103840009" cy="44.18933644853532" r="0.5" style="fill:none;stroke:white;stroke-width:3"/>
<circle cx="58.60230941066729" cy="44.40371689349413" r="0.5" style="fill:none;stroke:white;stroke-width:3"/>
<circle cx="58.29506761607754" cy="44.4680310241878" r="0.5" style="fill:none;stroke:white;stroke-width:3"/>
<circle cx="57.85424243253564" cy="44.61809732727706" r="0.5" style="fill:none;stroke:white;stroke-width:3"/>
<circle cx="57.17296714888143" cy="44.23221253752708" r="0.5" style="fill:none;stroke:white;stroke-width:3"/>
<circle cx="57.17296714888143" cy="44.017832088097926" r="0.5" style="fill:none;stroke:white;stroke-width:3"/>
<circle cx="54.020399169615665" cy="44.57522124499082" r="0.5" style="fill:none;stroke:white;stroke-width:3"/>
<circle cx="53.90017411955923" cy="43.803451642021535" r="0.5" style="fill:none;stroke:white;stroke-width:3"/>
<circle cx="54.194057575252735" cy="43.503318996727465" r="0.5" style="fill:none;stroke:white;stroke-width:3"/>
<circle cx="54.71503279216558" cy="42.32422639578581" r="0.5" style="fill:none;stroke:white;stroke-width:3"/>
<circle cx="53.165465480322744" cy="42.75298735499382" r="0.5" style="fill:none;stroke:white;stroke-width:3"/>
<circle cx="52.89829870241901" cy="37.50066426023841" r="0.5" style="fill:none;stroke:white;stroke-width:3"/>
<circle cx="53.579573986074315" cy="36.0" r="0.5" style="fill:none;stroke:white;stroke-width:3"/>
<circle cx="55.476458109191846" cy="37.1790933676064" r="0.5" style="fill:none;stroke:white;stroke-width:3"/>
<circle cx="55.56996648145796" cy="37.09334112256765" r="0.5" style="fill:none;stroke:white;stroke-width:3"/>
<circle cx="56.117658376161124" cy="38.87269995063543" r="0.5" style="fill:none;stroke:white;stroke-width:3"/>
<circle cx="56.905800370977154" cy="50.878004072606565" r="0.5" style="fill:none;stroke:white;stroke-width:3"/>
<circle cx="55.07570794233543" cy="62.13296330273151" r="0.5" style="fill:none;stroke:white;stroke-width:3"/>
<circle cx="54.31428262531026" cy="78.23289200551808" r="0.5" style="fill:none;stroke:white;stroke-width:3"/>
<circle cx="54.140624219672645" cy="96.41227366626262" r="0.5" style="fill:none;stroke:white;stroke-width:3"/>
<circle cx="58.45536768281945" cy="102.71502311043442" r="0.5" style="fill:none;stroke:white;stroke-width:3"/>
<circle cx="61.02016875069657" cy="102.69358519501984" r="0.5" style="fill:none;stroke:white;stroke-width:3"/>
<circle cx="64.05251167990536" cy="101.77175474390387" r="0.5" style="fill:none;stroke:white;stroke-width:3"/>
<circle cx="60.0182933335569" cy="107.15267078652978" r="0.5" style="fill:none;stroke:white;stroke-width:3"/>
<circle cx="56.705425287549225" cy="115.36338558755814" r="0.5" style="fill:none;stroke:white;stroke-width:3"/>
<circle cx="49.15796381176569" cy="123.68128284327685" r="0.5" style="fill:none;stroke:white;stroke-width:3"/>
<circle cx="46.780179488421886" cy="125.09618219062685" r="0.5" style="fill:none;stroke:white;stroke-width:3"/>
<circle cx="46.60652108278318" cy="125.16049579046665" r="0.5" style="fill:none;stroke:white;stroke-width:3"/>
<circle cx="45.484420615587624" cy="124.8603656463325" r="0.5" style="fill:none;stroke:white;stroke-width:3"/>
<circle cx="44.535978554029136" cy="125.50350166372954" r="0.5" style="fill:none;stroke:white;stroke-width:3"/>
<circle cx="40.688776952213445" cy="127.86166668646037" r="0.5" style="fill:none;stroke:white;stroke-width:3"/>
<circle cx="40.59526857994624" cy="127.77591523602604" r="0.5" style="fill:none;stroke:white;stroke-width:3"/>
<circle cx="40.76892698558495" cy="127.15421723686158" r="0.5" style="fill:none;stroke:white;stroke-width:3"/>
<circle cx="40.43496851320433" cy="126.27526481933891" r="0.5" style="fill:none;stroke:white;stroke-width:3"/>
<circle cx="40.6219852577371" cy="126.55395706258713" r="0.5" style="fill:none;stroke:white;stroke-width:3"/>
<circle cx="40.28802678535758" cy="125.01043072231113" r="0.5" style="fill:none;stroke:white;stroke-width:3"/>
<circle cx="40.20787675198608" cy="124.92467924840747" r="0.5" style="fill:none;stroke:white;stroke-width:3"/>
<circle cx="39.059059606999654" cy="123.65984497256576" r="0.5" style="fill:none;stroke:white;stroke-width:3"/>
<circle cx="38.64495110124862" cy="123.4240283936262" r="0.5" style="fill:none;stroke:white;stroke-width:3"/>
<circle cx="38.23084259549814" cy="123.85278580673038" r="0.5" style="fill:none;stroke:white;stroke-width:3"/>
<circle cx="39.55331814612218" cy="122.39501053802668" r="0.5" style="fill:none;stroke:white;stroke-width:3"/>
<circle cx="39.352943062693704" cy="124.64598696492612" r="0.5" style="fill:none;stroke:white;stroke-width:3"/>
<circle cx="38.097259206546006" cy="125.4391880594194" r="0.5" style="fill:none;stroke:white;stroke-width:3"/>
<circle cx="37.85680910643259" cy="127.90454240664839" r="0.5" style="fill:none;stroke:white;stroke-width:3"/>
<circle cx="36.0" cy="140.25274265259503" r="0.5" style="fill:none;stroke:white;stroke-width:3"/>
<circle cx="39.4330930960652" cy="153.13687247224152" r="0.5" style="fill:none;stroke:white;stroke-width:3"/>
<circle cx="40.809002002270425" cy="165.80660755634307" r="0.5" style="fill:none;stroke:white;stroke-width:3"/>
<circle cx="40.82236034116449" cy="174.72471919879317" r="0.5" style="fill:none;stroke:white;stroke-width:3"/>
<circle cx="41.81087741940955" cy="175.13203660547734" r="0.5" style="fill:none;stroke:white;stroke-width:3"/>
<circle cx="44.01500333711628" cy="177.46875191666186" r="0.5" style="fill:none;stroke:white;stroke-width:3"/>
<circle cx="47.86220493893143" cy="183.34269436150788" r="0.5" style="fill:none;stroke:white;stroke-width:3"/>
<circle cx="47.16757131638205" cy="184.2216416493058" r="0.5" style="fill:none;stroke:white;stroke-width:3"/>
<circle cx="46.90040453847778" cy="195.32638352774083" r="0.5" style="fill:none;stroke:white;stroke-width:3"/>
<circle cx="54.08719086409146" cy="206.32392436377702" r="0.5" style="fill:none;stroke:white;stroke-width:3"/>
<circle cx="58.92290954415111" cy="222.98099483661352" r="0.5" style="fill:none;stroke:white;stroke-width:3"/>
<circle cx="62.997202907185056" cy="232.58505861461163" r="0.5" style="fill:none;stroke:white;stroke-width:3"/>
<circle cx="60.7797186505837" cy="247.33413821719586" r="0.5" style="fill:none;stroke:white;stroke-width:3"/>
<circle cx="62.663244434806074" cy="257.62418058179315" r="0.5" style="fill:none;stroke:white;stroke-width:3"/>
<circle cx="66.29671261429867" cy="267.2496479205787" r="0.5" style="fill:none;stroke:white;stroke-width:3"/>
<circle cx="70.41108099401754" cy="277.58254441693424" r="0.5" style="fill:none;stroke:white;stroke-width:3"/>
<circle cx="73.36327388985536" cy="287.658179865405" r="0.5" style="fill:none;stroke:white;stroke-width:3"/>
<circle cx="76.92995037487162" cy="300.4778031717986" r="0.5" style="fill:none;stroke:white;stroke-width:3"/>
<circle cx="74.68574944047886" cy="314.0262831229716" r="0.5" style="fill:none;stroke:white;stroke-width:3"/>
<circle cx="77.58450898073606" cy="324.10188105516136" r="0.5" style="fill:none;stroke:white;stroke-width:3"/>
<circle cx="80.18938506529867" cy="335.31365123726425" r="0.5" style="fill:none;stroke:white;stroke-width:3"/>
<circle cx="82.79426114986072" cy="347.1685300156474" r="0.5" style="fill:none;stroke:white;stroke-width:3"/>
<circle cx="83.8896449392665" cy="359.64507771693167" r="0.5" style="fill:none;stroke:white;stroke-width:3"/>
<circle cx="83.12821962224079" cy="371.3927403844893" r="0.5" style="fill:none;stroke:white;stroke-width:3"/>
<circle cx="81.71223569935118" cy="385.9058005236089" r="0.5" style="fill:none;stroke:white;stroke-width:3"/>
<circle cx="84.04994500600951" cy="399.561348535493" r="0.5" style="fill:none;stroke:white;stroke-width:3"/>
<circle cx="92.26532342655264" cy="414.28873924054204" r="0.5" style="fill:none;stroke:white;stroke-width:3"/>
<circle cx="95.89879160604524" cy="426.91526180841026" r="0.5" style="fill:none;stroke:white;stroke-width:3"/>
<circle cx="100.05323500245012" cy="439.391707829386" r="0.5" style="fill:none;stroke:white;stroke-width:3"/>
<circle cx="104.79544531024366" cy="450.21747714579107" r="0.5" style="fill:none;stroke:white;stroke-width:3"/>
<circle cx="105.90418743854461" cy="462.15796524882313" r="0.5" style="fill:none;stroke:white;stroke-width:3"/>
<circle cx="101.9501191255682" cy="475.2131680648774" r="0.5" style="fill:none;stroke:white;stroke-width:3"/>
<circle cx="100.22689340808775" cy="488.4612871136516" r="0.5" style="fill:none;stroke:white;stroke-width:3"/>
<circle cx="104.66186192129153" cy="498.49383134767413" r="0.5" style="fill:none;stroke:white;stroke-width:3"/>
<circle cx="109.79146405704633" cy="510.7343788683414" r="0.5" style="fill:none;stroke:white;stroke-width:3"/>
<circle cx="115.5622664597693" cy="521.2599512737244" r="0.5" style="fill:none;stroke:white;stroke-width:3"/>
<circle cx="121.57351896260624" cy="535.9442848920822" r="0.5" style="fill:none;stroke:white;stroke-width:3"/>
<circle cx="123.88451159147425" cy="549.9854884084314" r="0.5" style="fill:none;stroke:white;stroke-width:3"/>
<circle cx="127.93208827671732" cy="558.7317546095699" r="0.5" style="fill:none;stroke:white;stroke-width:3"/>
<circle cx="132.03309831754103" cy="564.5411574985832" r="0.5" style="fill:none;stroke:white;stroke-width:3"/>
<circle cx="143.61477813967412" cy="561.4328058287501" r="0.5" style="fill:none;stroke:white;stroke-width:3"/>
<circle cx="152.48471516608222" cy="555.6234010957181" r="0.5" style="fill:none;stroke:white;stroke-width:3"/>
<circle cx="156.17161670115547" cy="546.7699473951012" r="0.5" style="fill:none;stroke:white;stroke-width:3"/>
<circle cx="165.69611233342803" cy="542.7826750785113" r="0.5" style="fill:none;stroke:white;stroke-width:3"/>
<circle cx="175.42098304912795" cy="542.8041120260954" r="0.5" style="fill:none;stroke:white;stroke-width:3"/>
<circle cx="184.89204532581988" cy="540.6604165636003" r="0.5" style="fill:none;stroke:white;stroke-width:3"/>
<circle cx="194.72378275268164" cy="536.5445199619978" r="0.5" style="fill:none;stroke:white;stroke-width:3"/>
<circle cx="206.05165413580508" cy="531.2495879273862" r="0.5" style="fill:none;stroke:white;stroke-width:3"/>
<circle cx="215.37577468464968" cy="526.4262667816132" r="0.5" style="fill:none;stroke:white;stroke-width:3"/>
<circle cx="225.36781217825447" cy="524.3040047239512" r="0.5" style="fill:none;stroke:white;stroke-width:3"/>
<circle cx="233.44960720984545" cy="521.0670182738453" r="0.5" style="fill:none;stroke:white;stroke-width:3"/>
<circle cx="244.49695347617052" cy="519.1162510871887" r="0.5" style="fill:none;stroke:white;stroke-width:3"/>
<circle cx="250.89559780696763" cy="517.0797354798764" r="0.5" style="fill:none;stroke:white;stroke-width:3"/>
<circle cx="255.59773309807514" cy="516.2436921078712" r="0.5" style="fill:none;stroke:white;stroke-width:3"/>
<circle cx="259.44493469989135" cy="516.3080031394958" r="0.5" style="fill:none;stroke:white;stroke-width:3"/>
<circle cx="273.0570820340925" cy="511.4632376074791" r="0.5" style="fill:none;stroke:white;stroke-width:3"/>
<circle cx="276.18293333556795" cy="509.1480390720069" r="0.5" style="fill:none;stroke:white;stroke-width:3"/>
<circle cx="281.61977726591084" cy="506.3826623260975" r="0.5" style="fill:none;stroke:white;stroke-width:3"/>
<circle cx="285.8276540178969" cy="503.85309221595526" r="0.5" style="fill:none;stroke:white;stroke-width:3"/>
<circle cx="297.20895875660153" cy="499.8229283161461" r="0.5" style="fill:none;stroke:white;stroke-width:3"/>
<circle cx="309.73908064029143" cy="498.7296388875693" r="0.5" style="fill:none;stroke:white;stroke-width:3"/>
<circle cx="318.395284244377" cy="494.39935406595464" r="0.5" style="fill:none;stroke:white;stroke-width:3"/>
<circle cx="324.80728691406927" cy="494.4636652395129" r="0.5" style="fill:none;stroke:white;stroke-width:3"/>
<circle cx="322.69666936862865" cy="493.64905699677763" r="0.5" style="fill:none;stroke:white;stroke-width:3"/>
<circle cx="321.82837734044114" cy="493.99204995185136" r="0.5" style="fill:none;stroke:white;stroke-width:3"/>
<circle cx="321.58792724032827" cy="495.1282140232622" r="0.5" style="fill:none;stroke:white;stroke-width:3"/>
<circle cx="321.72151062927986" cy="496.47874850034714" r="0.5" style="fill:none;stroke:white;stroke-width:3"/>
<circle cx="321.935244051603" cy="502.0523808918893" r="0.5" style="fill:none;stroke:white;stroke-width:3"/>
<circle cx="323.87220319140596" cy="509.8554609071463" r="0.5" style="fill:none;stroke:white;stroke-width:3"/>
<circle cx="330.67159768905896" cy="517.4227276157587" r="0.5" style="fill:none;stroke:white;stroke-width:3"/>
<circle cx="338.2057008259479" cy="516.4794992219656" r="0.5" style="fill:none;stroke:white;stroke-width:3"/>
<circle cx="348.6519218419891" cy="512.8995179057121" r="0.5" style="fill:none;stroke:white;stroke-width:3"/>
<circle cx="358.1630591353665" cy="514.957471396029" r="0.5" style="fill:none;stroke:white;stroke-width:3"/>
<circle cx="360.8213685755098" cy="521.4528842680156" r="0.5" style="fill:none;stroke:white;stroke-width:3"/>
<circle cx="364.802153566277" cy="525.0114254627376" r="0.5" style="fill:none;stroke:white;stroke-width:3"/>
<circle cx="368.7428635403588" cy="530.7779744088649" r="0.5" style="fill:none;stroke:white;stroke-width:3"/>
<circle cx="371.20079789707466" cy="536.7374526545406" r="0.5" style="fill:none;stroke:white;stroke-width:3"/>
<circle cx="371.9355065363101" cy="541.8608860831707" r="0.5" style="fill:none;stroke:white;stroke-width:3"/>
<circle cx="375.20829956563176" cy="548.2919702723622" r="0.5" style="fill:none;stroke:white;stroke-width:3"/>
<circle cx="378.10705910588894" cy="557.4884133271872" r="0.5" style="fill:none;stroke:white;stroke-width:3"/>
<circle cx="382.52866928019756" cy="570.9722267836332" r="0.5" style="fill:none;stroke:white;stroke-width:3"/>
<circle cx="383.7977114752415" cy="585.1848749153315" r="0.5" style="fill:none;stroke:white;stroke-width:3"/>
<circle cx="392.46727341822117" cy="595.7532409172505" r="0.5" style="fill:none;stroke:white;stroke-width:3"/>
<circle cx="392.5474234515921" cy="602.1414160463959" r="0.5" style="fill:none;stroke:white;stroke-width:3"/>
<circle cx="390.3833725505714" cy="620.1268934313208" r="0.5" style="fill:none;stroke:white;stroke-width:3"/>
<circle cx="387.92543819385554" cy="632.9889547158033" r="0.5" style="fill:none;stroke:white;stroke-width:3"/>
<circle cx="385.16026204255104" cy="643.6430160216987" r="0.5" style="fill:none;stroke:white;stroke-width:3"/>
<circle cx="379.22915957308504" cy="654.1041353479028" r="0.5" style="fill:none;stroke:white;stroke-width:3"/>
<circle cx="380.33790170138656" cy="657.9413054108619" r="0.5" style="fill:none;stroke:white;stroke-width:3"/>
<circle cx="380.5516351237091" cy="656.4407362986356" r="0.5" style="fill:none;stroke:white;stroke-width:3"/>
<circle cx="379.48296801209415" cy="658.1556724123657" r="0.5" style="fill:none;stroke:white;stroke-width:3"/>
<circle cx="379.69670143441726" cy="660.1278485778719" r="0.5" style="fill:none;stroke:white;stroke-width:3"/>
<circle cx="379.29595126756084" cy="661.1782465886324" r="0.5" style="fill:none;stroke:white;stroke-width:3"/>
<circle cx="381.15276037399235" cy="671.3821071255952" r="0.5" style="fill:none;stroke:white;stroke-width:3"/>
<circle cx="382.88934443036794" cy="684.1154811937362" r="0.5" style="fill:none;stroke:white;stroke-width:3"/>
<circle cx="383.3969613083851" cy="695.2625290688127" r="0.5" style="fill:none;stroke:white;stroke-width:3"/>
<circle cx="388.0590215828077" cy="700.000020571053" r="0.5" style="fill:none;stroke:white;stroke-width:3"/>
<circle cx="390.97113946195947" cy="702.3151739548891" r="0.5" style="fill:none;stroke:white;stroke-width:3"/>
<circle cx="396.5950001368357" cy="704.6517633866519" r="0.5" style="fill:none;stroke:white;stroke-width:3"/>
<circle cx="408.5106384313478" cy="709.0677015256136" r="0.5" style="fill:none;stroke:white;stroke-width:3"/>
<circle cx="411.0086478047486" cy="708.2531111497432" r="0.5" style="fill:none;stroke:white;stroke-width:3"/>
<circle cx="414.6421159842412" cy="706.816859523207" r="0.5" style="fill:none;stroke:white;stroke-width:3"/>
<circle cx="413.82725731163424" cy="717.9638815384358" r="0.5" style="fill:none;stroke:white;stroke-width:3"/>
<circle cx="415.39018296237225" cy="728.2534290499985" r="0.5" style="fill:none;stroke:white;stroke-width:3"/>
<circle cx="416.76609186857695" cy="726.4098859179765" r="0.5" style="fill:none;stroke:white;stroke-width:3"/>
<circle cx="420.3461266924883" cy="727.5245864622294" r="0.5" style="fill:none;stroke:white;stroke-width:3"/>
<circle cx="422.5903276268811" cy="727.3316575292498" r="0.5" style="fill:none;stroke:white;stroke-width:3"/>
<circle cx="425.58259553940496" cy="728.4892310544848" r="0.5" style="fill:none;stroke:white;stroke-width:3"/>
<circle cx="427.4794796625214" cy="731.1044892579317" r="0.5" style="fill:none;stroke:white;stroke-width:3"/>
<circle cx="433.7578989432621" cy="734.3628427661955" r="0.5" style="fill:none;stroke:white;stroke-width:3"/>
<circle cx="438.1928674564664" cy="733.1195237919688" r="0.5" style="fill:none;stroke:white;stroke-width:3"/>
<circle cx="439.3817596181378" cy="733.6983102355152" r="0.5" style="fill:none;stroke:white;stroke-width:3"/>
<circle cx="449.76118893970266" cy="740.9438560836016" r="0.5" style="fill:none;stroke:white;stroke-width:3"/>
<circle cx="459.592926366565" cy="735.4346693392843" r="0.5" style="fill:none;stroke:white;stroke-width:3"/>
<circle cx="460.31427666690576" cy="734.9845021974295" r="0.5" style="fill:none;stroke:white;stroke-width:3"/>
<circle cx="462.42489421234586" cy="737.0852820385247" r="0.5" style="fill:none;stroke:white;stroke-width:3"/>
<circle cx="471.54863967776305" cy="744.3736984055489" r="0.5" style="fill:none;stroke:white;stroke-width:3"/>
<circle cx="477.50645882501885" cy="751.4691808886826" r="0.5" style="fill:none;stroke:white;stroke-width:3"/>
<circle cx="483.5043529889601" cy="760.9012342292815" r="0.5" style="fill:none;stroke:white;stroke-width:3"/>
<circle cx="489.67590555853945" cy="764.8884176820517" r="0.5" style="fill:none;stroke:white;stroke-width:3"/>
<circle cx="497.3569504232751" cy="764.5239977538586" r="0.5" style="fill:none;stroke:white;stroke-width:3"/>
<circle cx="504.8643368823737" cy="761.501455495879" r="0.5" style="fill:none;stroke:white;stroke-width:3"/>
<circle cx="516.2589999599735" cy="756.163772207871" r="0.5" style="fill:none;stroke:white;stroke-width:3"/>
<circle cx="524.9285619029537" cy="752.1551487084478" r="0.5" style="fill:none;stroke:white;stroke-width:3"/>
<circle cx="533.4912571347714" cy="756.0351533018053" r="0.5" style="fill:none;stroke:white;stroke-width:3"/>
<circle cx="540.6646851214906" cy="759.0791337255388" r="0.5" style="fill:none;stroke:white;stroke-width:3"/>
<circle cx="542.6817942946645" cy="760.9012342292815" r="0.5" style="fill:none;stroke:white;stroke-width:3"/>
<circle cx="550.4964225483524" cy="768.318251607567" r="0.5" style="fill:none;stroke:white;stroke-width:3"/>
<circle cx="553.021148599544" cy="770.2475326649844" r="0.5" style="fill:none;stroke:white;stroke-width:3"/>
<circle cx="553.1146569718101" cy="771.5980291776359" r="0.5" style="fill:none;stroke:white;stroke-width:3"/>
<circle cx="559.6869597082454" cy="784.5242006566375" r="0.5" style="fill:none;stroke:white;stroke-width:3"/>
<circle cx="567.0340461006009" cy="795.9069345407188" r="0.5" style="fill:none;stroke:white;stroke-width:3"/>
<circle cx="574.367774154062" cy="806.067781849578" r="0.5" style="fill:none;stroke:white;stroke-width:3"/>
<circle cx="583.6117446695362" cy="813.6133831478655" r="0.5" style="fill:none;stroke:white;stroke-width:3"/>
<circle cx="594.8193910026015" cy="818.5223081476986" r="0.5" style="fill:none;stroke:white;stroke-width:3"/>
<circle cx="609.6204304984761" cy="819.7013072300703" r="0.5" style="fill:none;stroke:white;stroke-width:3"/>
<circle cx="619.665901347661" cy="825.1890102043748" r="0.5" style="fill:none;stroke:white;stroke-width:3"/>
<circle cx="633.8257405765653" cy="828.8331862550228" r="0.5" style="fill:none;stroke:white;stroke-width:3"/>
<circle cx="647.5046796052421" cy="831.5555992472916" r="0.5" style="fill:none;stroke:white;stroke-width:3"/>
<circle cx="656.1742415482223" cy="837.12904080078" r="0.5" style="fill:none;stroke:white;stroke-width:3"/>
<circle cx="667.8627880815167" cy="843.1740776684135" r="0.5" style="fill:none;stroke:white;stroke-width:3"/>
<circle cx="676.74608344682" cy="848.4045320872217" r="0.5" style="fill:none;stroke:white;stroke-width:3"/>
<circle cx="684.7343701061449" cy="851.255557290092" r="0.5" style="fill:none;stroke:white;stroke-width:3"/>
<circle cx="695.1939494610807" cy="854.2566355515271" r="0.5" style="fill:none;stroke:white;stroke-width:3"/>
<circle cx="703.4494028983099" cy="860.3874068688601" r="0.5" style="fill:none;stroke:white;stroke-width:3"/>
<circle cx="710.9033560018279" cy="864.5246035214514" r="0.5" style="fill:none;stroke:white;stroke-width:3"/>
<circle cx="718.5576841887738" cy="869.3048855591566" r="0.5" style="fill:none;stroke:white;stroke-width:3"/>
<circle cx="718.0901423274415" cy="868.0401474885642" r="0.5" style="fill:none;stroke:white;stroke-width:3"/>
<circle cx="719.0653010667903" cy="866.9897716797888" r="0.5" style="fill:none;stroke:white;stroke-width:3"/>
<circle cx="717.6226004661099" cy="864.2673685468733" r="0.5" style="fill:none;stroke:white;stroke-width:3"/>
<circle cx="716.7676667768175" cy="863.8600798230618" r="0.5" style="fill:none;stroke:white;stroke-width:3"/>
<circle cx="716.2734082376961" cy="863.7957710757852" r="0.5" style="fill:none;stroke:white;stroke-width:3"/>
<circle cx="714.6303325535865" cy="865.3177446462214" r="0.5" style="fill:none;stroke:white;stroke-width:3"/>
<circle cx="714.8707826537011" cy="873.7636218588799" r="0.5" style="fill:none;stroke:white;stroke-width:3"/>
<circle cx="716.1665415265337" cy="881.8236400086432" r="0.5" style="fill:none;stroke:white;stroke-width:3"/>
<circle cx="717.8363338884329" cy="880.1944879386574" r="0.5" style="fill:none;stroke:white;stroke-width:3"/>
<circle cx="720.9488268510128" cy="883.6457176588475" r="0.5" style="fill:none;stroke:white;stroke-width:3"/>
<circle cx="735.1220244188127" cy="896.2930708330124" r="0.5" style="fill:none;stroke:white;stroke-width:3"/>
<circle cx="747.5185629135516" cy="901.3091351922601" r="0.5" style="fill:none;stroke:white;stroke-width:3"/>
<circle cx="764.8176117828259" cy="902.8311029300094" r="0.5" style="fill:none;stroke:white;stroke-width:3"/>
<circle cx="776.3859332660633" cy="905.8536015395075" r="0.5" style="fill:none;stroke:white;stroke-width:3"/>
<circle cx="788.274854882785" cy="909.2190776109695" r="0.5" style="fill:none;stroke:white;stroke-width:3"/>
<circle cx="802.1808856726802" cy="904.3101981114596" r="0.5" style="fill:none;stroke:white;stroke-width:3"/>
<circle cx="810.6634308711276" cy="889.7550343729555" r="0.5" style="fill:none;stroke:white;stroke-width:3"/>
<circle cx="814.0430906116117" cy="880.9661915849894" r="0.5" style="fill:none;stroke:white;stroke-width:3"/>
<circle cx="817.2490919464575" cy="865.7679058011621" r="0.5" style="fill:none;stroke:white;stroke-width:3"/>
<circle cx="823.0198943491815" cy="854.2566355515271" r="0.5" style="fill:none;stroke:white;stroke-width:3"/>
<circle cx="824.8232701000325" cy="846.1108495451509" r="0.5" style="fill:none;stroke:white;stroke-width:3"/>
<circle cx="829.7658554912539" cy="836.9789866436273" r="0.5" style="fill:none;stroke:white;stroke-width:3"/>
<circle cx="834.4011990878851" cy="825.4462462060153" r="0.5" style="fill:none;stroke:white;stroke-width:3"/>
<circle cx="838.2083256730158" cy="820.0228524159639" r="0.5" style="fill:none;stroke:white;stroke-width:3"/>
<circle cx="838.0881006229583" cy="806.5179457213729" r="0.5" style="fill:none;stroke:white;stroke-width:3"/>
<circle cx="844.112711464691" cy="794.8351145859807" r="0.5" style="fill:none;stroke:white;stroke-width:3"/>
<circle cx="845.7157121321144" cy="784.8886198338121" r="0.5" style="fill:none;stroke:white;stroke-width:3"/>
<circle cx="854.371915736199" cy="776.1211193170399" r="0.5" style="fill:none;stroke:white;stroke-width:3"/>
<circle cx="859.9156263777037" cy="768.468306811899" r="0.5" style="fill:none;stroke:white;stroke-width:3"/>
<circle cx="861.2648186061185" cy="760.1509575918317" r="0.5" style="fill:none;stroke:white;stroke-width:3"/>
<circle cx="868.4382465928365" cy="752.498132603243" r="0.5" style="fill:none;stroke:white;stroke-width:3"/>
<circle cx="871.4973061998362" cy="741.3297134064138" r="0.5" style="fill:none;stroke:white;stroke-width:3"/>
<circle cx="868.892430115273" cy="729.5181851852685" r="0.5" style="fill:none;stroke:white;stroke-width:3"/>
<circle cx="870.0813222769455" cy="716.7205604810267" r="0.5" style="fill:none;stroke:white;stroke-width:3"/>
<circle cx="866.9821876532603" cy="709.1534478809684" r="0.5" style="fill:none;stroke:white;stroke-width:3"/>
<circle cx="867.6901796147059" cy="705.3162978965789" r="0.5" style="fill:none;stroke:white;stroke-width:3"/>
<circle cx="877.1879585691883" cy="689.6890067182482" r="0.5" style="fill:none;stroke:white;stroke-width:3"/>
<circle cx="884.788853400553" cy="689.4960770454257" r="0.5" style="fill:none;stroke:white;stroke-width:3"/>
<circle cx="882.8251775829596" cy="689.9891195453703" r="0.5" style="fill:none;stroke:white;stroke-width:3"/>
<circle cx="879.1382760478864" cy="692.5400781668723" r="0.5" style="fill:none;stroke:white;stroke-width:3"/>
<circle cx="883.5999612388811" cy="695.4340220142155" r="0.5" style="fill:none;stroke:white;stroke-width:3"/>
<circle cx="895.181641061013" cy="699.9785839632153" r="0.5" style="fill:none;stroke:white;stroke-width:3"/>
<circle cx="906.8301125776208" cy="704.072975230962" r="0.5" style="fill:none;stroke:white;stroke-width:3"/>
<circle cx="927.2950877650571" cy="699.5927250109613" r="0.5" style="fill:none;stroke:white;stroke-width:3"/>
<circle cx="941.8556771608168" cy="698.1564721159637" r="0.5" style="fill:none;stroke:white;stroke-width:3"/>
<circle cx="954.1987822999745" cy="693.976331884414" r="0.5" style="fill:none;stroke:white;stroke-width:3"/>
<circle cx="914.591307475728" cy="595.1530094861984" r="0.5" style="fill:none;stroke:white;stroke-width:3"/>
<circle cx="918.9995593111414" cy="581.9264717437327" r="0.5" style="fill:none;stroke:white;stroke-width:3"/>
<circle cx="921.7113021068658" cy="569.6860132701695" r="0.5" style="fill:none;stroke:white;stroke-width:3"/>
<circle cx="926.7607542092486" cy="559.5463574364782" r="0.5" style="fill:none;stroke:white;stroke-width:3"/>
<circle cx="929.7930971384579" cy="548.5920874290168" r="0.5" style="fill:none;stroke:white;stroke-width:3"/>
<circle cx="930.6480308277503" cy="538.1737292390317" r="0.5" style="fill:none;stroke:white;stroke-width:3"/>
<circle cx="933.9208238570719" cy="528.4842174265533" r="0.5" style="fill:none;stroke:white;stroke-width:3"/>
<circle cx="939.037067653931" cy="518.258770884946" r="0.5" style="fill:none;stroke:white;stroke-width:3"/>
<circle cx="943.4586778282396" cy="507.36876575164496" r="0.5" style="fill:none;stroke:white;stroke-width:3"/>
<circle cx="947.7734212913875" cy="498.12940150424834" r="0.5" style="fill:none;stroke:white;stroke-width:3"/>
<circle cx="952.3419731935423" cy="487.11075152345" r="0.5" style="fill:none;stroke:white;stroke-width:3"/>
<circle cx="957.0574668235456" cy="477.7427455779165" r="0.5" style="fill:none;stroke:white;stroke-width:3"/>
<circle cx="960.2100348028114" cy="467.6029944833368" r="0.5" style="fill:none;stroke:white;stroke-width:3"/>
<circle cx="962.8416275651648" cy="455.0837101399898" r="0.5" style="fill:none;stroke:white;stroke-width:3"/>
<circle cx="967.3701044506347" cy="444.83674973733724" r="0.5" style="fill:none;stroke:white;stroke-width:3"/>
<circle cx="972.8870984143497" cy="434.50402983538805" r="0.5" style="fill:none;stroke:white;stroke-width:3"/>
<circle cx="977.0682584885449" cy="422.4563219156116" r="0.5" style="fill:none;stroke:white;stroke-width:3"/>
<circle cx="979.5529095230505" cy="411.15890260376034" r="0.5" style="fill:none;stroke:white;stroke-width:3"/>
<circle cx="980.8887434125703" cy="402.17669464498755" r="0.5" style="fill:none;stroke:white;stroke-width:3"/>
<circle cx="984.0680280696258" cy="392.5513600252569" r="0.5" style="fill:none;stroke:white;stroke-width:3"/>
<circle cx="984.5489282698531" cy="387.04197714887556" r="0.5" style="fill:none;stroke:white;stroke-width:3"/>
<circle cx="985.4172202980402" cy="387.4492857120931" r="0.5" style="fill:none;stroke:white;stroke-width:3"/>
<circle cx="985.5240870092025" cy="387.4278484258801" r="0.5" style="fill:none;stroke:white;stroke-width:3"/>
<circle cx="985.230203553508" cy="386.46317020766435" r="0.5" style="fill:none;stroke:white;stroke-width:3"/>
<circle cx="987.5278378434808" cy="381.5325911678374" r="0.5" style="fill:none;stroke:white;stroke-width:3"/>
<circle cx="991.3616811064013" cy="368.1342660203576" r="0.5" style="fill:none;stroke:white;stroke-width:3"/>
<circle cx="993.6993904130596" cy="358.2730869915336" r="0.5" style="fill:none;stroke:white;stroke-width:3"/>
<circle cx="996.3710581920986" cy="349.3551426205784" r="0.5" style="fill:none;stroke:white;stroke-width:3"/>
<circle cx="996.5981499533168" cy="341.6162468098104" r="0.5" style="fill:none;stroke:white;stroke-width:3"/>
<circle cx="996.6248666311067" cy="341.8949329130351" r="0.5" style="fill:none;stroke:white;stroke-width:3"/>
<circle cx="990.4800307393186" cy="337.2858924653381" r="0.5" style="fill:none;stroke:white;stroke-width:3"/>
<circle cx="990.3464473503665" cy="338.2291381314397" r="0.5" style="fill:none;stroke:white;stroke-width:3"/>
<circle cx="990.3197306725762" cy="338.872260119766" r="0.5" style="fill:none;stroke:white;stroke-width:3"/>
<circle cx="991.0410809729165" cy="338.55069913230835" r="0.5" style="fill:none;stroke:white;stroke-width:3"/>
<circle cx="990.2262223003095" cy="339.2581332966685" r="0.5" style="fill:none;stroke:white;stroke-width:3"/>
<circle cx="989.2243468831704" cy="337.8218275118619" r="0.5" style="fill:none;stroke:white;stroke-width:3"/>
<circle cx="989.2510635609607" cy="336.3855215169489" r="0.5" style="fill:none;stroke:white;stroke-width:3"/>
<circle cx="989.4380803054935" cy="336.4069589216262" r="0.5" style="fill:none;stroke:white;stroke-width:3"/>
<circle cx="990.3063723336816" cy="334.8205908671021" r="0.5" style="fill:none;stroke:white;stroke-width:3"/>
<circle cx="991.1212310062874" cy="336.0425230421126" r="0.5" style="fill:none;stroke:white;stroke-width:3"/>
<circle cx="992.4169898791216" cy="335.0564023520797" r="0.5" style="fill:none;stroke:white;stroke-width:3"/>
<circle cx="992.9646817738243" cy="334.7562786452472" r="0.5" style="fill:none;stroke:white;stroke-width:3"/>
<circle cx="994.2737989855532" cy="334.2203434299677" r="0.5" style="fill:none;stroke:white;stroke-width:3"/>
<circle cx="995.8634413140809" cy="334.263218248263" r="0.5" style="fill:none;stroke:white;stroke-width:3"/>
<circle cx="996.1306080919852" cy="334.3704052917659" r="0.5" style="fill:none;stroke:white;stroke-width:3"/>
<circle cx="996.2775498198314" cy="334.45615492276846" r="0.5" style="fill:none;stroke:white;stroke-width:3"/>
<circle cx="996.4244915476787" cy="334.54190456047655" r="0.5" style="fill:none;stroke:white;stroke-width:3"/>
<circle cx="996.531358258841" cy="334.6276541993022" r="0.5" style="fill:none;stroke:white;stroke-width:3"/>
<circle cx="996.611508292212" cy="334.67052901312707" r="0.5" style="fill:none;stroke:white;stroke-width:3"/>
<circle cx="997.1992752036001" cy="335.14215198419987" r="0.5" style="fill:none;stroke:white;stroke-width:3"/>
<circle cx="1002.3422356782495" cy="338.6364487286657" r="0.5" style="fill:none;stroke:white;stroke-width:3"/>
<circle cx="1004.1322530902053" cy="339.7083186496049" r="0.5" style="fill:none;stroke:white;stroke-width:3"/>
<circle cx="1003.7448612622451" cy="339.2152584951371" r="0.5" style="fill:none;stroke:white;stroke-width:3"/>
</g>
</svg>
