<?xml version="1.0" encoding="UTF-8" standalone="no"?>
<!DOCTYPE svg PUBLIC "-//W3C//DTD SVG 1.1//EN" "http://www.w3.org/Graphics/SVG/1.1/DTD/svg11.dtd">
<!-- Created with gpx2svg 0.2.0 -->
<svg xmlns="http://www.w3.org/2000/svg" version="1.1" width="806.1876640186925px" height="1251.2874348912387px" viewBox="0 0 806.1876640186925 1251.2874348912387" viewport-fill="black" >
<rect width="100%" height="100%" fill="#3B3434" />
<g>
<circle cx="738.2745923980774" cy="36.514498182758686" r="0.5" style="fill:none;stroke:white;stroke-width:3"/>
<circle cx="738.5284008370854" cy="36.0" r="0.5" style="fill:none;stroke:white;stroke-width:3"/>
<circle cx="741.6275354607706" cy="37.43630735725164" r="0.5" style="fill:none;stroke:white;stroke-width:3"/>
<circle cx="746.4766124797259" cy="41.595166297629476" r="0.5" style="fill:none;stroke:white;stroke-width:3"/>
<circle cx="742.4156774555871" cy="41.337917339801784" r="0.5" style="fill:none;stroke:white;stroke-width:3"/>
<circle cx="741.9214189164646" cy="41.31647992394864" r="0.5" style="fill:none;stroke:white;stroke-width:3"/>
<circle cx="741.9214189164646" cy="41.31647992394864" r="0.5" style="fill:none;stroke:white;stroke-width:3"/>
<circle cx="740.7859601103728" cy="51.62787026166916" r="0.5" style="fill:none;stroke:white;stroke-width:3"/>
<circle cx="742.0550023054162" cy="47.74770178645849" r="0.5" style="fill:none;stroke:white;stroke-width:3"/>
<circle cx="745.79533719607" cy="47.53332779109478" r="0.5" style="fill:none;stroke:white;stroke-width:3"/>
<circle cx="770.1876640186925" cy="57.35165189355612" r="0.5" style="fill:none;stroke:white;stroke-width:3"/>
<circle cx="766.7946459393133" cy="57.41596402823925" r="0.5" style="fill:none;stroke:white;stroke-width:3"/>
<circle cx="762.6268442040138" cy="57.58746304661035" r="0.5" style="fill:none;stroke:white;stroke-width:3"/>
<circle cx="763.0543110486594" cy="56.94434169977903" r="0.5" style="fill:none;stroke:white;stroke-width:3"/>
<circle cx="755.80073302857" cy="53.70729693844914" r="0.5" style="fill:none;stroke:white;stroke-width:3"/>
<circle cx="757.9247089129063" cy="54.71485403291881" r="0.5" style="fill:none;stroke:white;stroke-width:3"/>
<circle cx="757.8846338962203" cy="54.779166182130574" r="0.5" style="fill:none;stroke:white;stroke-width:3"/>
<circle cx="757.7243338294778" cy="54.67197926156223" r="0.5" style="fill:none;stroke:white;stroke-width:3"/>
<circle cx="757.5106004071547" cy="54.56479233652353" r="0.5" style="fill:none;stroke:white;stroke-width:3"/>
<circle cx="757.1499252569848" cy="54.41473064906895" r="0.5" style="fill:none;stroke:white;stroke-width:3"/>
<circle cx="757.3503003404122" cy="53.04273794554174" r="0.5" style="fill:none;stroke:white;stroke-width:3"/>
<circle cx="754.3045990723089" cy="52.35674151778221" r="0.5" style="fill:none;stroke:white;stroke-width:3"/>
<circle cx="754.0107156166142" cy="52.31386673860252" r="0.5" style="fill:none;stroke:white;stroke-width:3"/>
<circle cx="755.0927410671244" cy="53.40717352442443" r="0.5" style="fill:none;stroke:white;stroke-width:3"/>
<circle cx="753.3828736885396" cy="52.76405190378427" r="0.5" style="fill:none;stroke:white;stroke-width:3"/>
<circle cx="741.1466352605437" cy="56.23690816573799" r="0.5" style="fill:none;stroke:white;stroke-width:3"/>
<circle cx="733.131631923428" cy="59.0023298677057" r="0.5" style="fill:none;stroke:white;stroke-width:3"/>
<circle cx="732.4236399619829" cy="61.44619025811553" r="0.5" style="fill:none;stroke:white;stroke-width:3"/>
<circle cx="728.4562133101102" cy="66.74121899865567" r="0.5" style="fill:none;stroke:white;stroke-width:3"/>
<circle cx="724.0212447969064" cy="72.80798930302262" r="0.5" style="fill:none;stroke:white;stroke-width:3"/>
<circle cx="716.8478168101874" cy="86.46356806755065" r="0.5" style="fill:none;stroke:white;stroke-width:3"/>
<circle cx="722.0709273182077" cy="99.28307365067303" r="0.5" style="fill:none;stroke:white;stroke-width:3"/>
<circle cx="718.343950766449" cy="120.67746194824576" r="0.5" style="fill:none;stroke:white;stroke-width:3"/>
<circle cx="715.0711577371263" cy="135.40483432933686" r="0.5" style="fill:none;stroke:white;stroke-width:3"/>
<circle cx="714.136074014464" cy="146.98091933391987" r="0.5" style="fill:none;stroke:white;stroke-width:3"/>
<circle cx="712.3193399247175" cy="156.88489230126143" r="0.5" style="fill:none;stroke:white;stroke-width:3"/>
<circle cx="708.7125884230152" cy="166.91747807264326" r="0.5" style="fill:none;stroke:white;stroke-width:3"/>
<circle cx="705.4264370547978" cy="175.68526363000274" r="0.5" style="fill:none;stroke:white;stroke-width:3"/>
<circle cx="702.0067022976283" cy="184.4744784258306" r="0.5" style="fill:none;stroke:white;stroke-width:3"/>
<circle cx="697.2377753120445" cy="194.2926651354879" r="0.5" style="fill:none;stroke:white;stroke-width:3"/>
<circle cx="693.0031818822687" cy="202.9532408684492" r="0.5" style="fill:none;stroke:white;stroke-width:3"/>
<circle cx="687.9136547631998" cy="214.8293644376099" r="0.5" style="fill:none;stroke:white;stroke-width:3"/>
<circle cx="682.0894190048963" cy="226.8555326409638" r="0.5" style="fill:none;stroke:white;stroke-width:3"/>
<circle cx="679.0704344145826" cy="237.63834112286565" r="0.5" style="fill:none;stroke:white;stroke-width:3"/>
<circle cx="676.0781665020593" cy="247.6065332237631" r="0.5" style="fill:none;stroke:white;stroke-width:3"/>
<circle cx="675.637341318518" cy="258.2606972124427" r="0.5" style="fill:none;stroke:white;stroke-width:3"/>
<circle cx="671.9771564612345" cy="269.2578402299434" r="0.5" style="fill:none;stroke:white;stroke-width:3"/>
<circle cx="666.9544210366427" cy="282.2700383283198" r="0.5" style="fill:none;stroke:white;stroke-width:3"/>
<circle cx="662.3457941178012" cy="291.08059426881374" r="0.5" style="fill:none;stroke:white;stroke-width:3"/>
<circle cx="660.1283098611988" cy="300.1269475825131" r="0.5" style="fill:none;stroke:white;stroke-width:3"/>
<circle cx="656.4280499872303" cy="311.18835402354597" r="0.5" style="fill:none;stroke:white;stroke-width:3"/>
<circle cx="652.3938316408825" cy="321.2636552095413" r="0.5" style="fill:none;stroke:white;stroke-width:3"/>
<circle cx="647.7184130275647" cy="332.9252674575895" r="0.5" style="fill:none;stroke:white;stroke-width:3"/>
<circle cx="645.100178604107" cy="344.4796820629388" r="0.5" style="fill:none;stroke:white;stroke-width:3"/>
<circle cx="640.9590935465973" cy="356.95586210824547" r="0.5" style="fill:none;stroke:white;stroke-width:3"/>
<circle cx="638.4744425120911" cy="367.9743309203535" r="0.5" style="fill:none;stroke:white;stroke-width:3"/>
<circle cx="635.0814244327124" cy="378.0495736364275" r="0.5" style="fill:none;stroke:white;stroke-width:3"/>
<circle cx="630.7266059528802" cy="388.9179621342569" r="0.5" style="fill:none;stroke:white;stroke-width:3"/>
<circle cx="626.0645456784575" cy="401.60845177061856" r="0.5" style="fill:none;stroke:white;stroke-width:3"/>
<circle cx="622.2173440766419" cy="411.6407866615802" r="0.5" style="fill:none;stroke:white;stroke-width:3"/>
<circle cx="618.3033507803503" cy="422.70206705108285" r="0.5" style="fill:none;stroke:white;stroke-width:3"/>
<circle cx="614.7099576175433" cy="432.0055373959243" r="0.5" style="fill:none;stroke:white;stroke-width:3"/>
<circle cx="612.5191900387317" cy="443.023921700567" r="0.5" style="fill:none;stroke:white;stroke-width:3"/>
<circle cx="608.4849716923837" cy="453.74218247383834" r="0.5" style="fill:none;stroke:white;stroke-width:3"/>
<circle cx="603.4221612511053" cy="463.86020986475046" r="0.5" style="fill:none;stroke:white;stroke-width:3"/>
<circle cx="599.6283930048709" cy="475.43590634576975" r="0.5" style="fill:none;stroke:white;stroke-width:3"/>
<circle cx="594.7525993081251" cy="487.0758984412998" r="0.5" style="fill:none;stroke:white;stroke-width:3"/>
<circle cx="591.0389810952616" cy="498.95167721696197" r="0.5" style="fill:none;stroke:white;stroke-width:3"/>
<circle cx="586.0296040095643" cy="510.3987138681114" r="0.5" style="fill:none;stroke:white;stroke-width:3"/>
<circle cx="579.4973762898151" cy="520.0665190402418" r="0.5" style="fill:none;stroke:white;stroke-width:3"/>
<circle cx="576.4516750217111" cy="531.1276768829673" r="0.5" style="fill:none;stroke:white;stroke-width:3"/>
<circle cx="572.858281858904" cy="546.2402851235121" r="0.5" style="fill:none;stroke:white;stroke-width:3"/>
<circle cx="568.5034633790717" cy="555.1363485630601" r="0.5" style="fill:none;stroke:white;stroke-width:3"/>
<circle cx="563.6276696823261" cy="566.3260843455791" r="0.5" style="fill:none;stroke:white;stroke-width:3"/>
<circle cx="557.9904506685547" cy="577.4729348547756" r="0.5" style="fill:none;stroke:white;stroke-width:3"/>
<circle cx="553.074581955124" cy="589.8630730245262" r="0.5" style="fill:none;stroke:white;stroke-width:3"/>
<circle cx="547.9850548360553" cy="603.2606961205602" r="0.5" style="fill:none;stroke:white;stroke-width:3"/>
<circle cx="542.9088860558817" cy="613.1642073266208" r="0.5" style="fill:none;stroke:white;stroke-width:3"/>
<circle cx="541.1723019995071" cy="622.0387737896293" r="0.5" style="fill:none;stroke:white;stroke-width:3"/>
<circle cx="539.8765431266735" cy="630.8275877203793" r="0.5" style="fill:none;stroke:white;stroke-width:3"/>
<circle cx="538.7811593372671" cy="640.6024544298649" r="0.5" style="fill:none;stroke:white;stroke-width:3"/>
<circle cx="539.6761680432455" cy="645.3183953985572" r="0.5" style="fill:none;stroke:white;stroke-width:3"/>
<circle cx="540.0635598712062" cy="644.7824931308627" r="0.5" style="fill:none;stroke:white;stroke-width:3"/>
<circle cx="540.704760138175" cy="644.5466961275786" r="0.5" style="fill:none;stroke:white;stroke-width:3"/>
<circle cx="540.544460071433" cy="644.5466961275786" r="0.5" style="fill:none;stroke:white;stroke-width:3"/>
<circle cx="540.3040099713196" cy="644.3966434769333" r="0.5" style="fill:none;stroke:white;stroke-width:3"/>
<circle cx="540.3307266491094" cy="644.4609517559409" r="0.5" style="fill:none;stroke:white;stroke-width:3"/>
<circle cx="540.3574433269002" cy="644.5038239389658" r="0.5" style="fill:none;stroke:white;stroke-width:3"/>
<circle cx="540.3708016657954" cy="644.5466961275786" r="0.5" style="fill:none;stroke:white;stroke-width:3"/>
<circle cx="540.6914017992804" cy="653.4212341267615" r="0.5" style="fill:none;stroke:white;stroke-width:3"/>
<circle cx="543.2294861893661" cy="663.7748516276479" r="0.5" style="fill:none;stroke:white;stroke-width:3"/>
<circle cx="539.9967681767299" cy="674.1284581750631" r="0.5" style="fill:none;stroke:white;stroke-width:3"/>
<circle cx="530.979889422475" cy="681.6310647659003" r="0.5" style="fill:none;stroke:white;stroke-width:3"/>
<circle cx="521.2015853511933" cy="686.2612419705838" r="0.5" style="fill:none;stroke:white;stroke-width:3"/>
<circle cx="512.1446315802524" cy="692.8206559147685" r="0.5" style="fill:none;stroke:white;stroke-width:3"/>
<circle cx="504.08955322645124" cy="700.9234553173184" r="0.5" style="fill:none;stroke:white;stroke-width:3"/>
<circle cx="497.10314198426545" cy="710.1409173734486" r="0.5" style="fill:none;stroke:white;stroke-width:3"/>
<circle cx="489.68926389743353" cy="718.8867803189903" r="0.5" style="fill:none;stroke:white;stroke-width:3"/>
<circle cx="481.0063436155582" cy="727.118173597008" r="0.5" style="fill:none;stroke:white;stroke-width:3"/>
<circle cx="471.34826459433407" cy="734.3420729387551" r="0.5" style="fill:none;stroke:white;stroke-width:3"/>
<circle cx="460.6615934781794" cy="741.1372493494301" r="0.5" style="fill:none;stroke:white;stroke-width:3"/>
<circle cx="450.7363476790515" cy="747.6966265194118" r="0.5" style="fill:none;stroke:white;stroke-width:3"/>
<circle cx="441.0916269967225" cy="755.0705616105348" r="0.5" style="fill:none;stroke:white;stroke-width:3"/>
<circle cx="431.3400396032317" cy="762.3801836561412" r="0.5" style="fill:none;stroke:white;stroke-width:3"/>
<circle cx="422.6437609824612" cy="769.4540062330663" r="0.5" style="fill:none;stroke:white;stroke-width:3"/>
<circle cx="414.97607445662015" cy="778.0497655816376" r="0.5" style="fill:none;stroke:white;stroke-width:3"/>
<circle cx="406.92099610281895" cy="786.2168017610908" r="0.5" style="fill:none;stroke:white;stroke-width:3"/>
<circle cx="398.42509256547635" cy="795.2412616275251" r="0.5" style="fill:none;stroke:white;stroke-width:3"/>
<circle cx="392.0398065735744" cy="803.6655123788863" r="0.5" style="fill:none;stroke:white;stroke-width:3"/>
<circle cx="389.2612720833742" cy="814.5977353669703" r="0.5" style="fill:none;stroke:white;stroke-width:3"/>
<circle cx="388.1124549383872" cy="812.7113918814808" r="0.5" style="fill:none;stroke:white;stroke-width:3"/>
<circle cx="387.8720048382738" cy="812.4112917479127" r="0.5" style="fill:none;stroke:white;stroke-width:3"/>
<circle cx="387.69834643263675" cy="812.2826774004847" r="0.5" style="fill:none;stroke:white;stroke-width:3"/>
<circle cx="388.0189465661211" cy="812.6256489850581" r="0.5" style="fill:none;stroke:white;stroke-width:3"/>
<circle cx="387.8185714826932" cy="812.6685204360634" r="0.5" style="fill:none;stroke:white;stroke-width:3"/>
<circle cx="387.8185714826932" cy="812.7113918814808" r="0.5" style="fill:none;stroke:white;stroke-width:3"/>
<circle cx="387.9521548716453" cy="812.8185704950243" r="0.5" style="fill:none;stroke:white;stroke-width:3"/>
<circle cx="387.57812138257975" cy="813.2258492320776" r="0.5" style="fill:none;stroke:white;stroke-width:3"/>
<circle cx="381.2863437629434" cy="820.6211706597358" r="0.5" style="fill:none;stroke:white;stroke-width:3"/>
<circle cx="371.73513145288103" cy="831.103225369379" r="0.5" style="fill:none;stroke:white;stroke-width:3"/>
<circle cx="364.80215356627593" cy="841.6710114955902" r="0.5" style="fill:none;stroke:white;stroke-width:3"/>
<circle cx="358.69739269117287" cy="850.9097766268998" r="0.5" style="fill:none;stroke:white;stroke-width:3"/>
<circle cx="352.2987483603752" cy="862.0777386132628" r="0.5" style="fill:none;stroke:white;stroke-width:3"/>
<circle cx="345.4993538627223" cy="871.2093065042048" r="0.5" style="fill:none;stroke:white;stroke-width:3"/>
<circle cx="338.6465260094881" cy="879.4620072439312" r="0.5" style="fill:none;stroke:white;stroke-width:3"/>
<circle cx="332.6352735066517" cy="887.4574743166565" r="0.5" style="fill:none;stroke:white;stroke-width:3"/>
<circle cx="326.2366291758546" cy="895.5386770214885" r="0.5" style="fill:none;stroke:white;stroke-width:3"/>
<circle cx="320.22537667301714" cy="902.6338388811797" r="0.5" style="fill:none;stroke:white;stroke-width:3"/>
<circle cx="314.2675575257619" cy="908.6572199899703" r="0.5" style="fill:none;stroke:white;stroke-width:3"/>
<circle cx="309.8993807070339" cy="914.9806943826377" r="0.5" style="fill:none;stroke:white;stroke-width:3"/>
<circle cx="302.6725193647342" cy="923.5977613963187" r="0.5" style="fill:none;stroke:white;stroke-width:3"/>
<circle cx="294.68423270540876" cy="933.5223838951438" r="0.5" style="fill:none;stroke:white;stroke-width:3"/>
<circle cx="289.4744805362836" cy="941.7107257671654" r="0.5" style="fill:none;stroke:white;stroke-width:3"/>
<circle cx="284.1712199948923" cy="950.1777212888002" r="0.5" style="fill:none;stroke:white;stroke-width:3"/>
<circle cx="278.6542260311773" cy="958.5375324536114" r="0.5" style="fill:none;stroke:white;stroke-width:3"/>
<circle cx="272.44259844491296" cy="966.9187718689441" r="0.5" style="fill:none;stroke:white;stroke-width:3"/>
<circle cx="265.9103707251632" cy="978.3009550832212" r="0.5" style="fill:none;stroke:white;stroke-width:3"/>
<circle cx="258.84380944960645" cy="986.3392120890319" r="0.5" style="fill:none;stroke:white;stroke-width:3"/>
<circle cx="250.70858106243375" cy="994.506074444577" r="0.5" style="fill:none;stroke:white;stroke-width:3"/>
<circle cx="243.28134463670665" cy="1002.9730242870747" r="0.5" style="fill:none;stroke:white;stroke-width:3"/>
<circle cx="238.11166748426749" cy="1009.446484792605" r="0.5" style="fill:none;stroke:white;stroke-width:3"/>
<circle cx="231.35234800329943" cy="1017.0560107067226" r="0.5" style="fill:none;stroke:white;stroke-width:3"/>
<circle cx="225.9288624118517" cy="1023.3151092790067" r="0.5" style="fill:none;stroke:white;stroke-width:3"/>
<circle cx="217.05892538544302" cy="1032.4679619669914" r="0.5" style="fill:none;stroke:white;stroke-width:3"/>
<circle cx="211.0877478992921" cy="1038.5770040787756" r="0.5" style="fill:none;stroke:white;stroke-width:3"/>
<circle cx="203.6337947957747" cy="1045.2219227503986" r="0.5" style="fill:none;stroke:white;stroke-width:3"/>
<circle cx="196.16648335336157" cy="1051.7382257066668" r="0.5" style="fill:none;stroke:white;stroke-width:3"/>
<circle cx="191.43763138446374" cy="1055.746607286483" r="0.5" style="fill:none;stroke:white;stroke-width:3"/>
<circle cx="181.77955236323905" cy="1063.3989675488322" r="0.5" style="fill:none;stroke:white;stroke-width:3"/>
<circle cx="176.957192022074" cy="1066.1641046550124" r="0.5" style="fill:none;stroke:white;stroke-width:3"/>
<circle cx="176.07554165499187" cy="1068.221880600974" r="0.5" style="fill:none;stroke:white;stroke-width:3"/>
<circle cx="166.56440436161446" cy="1076.2814988970756" r="0.5" style="fill:none;stroke:white;stroke-width:3"/>
<circle cx="155.8376582287743" cy="1084.2553700432181" r="0.5" style="fill:none;stroke:white;stroke-width:3"/>
<circle cx="150.44088931511686" cy="1087.8136007688938" r="0.5" style="fill:none;stroke:white;stroke-width:3"/>
<circle cx="151.93702327137854" cy="1086.3345773097128" r="0.5" style="fill:none;stroke:white;stroke-width:3"/>
<circle cx="153.05912373857464" cy="1088.0708222161977" r="0.5" style="fill:none;stroke:white;stroke-width:3"/>
<circle cx="156.23840839563073" cy="1101.2534123785792" r="0.5" style="fill:none;stroke:white;stroke-width:3"/>
<circle cx="153.08584041636496" cy="1111.9280821345747" r="0.5" style="fill:none;stroke:white;stroke-width:3"/>
<circle cx="126.35580428708417" cy="1116.2150948222727" r="0.5" style="fill:none;stroke:white;stroke-width:3"/>
<circle cx="120.2376850730854" cy="1121.2952024281024" r="0.5" style="fill:none;stroke:white;stroke-width:3"/>
<circle cx="112.74365695288252" cy="1131.6268899243325" r="0.5" style="fill:none;stroke:white;stroke-width:3"/>
<circle cx="110.86013116866015" cy="1142.7730965737253" r="0.5" style="fill:none;stroke:white;stroke-width:3"/>
<circle cx="110.73990611860371" cy="1153.1905013121664" r="0.5" style="fill:none;stroke:white;stroke-width:3"/>
<circle cx="111.62155648568641" cy="1163.3292405433951" r="0.5" style="fill:none;stroke:white;stroke-width:3"/>
<circle cx="112.02230665254173" cy="1168.3878887470812" r="0.5" style="fill:none;stroke:white;stroke-width:3"/>
<circle cx="107.6006964782331" cy="1169.5453756839036" r="0.5" style="fill:none;stroke:white;stroke-width:3"/>
<circle cx="102.43101932579339" cy="1172.760616441816" r="0.5" style="fill:none;stroke:white;stroke-width:3"/>
<circle cx="101.24212716412148" cy="1174.4754110913723" r="0.5" style="fill:none;stroke:white;stroke-width:3"/>
<circle cx="97.76895905137134" cy="1177.1333421897143" r="0.5" style="fill:none;stroke:white;stroke-width:3"/>
<circle cx="94.5629577165244" cy="1179.0624852754174" r="0.5" style="fill:none;stroke:white;stroke-width:3"/>
<circle cx="90.94284787592751" cy="1182.8135957490651" r="0.5" style="fill:none;stroke:white;stroke-width:3"/>
<circle cx="86.32086261819094" cy="1186.243181212619" r="0.5" style="fill:none;stroke:white;stroke-width:3"/>
<circle cx="80.26953509866907" cy="1189.3512419980018" r="0.5" style="fill:none;stroke:white;stroke-width:3"/>
<circle cx="76.32882512458673" cy="1191.280382680893" r="0.5" style="fill:none;stroke:white;stroke-width:3"/>
<circle cx="73.3899905676446" cy="1193.166653191298" r="0.5" style="fill:none;stroke:white;stroke-width:3"/>
<circle cx="66.52380437551528" cy="1198.0323720641434" r="0.5" style="fill:none;stroke:white;stroke-width:3"/>
<circle cx="58.49544269950438" cy="1204.0984410993753" r="0.5" style="fill:none;stroke:white;stroke-width:3"/>
<circle cx="51.16171464604285" cy="1211.021900451556" r="0.5" style="fill:none;stroke:white;stroke-width:3"/>
<circle cx="49.99953916216182" cy="1212.8438626237214" r="0.5" style="fill:none;stroke:white;stroke-width:3"/>
<circle cx="46.94047955516216" cy="1214.8587380457668" r="0.5" style="fill:none;stroke:white;stroke-width:3"/>
<circle cx="45.150462143207" cy="1215.0516516298055" r="0.5" style="fill:none;stroke:white;stroke-width:3"/>
<circle cx="43.66768652583996" cy="1215.2874348912387" r="0.5" style="fill:none;stroke:white;stroke-width:3"/>
<circle cx="43.21350300340345" cy="1215.115956158191" r="0.5" style="fill:none;stroke:white;stroke-width:3"/>
<circle cx="43.013127919976064" cy="1215.115956158191" r="0.5" style="fill:none;stroke:white;stroke-width:3"/>
<circle cx="43.34708639235614" cy="1215.0087819445878" r="0.5" style="fill:none;stroke:white;stroke-width:3"/>
<circle cx="43.37380307014646" cy="1214.9873471025378" r="0.5" style="fill:none;stroke:white;stroke-width:3"/>
<circle cx="43.40051974793623" cy="1214.9873471025378" r="0.5" style="fill:none;stroke:white;stroke-width:3"/>
<circle cx="43.41387808683139" cy="1214.9659122560172" r="0.5" style="fill:none;stroke:white;stroke-width:3"/>
<circle cx="43.41387808683139" cy="1214.9444774195551" r="0.5" style="fill:none;stroke:white;stroke-width:3"/>
<circle cx="43.41387808683139" cy="1214.9016077287495" r="0.5" style="fill:none;stroke:white;stroke-width:3"/>
<circle cx="43.38716140904162" cy="1214.9016077287495" r="0.5" style="fill:none;stroke:white;stroke-width:3"/>
<circle cx="43.37380307014646" cy="1214.880172887817" r="0.5" style="fill:none;stroke:white;stroke-width:3"/>
<circle cx="43.3604447312513" cy="1214.880172887817" r="0.5" style="fill:none;stroke:white;stroke-width:3"/>
<circle cx="43.34708639235614" cy="1214.880172887817" r="0.5" style="fill:none;stroke:white;stroke-width:3"/>
<circle cx="43.34708639235614" cy="1214.880172887817" r="0.5" style="fill:none;stroke:white;stroke-width:3"/>
<circle cx="43.34708639235614" cy="1214.9016077287495" r="0.5" style="fill:none;stroke:white;stroke-width:3"/>
<circle cx="43.0665612755567" cy="1214.8587380457668" r="0.5" style="fill:none;stroke:white;stroke-width:3"/>
<circle cx="43.280294697879796" cy="1214.4729108721017" r="0.5" style="fill:none;stroke:white;stroke-width:3"/>
<circle cx="43.09327795334757" cy="1214.7515638332814" r="0.5" style="fill:none;stroke:white;stroke-width:3"/>
<circle cx="43.013127919976064" cy="1214.5800850868225" r="0.5" style="fill:none;stroke:white;stroke-width:3"/>
<circle cx="43.82798659258297" cy="1214.044213990867" r="0.5" style="fill:none;stroke:white;stroke-width:3"/>
<circle cx="41.650577352666005" cy="1213.851300386712" r="0.5" style="fill:none;stroke:white;stroke-width:3"/>
<circle cx="39.16592631816093" cy="1205.5131421711296" r="0.5" style="fill:none;stroke:white;stroke-width:3"/>
<circle cx="39.713618212863004" cy="1194.9028791513294" r="0.5" style="fill:none;stroke:white;stroke-width:3"/>
<circle cx="37.816734089745474" cy="1185.2143057007343" r="0.5" style="fill:none;stroke:white;stroke-width:3"/>
<circle cx="37.38926724509929" cy="1176.8332532253116" r="0.5" style="fill:none;stroke:white;stroke-width:3"/>
<circle cx="36.0" cy="1166.9731823131442" r="0.5" style="fill:none;stroke:white;stroke-width:3"/>
<circle cx="37.09538378940579" cy="1156.448617389053" r="0.5" style="fill:none;stroke:white;stroke-width:3"/>
<circle cx="39.01898459031363" cy="1146.074086111039" r="0.5" style="fill:none;stroke:white;stroke-width:3"/>
<circle cx="44.10851170938185" cy="1138.9147957094012" r="0.5" style="fill:none;stroke:white;stroke-width:3"/>
<circle cx="49.63886401199197" cy="1132.441420843452" r="0.5" style="fill:none;stroke:white;stroke-width:3"/>
<circle cx="56.291316781798194" cy="1124.6176342383026" r="0.5" style="fill:none;stroke:white;stroke-width:3"/>
<circle cx="63.210936329507604" cy="1117.1582373641431" r="0.5" style="fill:none;stroke:white;stroke-width:3"/>
<circle cx="70.27749760506431" cy="1107.4695869475602" r="0.5" style="fill:none;stroke:white;stroke-width:3"/>
<circle cx="73.14954046753064" cy="1097.6094461381435" r="0.5" style="fill:none;stroke:white;stroke-width:3"/>
<circle cx="75.11321628512451" cy="1090.1071584362537" r="0.5" style="fill:none;stroke:white;stroke-width:3"/>
<circle cx="82.52709437195644" cy="1082.3476433951407" r="0.5" style="fill:none;stroke:white;stroke-width:3"/>
<circle cx="85.78652906238348" cy="1074.8453439932316" r="0.5" style="fill:none;stroke:white;stroke-width:3"/>
<circle cx="89.54022229193251" cy="1071.051321825385" r="0.5" style="fill:none;stroke:white;stroke-width:3"/>
<circle cx="90.2615725922733" cy="1070.8155350893735" r="0.5" style="fill:none;stroke:white;stroke-width:3"/>
<circle cx="92.09166502091448" cy="1069.7223419565707" r="0.5" style="fill:none;stroke:white;stroke-width:3"/>
<circle cx="98.04948416817078" cy="1066.89290035218" r="0.5" style="fill:none;stroke:white;stroke-width:3"/>
<circle cx="107.50718810596699" cy="1061.2340146880597" r="0.5" style="fill:none;stroke:white;stroke-width:3"/>
<circle cx="114.37337429809631" cy="1055.7037368994206" r="0.5" style="fill:none;stroke:white;stroke-width:3"/>
<circle cx="123.43032806903665" cy="1046.7223876319824" r="0.5" style="fill:none;stroke:white;stroke-width:3"/>
<circle cx="128.25268841020116" cy="1039.0914495572447" r="0.5" style="fill:none;stroke:white;stroke-width:3"/>
<circle cx="130.73733944470732" cy="1031.8463399223983" r="0.5" style="fill:none;stroke:white;stroke-width:3"/>
<circle cx="133.9166241017634" cy="1025.07280061692" r="0.5" style="fill:none;stroke:white;stroke-width:3"/>
<circle cx="137.2562088255614" cy="1018.3849977225065" r="0.5" style="fill:none;stroke:white;stroke-width:3"/>
<circle cx="140.64922690494058" cy="1009.3178730312734" r="0.5" style="fill:none;stroke:white;stroke-width:3"/>
<circle cx="142.98693621159944" cy="1002.1370472840964" r="0.5" style="fill:none;stroke:white;stroke-width:3"/>
<circle cx="145.51166226279057" cy="993.5414847560227" r="0.5" style="fill:none;stroke:white;stroke-width:3"/>
<circle cx="148.9180386810649" cy="985.1388327945024" r="0.5" style="fill:none;stroke:white;stroke-width:3"/>
<circle cx="150.6412643985448" cy="981.4948233246803" r="0.5" style="fill:none;stroke:white;stroke-width:3"/>
<circle cx="153.7671157000197" cy="976.0716773081571" r="0.5" style="fill:none;stroke:white;stroke-width:3"/>
<circle cx="158.45589265223262" cy="969.5767593428492" r="0.5" style="fill:none;stroke:white;stroke-width:3"/>
<circle cx="165.36215386104686" cy="964.5823145449161" r="0.5" style="fill:none;stroke:white;stroke-width:3"/>
<circle cx="174.7263494265775" cy="958.4517908379435" r="0.5" style="fill:none;stroke:white;stroke-width:3"/>
<circle cx="181.6994023298681" cy="951.2923631865531" r="0.5" style="fill:none;stroke:white;stroke-width:3"/>
<circle cx="187.29654632695454" cy="942.718191440776" r="0.5" style="fill:none;stroke:white;stroke-width:3"/>
<circle cx="191.7582315179481" cy="936.6948312956839" r="0.5" style="fill:none;stroke:white;stroke-width:3"/>
<circle cx="197.0481337204448" cy="929.642565062642" r="0.5" style="fill:none;stroke:white;stroke-width:3"/>
<circle cx="200.90869366115513" cy="924.5837934572249" r="0.5" style="fill:none;stroke:white;stroke-width:3"/>
<circle cx="205.717695663425" cy="920.1680838905274" r="0.5" style="fill:none;stroke:white;stroke-width:3"/>
<circle cx="214.1868825229767" cy="917.9173573762179" r="0.5" style="fill:none;stroke:white;stroke-width:3"/>
<circle cx="221.94807742108387" cy="916.4168727446347" r="0.5" style="fill:none;stroke:white;stroke-width:3"/>
<circle cx="225.76856234510979" cy="915.6880658481269" r="0.5" style="fill:none;stroke:white;stroke-width:3"/>
<circle cx="235.57358309418012" cy="911.7653689306229" r="0.5" style="fill:none;stroke:white;stroke-width:3"/>
<circle cx="246.7010793938767" cy="905.3561503753066" r="0.5" style="fill:none;stroke:white;stroke-width:3"/>
<circle cx="254.28861588634516" cy="896.7390673063695" r="0.5" style="fill:none;stroke:white;stroke-width:3"/>
<circle cx="258.9239594829774" cy="891.2086965613067" r="0.5" style="fill:none;stroke:white;stroke-width:3"/>
<circle cx="266.05731245301047" cy="885.0995624542236" r="0.5" style="fill:none;stroke:white;stroke-width:3"/>
<circle cx="271.373931333297" cy="879.8049764793366" r="0.5" style="fill:none;stroke:white;stroke-width:3"/>
<circle cx="276.8241336025361" cy="871.4879692398011" r="0.5" style="fill:none;stroke:white;stroke-width:3"/>
<circle cx="279.57595141494545" cy="862.2492235355079" r="0.5" style="fill:none;stroke:white;stroke-width:3"/>
<circle cx="279.8030431761637" cy="857.1046745840459" r="0.5" style="fill:none;stroke:white;stroke-width:3"/>
<circle cx="279.41565134820354" cy="856.504477025941" r="0.5" style="fill:none;stroke:white;stroke-width:3"/>
<circle cx="280.0969266318589" cy="850.1380935631693" r="0.5" style="fill:none;stroke:white;stroke-width:3"/>
<circle cx="281.2323854379496" cy="835.7547675278038" r="0.5" style="fill:none;stroke:white;stroke-width:3"/>
<circle cx="285.346753817669" cy="825.2941534906626" r="0.5" style="fill:none;stroke:white;stroke-width:3"/>
<circle cx="293.56213223821266" cy="815.9910570301115" r="0.5" style="fill:none;stroke:white;stroke-width:3"/>
<circle cx="299.5065930465733" cy="808.7886536903679" r="0.5" style="fill:none;stroke:white;stroke-width:3"/>
<circle cx="306.2792708664365" cy="802.1650102302432" r="0.5" style="fill:none;stroke:white;stroke-width:3"/>
<circle cx="313.8534490200109" cy="795.3055689107626" r="0.5" style="fill:none;stroke:white;stroke-width:3"/>
<circle cx="319.637609761629" cy="789.7751408457756" r="0.5" style="fill:none;stroke:white;stroke-width:3"/>
<circle cx="324.3397450527371" cy="782.5298466391861" r="0.5" style="fill:none;stroke:white;stroke-width:3"/>
<circle cx="329.0552386827403" cy="775.9490570135414" r="0.5" style="fill:none;stroke:white;stroke-width:3"/>
<circle cx="336.29545836393464" cy="768.3179078031332" r="0.5" style="fill:none;stroke:white;stroke-width:3"/>
<circle cx="340.1025849490648" cy="760.4295225888491" r="0.5" style="fill:none;stroke:white;stroke-width:3"/>
<circle cx="342.4402942557237" cy="752.0909780424088" r="0.5" style="fill:none;stroke:white;stroke-width:3"/>
<circle cx="346.38100422980494" cy="745.488732079044" r="0.5" style="fill:none;stroke:white;stroke-width:3"/>
<circle cx="349.9877557315072" cy="738.9936610881239" r="0.5" style="fill:none;stroke:white;stroke-width:3"/>
<circle cx="354.71660770040506" cy="732.4557139847427" r="0.5" style="fill:none;stroke:white;stroke-width:3"/>
<circle cx="356.92073361811237" cy="724.7387871902436" r="0.5" style="fill:none;stroke:white;stroke-width:3"/>
<circle cx="359.2183679080857" cy="716.8503668490797" r="0.5" style="fill:none;stroke:white;stroke-width:3"/>
<circle cx="359.6057597360464" cy="708.2974256526678" r="0.5" style="fill:none;stroke:white;stroke-width:3"/>
<circle cx="359.33859295814216" cy="704.0102342739701" r="0.5" style="fill:none;stroke:white;stroke-width:3"/>
<circle cx="358.296642524317" cy="695.0285622362047" r="0.5" style="fill:none;stroke:white;stroke-width:3"/>
<circle cx="359.17829289140025" cy="688.662073726952" r="0.5" style="fill:none;stroke:white;stroke-width:3"/>
<circle cx="361.9568273816005" cy="680.3877760693431" r="0.5" style="fill:none;stroke:white;stroke-width:3"/>
<circle cx="368.82301357372927" cy="674.6643588356674" r="0.5" style="fill:none;stroke:white;stroke-width:3"/>
<circle cx="375.7960664770193" cy="666.6472818687558" r="0.5" style="fill:none;stroke:white;stroke-width:3"/>
<circle cx="382.31493585787393" cy="659.6376931551844" r="0.5" style="fill:none;stroke:white;stroke-width:3"/>
<circle cx="391.87950650683194" cy="655.1789919063449" r="0.5" style="fill:none;stroke:white;stroke-width:3"/>
<circle cx="401.0700436667244" cy="651.6634760297835" r="0.5" style="fill:none;stroke:white;stroke-width:3"/>
<circle cx="410.26058082661746" cy="649.8842815384269" r="0.5" style="fill:none;stroke:white;stroke-width:3"/>
<circle cx="417.6744589134494" cy="645.3612675759941" r="0.5" style="fill:none;stroke:white;stroke-width:3"/>
<circle cx="425.0081869669104" cy="638.8018218163401" r="0.5" style="fill:none;stroke:white;stroke-width:3"/>
<circle cx="431.95452319241014" cy="633.1426886100322" r="0.5" style="fill:none;stroke:white;stroke-width:3"/>
<circle cx="438.7939927067491" cy="628.9626449368894" r="0.5" style="fill:none;stroke:white;stroke-width:3"/>
<circle cx="445.005620293014" cy="625.0183969594538" r="0.5" style="fill:none;stroke:white;stroke-width:3"/>
<circle cx="453.4347321358808" cy="620.3238823514431" r="0.5" style="fill:none;stroke:white;stroke-width:3"/>
<circle cx="462.82564437920064" cy="616.1223970446736" r="0.5" style="fill:none;stroke:white;stroke-width:3"/>
<circle cx="470.65363097178414" cy="611.8994737699628" r="0.5" style="fill:none;stroke:white;stroke-width:3"/>
<circle cx="478.0541507197209" cy="606.7762293867767" r="0.5" style="fill:none;stroke:white;stroke-width:3"/>
<circle cx="486.9641627628145" cy="603.9252177514136" r="0.5" style="fill:none;stroke:white;stroke-width:3"/>
<circle cx="496.38179168392526" cy="603.7537283018231" r="0.5" style="fill:none;stroke:white;stroke-width:3"/>
<circle cx="508.5779550952362" cy="608.1267082963138" r="0.5" style="fill:none;stroke:white;stroke-width:3"/>
<circle cx="517.4478921216443" cy="608.1052721232176" r="0.5" style="fill:none;stroke:white;stroke-width:3"/>
<circle cx="528.7891218436635" cy="604.5683031577616" r="0.5" style="fill:none;stroke:white;stroke-width:3"/>
<circle cx="537.8727922923941" cy="602.8748448349535" r="0.5" style="fill:none;stroke:white;stroke-width:3"/>
<circle cx="546.595787590956" cy="603.6251112163067" r="0.5" style="fill:none;stroke:white;stroke-width:3"/>
<circle cx="548.3858050029112" cy="596.1224448166787" r="0.5" style="fill:none;stroke:white;stroke-width:3"/>
<circle cx="551.7387480656043" cy="589.3914763558656" r="0.5" style="fill:none;stroke:white;stroke-width:3"/>
<circle cx="556.1870749177039" cy="579.3807599242776" r="0.5" style="fill:none;stroke:white;stroke-width:3"/>
<circle cx="558.7919510022664" cy="571.4922224141657" r="0.5" style="fill:none;stroke:white;stroke-width:3"/>
<circle cx="561.9445189815311" cy="560.9670170791447" r="0.5" style="fill:none;stroke:white;stroke-width:3"/>
<circle cx="566.9271793894386" cy="550.5918545141816" r="0.5" style="fill:none;stroke:white;stroke-width:3"/>
<circle cx="571.2686395303763" cy="540.3881715115159" r="0.5" style="fill:none;stroke:white;stroke-width:3"/>
<circle cx="576.3314499716541" cy="530.4202776331455" r="0.5" style="fill:none;stroke:white;stroke-width:3"/>
<circle cx="579.4172262564441" cy="519.5091735530644" r="0.5" style="fill:none;stroke:white;stroke-width:3"/>
<circle cx="582.1556857299583" cy="510.8488779578358" r="0.5" style="fill:none;stroke:white;stroke-width:3"/>
<circle cx="585.1479536424822" cy="499.6162059243768" r="0.5" style="fill:none;stroke:white;stroke-width:3"/>
<circle cx="589.9302389669612" cy="490.7415284503251" r="0.5" style="fill:none;stroke:white;stroke-width:3"/>
<circle cx="593.9243822966237" cy="482.08120739646256" r="0.5" style="fill:none;stroke:white;stroke-width:3"/>
<circle cx="597.8383755929151" cy="471.59877884611484" r="0.5" style="fill:none;stroke:white;stroke-width:3"/>
<circle cx="604.8515035128912" cy="458.37246749438344" r="0.5" style="fill:none;stroke:white;stroke-width:3"/>
<circle cx="606.9086877027506" cy="449.11189525835215" r="0.5" style="fill:none;stroke:white;stroke-width:3"/>
<circle cx="609.7940889041121" cy="436.67870579212905" r="0.5" style="fill:none;stroke:white;stroke-width:3"/>
<circle cx="611.463881266012" cy="426.30341146364805" r="0.5" style="fill:none;stroke:white;stroke-width:3"/>
<circle cx="614.9637660565523" cy="417.2571747791022" r="0.5" style="fill:none;stroke:white;stroke-width:3"/>
<circle cx="620.413968325791" cy="407.16053581237793" r="0.5" style="fill:none;stroke:white;stroke-width:3"/>
<circle cx="623.1524277993052" cy="397.2568161316216" r="0.5" style="fill:none;stroke:white;stroke-width:3"/>
<circle cx="626.0111123228763" cy="388.48922908902165" r="0.5" style="fill:none;stroke:white;stroke-width:3"/>
<circle cx="628.4556883406971" cy="379.22859072647987" r="0.5" style="fill:none;stroke:white;stroke-width:3"/>
<circle cx="631.0338477474694" cy="368.31731807515024" r="0.5" style="fill:none;stroke:white;stroke-width:3"/>
<circle cx="635.6291163274161" cy="357.92051454372705" r="0.5" style="fill:none;stroke:white;stroke-width:3"/>
<circle cx="639.0622094234802" cy="348.4026063680649" r="0.5" style="fill:none;stroke:white;stroke-width:3"/>
<circle cx="642.3483607916976" cy="337.79141404777766" r="0.5" style="fill:none;stroke:white;stroke-width:3"/>
<circle cx="646.1554873768273" cy="328.6164748404175" r="0.5" style="fill:none;stroke:white;stroke-width:3"/>
<circle cx="650.6839642622978" cy="318.9699173346162" r="0.5" style="fill:none;stroke:white;stroke-width:3"/>
<circle cx="654.0235489860962" cy="310.88823850415645" r="0.5" style="fill:none;stroke:white;stroke-width:3"/>
<circle cx="657.2295503209422" cy="299.2266000006348" r="0.5" style="fill:none;stroke:white;stroke-width:3"/>
<circle cx="662.0251939843168" cy="288.65822809562087" r="0.5" style="fill:none;stroke:white;stroke-width:3"/>
<circle cx="667.9830131315721" cy="279.09737877622246" r="0.5" style="fill:none;stroke:white;stroke-width:3"/>
<circle cx="672.551565033729" cy="269.4936462789774" r="0.5" style="fill:none;stroke:white;stroke-width:3"/>
<circle cx="676.5457083633916" cy="258.88236839734014" r="0.5" style="fill:none;stroke:white;stroke-width:3"/>
<circle cx="678.976926042316" cy="248.7855660293251" r="0.5" style="fill:none;stroke:white;stroke-width:3"/>
<circle cx="684.547353361611" cy="239.11749285198746" r="0.5" style="fill:none;stroke:white;stroke-width:3"/>
<circle cx="687.2858128351257" cy="227.94881993047892" r="0.5" style="fill:none;stroke:white;stroke-width:3"/>
<circle cx="691.0395060646758" cy="216.54432693980633" r="0.5" style="fill:none;stroke:white;stroke-width:3"/>
<circle cx="697.0908335841978" cy="207.3478370077908" r="0.5" style="fill:none;stroke:white;stroke-width:3"/>
<circle cx="700.7777351192709" cy="196.75792881175875" r="0.5" style="fill:none;stroke:white;stroke-width:3"/>
<circle cx="701.646027147458" cy="197.16523318178952" r="0.5" style="fill:none;stroke:white;stroke-width:3"/>
<circle cx="701.0716185749644" cy="197.52966340072453" r="0.5" style="fill:none;stroke:white;stroke-width:3"/>
<circle cx="701.4857270807161" cy="197.72259703874587" r="0.5" style="fill:none;stroke:white;stroke-width:3"/>
<circle cx="700.3502682746248" cy="197.03661075308918" r="0.5" style="fill:none;stroke:white;stroke-width:3"/>
<circle cx="703.422686220519" cy="193.97110896036028" r="0.5" style="fill:none;stroke:white;stroke-width:3"/>
<circle cx="709.5140887567269" cy="180.6586739502847" r="0.5" style="fill:none;stroke:white;stroke-width:3"/>
<circle cx="711.1304477630456" cy="167.02466376498342" r="0.5" style="fill:none;stroke:white;stroke-width:3"/>
<circle cx="713.4147237141233" cy="155.8987828876823" r="0.5" style="fill:none;stroke:white;stroke-width:3"/>
<circle cx="717.5290920938427" cy="144.4727687448263" r="0.5" style="fill:none;stroke:white;stroke-width:3"/>
<circle cx="721.269426984497" cy="132.38218765631316" r="0.5" style="fill:none;stroke:white;stroke-width:3"/>
<circle cx="726.0116372922901" cy="122.92837182730436" r="0.5" style="fill:none;stroke:white;stroke-width:3"/>
<circle cx="729.6584638106773" cy="112.03825065940619" r="0.5" style="fill:none;stroke:white;stroke-width:3"/>
<circle cx="733.5323820902838" cy="101.01949368529021" r="0.5" style="fill:none;stroke:white;stroke-width:3"/>
<circle cx="737.9272755868016" cy="90.9439657408744" r="0.5" style="fill:none;stroke:white;stroke-width:3"/>
<circle cx="742.1084356609969" cy="79.0033798366785" r="0.5" style="fill:none;stroke:white;stroke-width:3"/>
<circle cx="744.9537618456734" cy="66.97702993489801" r="0.5" style="fill:none;stroke:white;stroke-width:3"/>
<circle cx="747.0643793911134" cy="56.21547078564763" r="0.5" style="fill:none;stroke:white;stroke-width:3"/>
<circle cx="747.3449045079134" cy="45.1966509539634" r="0.5" style="fill:none;stroke:white;stroke-width:3"/>
<circle cx="746.3296707518786" cy="46.6972691707313" r="0.5" style="fill:none;stroke:white;stroke-width:3"/>
<circle cx="744.5797283566084" cy="46.76158137358725" r="0.5" style="fill:none;stroke:white;stroke-width:3"/>
<circle cx="742.4423941333769" cy="46.28995853215456" r="0.5" style="fill:none;stroke:white;stroke-width:3"/>
<circle cx="741.5340270885044" cy="46.868768377974625" r="0.5" style="fill:none;stroke:white;stroke-width:3"/>
<circle cx="743.5912112783639" cy="48.41226113475859" r="0.5" style="fill:none;stroke:white;stroke-width:3"/>
<circle cx="744.3392782564949" cy="48.86244647540152" r="0.5" style="fill:none;stroke:white;stroke-width:3"/>
<circle cx="742.8297859613376" cy="49.31263179704547" r="0.5" style="fill:none;stroke:white;stroke-width:3"/>
<circle cx="742.1485106776834" cy="49.848566674813625" r="0.5" style="fill:none;stroke:white;stroke-width:3"/>
<circle cx="741.9214189164646" cy="50.127252800390124" r="0.5" style="fill:none;stroke:white;stroke-width:3"/>
<circle cx="741.8813438997786" cy="51.34918417967856" r="0.5" style="fill:none;stroke:white;stroke-width:3"/>
<circle cx="743.030161044766" cy="49.248319612070915" r="0.5" style="fill:none;stroke:white;stroke-width:3"/>
<circle cx="743.1637444337176" cy="51.19912244305014" r="0.5" style="fill:none;stroke:white;stroke-width:3"/>
<circle cx="742.4691108111678" cy="51.713619822263716" r="0.5" style="fill:none;stroke:white;stroke-width:3"/>
<circle cx="742.6294108779102" cy="48.69094729833305" r="0.5" style="fill:none;stroke:white;stroke-width:3"/>
<circle cx="742.7629942668618" cy="51.75649460703134" r="0.5" style="fill:none;stroke:white;stroke-width:3"/>
<circle cx="737.2593586420431" cy="40.18029695749283" r="0.5" style="fill:none;stroke:white;stroke-width:3"/>
<circle cx="741.8813438997786" cy="49.78425449207425" r="0.5" style="fill:none;stroke:white;stroke-width:3"/>
<circle cx="741.5473854273996" cy="49.076820441707966" r="0.5" style="fill:none;stroke:white;stroke-width:3"/>
<circle cx="742.8030692835479" cy="49.248319612070915" r="0.5" style="fill:none;stroke:white;stroke-width:3"/>
<circle cx="740.9863351938018" cy="52.142367623001334" r="0.5" style="fill:none;stroke:white;stroke-width:3"/>
<circle cx="738.0074256201736" cy="45.96839749440551" r="0.5" style="fill:none;stroke:white;stroke-width:3"/>
<circle cx="725.3971537031111" cy="43.97471880577505" r="0.5" style="fill:none;stroke:white;stroke-width:3"/>
<circle cx="718.4908924942963" cy="49.612755331769584" r="0.5" style="fill:none;stroke:white;stroke-width:3"/>
<circle cx="721.6968938291421" cy="50.36306413002312" r="0.5" style="fill:none;stroke:white;stroke-width:3"/>
<circle cx="715.8993747486289" cy="51.9279937248677" r="0.5" style="fill:none;stroke:white;stroke-width:3"/>
<circle cx="709.6610304845742" cy="44.917964688688514" r="0.5" style="fill:none;stroke:white;stroke-width:3"/>
<circle cx="715.1780244482886" cy="39.494299633428454" r="0.5" style="fill:none;stroke:white;stroke-width:3"/>
<circle cx="720.4412099729944" cy="38.229491928219794" r="0.5" style="fill:none;stroke:white;stroke-width:3"/>
<circle cx="725.4238703809015" cy="38.7439899969846" r="0.5" style="fill:none;stroke:white;stroke-width:3"/>
</g>
</svg>
