<?xml version="1.0" encoding="UTF-8" standalone="no"?>
<!DOCTYPE svg PUBLIC "-//W3C//DTD SVG 1.1//EN" "http://www.w3.org/Graphics/SVG/1.1/DTD/svg11.dtd">
<!-- Created with gpx2svg 0.2.0 -->
<svg xmlns="http://www.w3.org/2000/svg" version="1.1" width="658.6047359046025px" height="616.3962453670799px" viewBox="0 0 658.6047359046025 616.3962453670799" viewport-fill="black" >
<rect width="100%" height="100%" fill="#3B3434" />
<g>
<circle cx="547.9049048026843" cy="551.541474758461" r="0.5" style="fill:none;stroke:white;stroke-width:3"/>
<circle cx="551.2444895264823" cy="560.716700791195" r="0.5" style="fill:none;stroke:white;stroke-width:3"/>
<circle cx="554.1298907278439" cy="553.1921585842966" r="0.5" style="fill:none;stroke:white;stroke-width:3"/>
<circle cx="560.8224185143355" cy="541.4658661667257" r="0.5" style="fill:none;stroke:white;stroke-width:3"/>
<circle cx="564.9768619107399" cy="532.4621220555156" r="0.5" style="fill:none;stroke:white;stroke-width:3"/>
<circle cx="565.4711204498624" cy="532.4406845591963" r="0.5" style="fill:none;stroke:white;stroke-width:3"/>
<circle cx="566.4462791892112" cy="535.9135582800955" r="0.5" style="fill:none;stroke:white;stroke-width:3"/>
<circle cx="566.6332959337445" cy="546.3321720354259" r="0.5" style="fill:none;stroke:white;stroke-width:3"/>
<circle cx="565.8184372611377" cy="543.8239882607013" r="0.5" style="fill:none;stroke:white;stroke-width:3"/>
<circle cx="567.9958465010535" cy="541.5730535499752" r="0.5" style="fill:none;stroke:white;stroke-width:3"/>
<circle cx="567.4882296230375" cy="533.7912467055022" r="0.5" style="fill:none;stroke:white;stroke-width:3"/>
<circle cx="571.909839797345" cy="519.8783039007336" r="0.5" style="fill:none;stroke:white;stroke-width:3"/>
<circle cx="575.5700246546285" cy="507.7446581237018" r="0.5" style="fill:none;stroke:white;stroke-width:3"/>
<circle cx="578.4821425337808" cy="497.4760662920773" r="0.5" style="fill:none;stroke:white;stroke-width:3"/>
<circle cx="582.5965109134996" cy="487.5719027906656" r="0.5" style="fill:none;stroke:white;stroke-width:3"/>
<circle cx="585.8425872650315" cy="474.90227642990646" r="0.5" style="fill:none;stroke:white;stroke-width:3"/>
<circle cx="589.3291137166774" cy="465.8984710693359" r="0.5" style="fill:none;stroke:white;stroke-width:3"/>
<circle cx="588.8348551775549" cy="454.92239237800237" r="0.5" style="fill:none;stroke:white;stroke-width:3"/>
<circle cx="588.1001465383189" cy="445.0396235000342" r="0.5" style="fill:none;stroke:white;stroke-width:3"/>
<circle cx="586.5372208875821" cy="437.7936824865639" r="0.5" style="fill:none;stroke:white;stroke-width:3"/>
<circle cx="587.605887999197" cy="427.4178286224604" r="0.5" style="fill:none;stroke:white;stroke-width:3"/>
<circle cx="591.0523394341573" cy="416.69895976893605" r="0.5" style="fill:none;stroke:white;stroke-width:3"/>
<circle cx="592.601906745999" cy="408.6169248908758" r="0.5" style="fill:none;stroke:white;stroke-width:3"/>
<circle cx="594.3518491412693" cy="396.2258876312524" r="0.5" style="fill:none;stroke:white;stroke-width:3"/>
<circle cx="595.487307947361" cy="383.94202379286287" r="0.5" style="fill:none;stroke:white;stroke-width:3"/>
<circle cx="597.3040420371071" cy="373.69473988786336" r="0.5" style="fill:none;stroke:white;stroke-width:3"/>
<circle cx="598.1856924041898" cy="361.1321554452181" r="0.5" style="fill:none;stroke:white;stroke-width:3"/>
<circle cx="598.4528591820941" cy="347.6048493862152" r="0.5" style="fill:none;stroke:white;stroke-width:3"/>
<circle cx="598.2925591153511" cy="337.9363513447344" r="0.5" style="fill:none;stroke:white;stroke-width:3"/>
<circle cx="596.970083564727" cy="328.2035299178213" r="0.5" style="fill:none;stroke:white;stroke-width:3"/>
<circle cx="596.9032918702518" cy="318.6207645703107" r="0.5" style="fill:none;stroke:white;stroke-width:3"/>
<circle cx="599.6283930048709" cy="309.9598231527954" r="0.5" style="fill:none;stroke:white;stroke-width:3"/>
<circle cx="597.8517339318103" cy="300.50566796064373" r="0.5" style="fill:none;stroke:white;stroke-width:3"/>
<circle cx="598.0521090152376" cy="292.29490898922086" r="0.5" style="fill:none;stroke:white;stroke-width:3"/>
<circle cx="598.9604760601112" cy="290.3869248446077" r="0.5" style="fill:none;stroke:white;stroke-width:3"/>
<circle cx="599.2009261602246" cy="290.55842905417086" r="0.5" style="fill:none;stroke:white;stroke-width:3"/>
<circle cx="596.1017915365401" cy="282.369099779427" r="0.5" style="fill:none;stroke:white;stroke-width:3"/>
<circle cx="595.6743246918938" cy="269.2704462971538" r="0.5" style="fill:none;stroke:white;stroke-width:3"/>
<circle cx="592.8289985072173" cy="257.67244224362076" r="0.5" style="fill:none;stroke:white;stroke-width:3"/>
<circle cx="590.6115142506154" cy="248.43261772133408" r="0.5" style="fill:none;stroke:white;stroke-width:3"/>
<circle cx="587.1249877989701" cy="236.2771972261369" r="0.5" style="fill:none;stroke:white;stroke-width:3"/>
<circle cx="584.8674285256827" cy="223.07129118070006" r="0.5" style="fill:none;stroke:white;stroke-width:3"/>
<circle cx="586.1097540429358" cy="214.62464712783694" r="0.5" style="fill:none;stroke:white;stroke-width:3"/>
<circle cx="587.4856629491405" cy="204.1842419888824" r="0.5" style="fill:none;stroke:white;stroke-width:3"/>
<circle cx="580.6328350959063" cy="201.65453228540719" r="0.5" style="fill:none;stroke:white;stroke-width:3"/>
<circle cx="569.7858639130103" cy="203.00514008961616" r="0.5" style="fill:none;stroke:white;stroke-width:3"/>
<circle cx="561.5170521368855" cy="204.44150056689978" r="0.5" style="fill:none;stroke:white;stroke-width:3"/>
<circle cx="552.3265149769929" cy="206.90689491704106" r="0.5" style="fill:none;stroke:white;stroke-width:3"/>
<circle cx="539.1952678430181" cy="210.70145717784763" r="0.5" style="fill:none;stroke:white;stroke-width:3"/>
<circle cx="529.4971138051085" cy="212.45938947871326" r="0.5" style="fill:none;stroke:white;stroke-width:3"/>
<circle cx="524.2606449581924" cy="205.64204049669206" r="0.5" style="fill:none;stroke:white;stroke-width:3"/>
<circle cx="523.7530280801753" cy="190.27083055861294" r="0.5" style="fill:none;stroke:white;stroke-width:3"/>
<circle cx="515.7246664041644" cy="186.21900132112205" r="0.5" style="fill:none;stroke:white;stroke-width:3"/>
<circle cx="505.78606226614136" cy="190.3565835379064" r="0.5" style="fill:none;stroke:white;stroke-width:3"/>
<circle cx="489.7961306085954" cy="190.65671896599233" r="0.5" style="fill:none;stroke:white;stroke-width:3"/>
<circle cx="483.9318198336057" cy="192.3289019074291" r="0.5" style="fill:none;stroke:white;stroke-width:3"/>
<circle cx="473.6458988843069" cy="194.36553458981214" r="0.5" style="fill:none;stroke:white;stroke-width:3"/>
<circle cx="461.83712730095664" cy="189.67055966667832" r="0.5" style="fill:none;stroke:white;stroke-width:3"/>
<circle cx="448.6257301336109" cy="191.04260735996067" r="0.5" style="fill:none;stroke:white;stroke-width:3"/>
<circle cx="442.948436103154" cy="188.25563527420164" r="0.5" style="fill:none;stroke:white;stroke-width:3"/>
<circle cx="433.637673893204" cy="189.799189145118" r="0.5" style="fill:none;stroke:white;stroke-width:3"/>
<circle cx="423.9795948719798" cy="189.1560417316854" r="0.5" style="fill:none;stroke:white;stroke-width:3"/>
<circle cx="416.1248916016071" cy="189.1131652314216" r="0.5" style="fill:none;stroke:white;stroke-width:3"/>
<circle cx="405.5851622132997" cy="188.68440026566387" r="0.5" style="fill:none;stroke:white;stroke-width:3"/>
<circle cx="396.82209189805343" cy="188.14844402633608" r="0.5" style="fill:none;stroke:white;stroke-width:3"/>
<circle cx="385.13354536476015" cy="186.39050735235213" r="0.5" style="fill:none;stroke:white;stroke-width:3"/>
<circle cx="370.8401227469038" cy="183.96798435375095" r="0.5" style="fill:none;stroke:white;stroke-width:3"/>
<circle cx="363.8670698436126" cy="178.4369118914008" r="0.5" style="fill:none;stroke:white;stroke-width:3"/>
<circle cx="358.60388431890675" cy="166.6887321062386" r="0.5" style="fill:none;stroke:white;stroke-width:3"/>
<circle cx="354.34257421134004" cy="163.60161683075128" r="0.5" style="fill:none;stroke:white;stroke-width:3"/>
<circle cx="349.0526720088439" cy="162.63689310103655" r="0.5" style="fill:none;stroke:white;stroke-width:3"/>
<circle cx="340.6102018270814" cy="162.89415277428924" r="0.5" style="fill:none;stroke:white;stroke-width:3"/>
<circle cx="335.8011998248121" cy="154.04012861251832" r="0.5" style="fill:none;stroke:white;stroke-width:3"/>
<circle cx="336.24202500835344" cy="145.87212343364953" r="0.5" style="fill:none;stroke:white;stroke-width:3"/>
<circle cx="331.5398897172459" cy="134.76705558300017" r="0.5" style="fill:none;stroke:white;stroke-width:3"/>
<circle cx="326.2633458536449" cy="125.20553919151425" r="0.5" style="fill:none;stroke:white;stroke-width:3"/>
<circle cx="319.9715682340091" cy="118.90265107937157" r="0.5" style="fill:none;stroke:white;stroke-width:3"/>
<circle cx="309.79251399587207" cy="112.68551257252693" r="0.5" style="fill:none;stroke:white;stroke-width:3"/>
<circle cx="299.88062653563935" cy="108.31207484230399" r="0.5" style="fill:none;stroke:white;stroke-width:3"/>
<circle cx="291.4782313705629" cy="110.62742447331547" r="0.5" style="fill:none;stroke:white;stroke-width:3"/>
<circle cx="286.24176252364686" cy="112.57832049764693" r="0.5" style="fill:none;stroke:white;stroke-width:3"/>
<circle cx="276.34323340230986" cy="113.73599487394094" r="0.5" style="fill:none;stroke:white;stroke-width:3"/>
<circle cx="264.6680452079101" cy="113.58592598251998" r="0.5" style="fill:none;stroke:white;stroke-width:3"/>
<circle cx="255.11683289784833" cy="112.25674425177276" r="0.5" style="fill:none;stroke:white;stroke-width:3"/>
<circle cx="246.70107939387617" cy="109.96283343024551" r="0.5" style="fill:none;stroke:white;stroke-width:3"/>
<circle cx="243.84239487030445" cy="108.61221278719604" r="0.5" style="fill:none;stroke:white;stroke-width:3"/>
<circle cx="236.56210017242518" cy="105.07487212456762" r="0.5" style="fill:none;stroke:white;stroke-width:3"/>
<circle cx="229.33523883012603" cy="103.1668514817953" r="0.5" style="fill:none;stroke:white;stroke-width:3"/>
<circle cx="211.4484230494625" cy="95.51332672052085" r="0.5" style="fill:none;stroke:white;stroke-width:3"/>
<circle cx="201.6567606392862" cy="95.92065732255578" r="0.5" style="fill:none;stroke:white;stroke-width:3"/>
<circle cx="192.72003191840176" cy="95.53476517237722" r="0.5" style="fill:none;stroke:white;stroke-width:3"/>
<circle cx="190.95673118423693" cy="96.19935719668865" r="0.5" style="fill:none;stroke:white;stroke-width:3"/>
<circle cx="181.7661940243439" cy="96.02784957960247" r="0.5" style="fill:none;stroke:white;stroke-width:3"/>
<circle cx="168.15404669014222" cy="95.94209577441215" r="0.5" style="fill:none;stroke:white;stroke-width:3"/>
<circle cx="158.29559258549014" cy="94.44140401035547" r="0.5" style="fill:none;stroke:white;stroke-width:3"/>
<circle cx="149.3054305090256" cy="97.42134885974228" r="0.5" style="fill:none;stroke:white;stroke-width:3"/>
<circle cx="136.2810500862126" cy="95.32038064599037" r="0.5" style="fill:none;stroke:white;stroke-width:3"/>
<circle cx="132.42049014550176" cy="93.54098883680999" r="0.5" style="fill:none;stroke:white;stroke-width:3"/>
<circle cx="120.98575205121597" cy="94.41996555402875" r="0.5" style="fill:none;stroke:white;stroke-width:3"/>
<circle cx="114.03941582571623" cy="92.38331207223236" r="0.5" style="fill:none;stroke:white;stroke-width:3"/>
<circle cx="106.41180431656066" cy="89.48911954946816" r="0.5" style="fill:none;stroke:white;stroke-width:3"/>
<circle cx="97.26134217335365" cy="87.43102657087147" r="0.5" style="fill:none;stroke:white;stroke-width:3"/>
<circle cx="89.20626381955243" cy="83.78648585937917" r="0.5" style="fill:none;stroke:white;stroke-width:3"/>
<circle cx="81.31148553249368" cy="78.59837262444198" r="0.5" style="fill:none;stroke:white;stroke-width:3"/>
<circle cx="75.50060811308467" cy="77.6550790116191" r="0.5" style="fill:none;stroke:white;stroke-width:3"/>
<circle cx="65.40170390831918" cy="75.16821359954774" r="0.5" style="fill:none;stroke:white;stroke-width:3"/>
<circle cx="57.29319219893677" cy="71.35216027200222" r="0.5" style="fill:none;stroke:white;stroke-width:3"/>
<circle cx="54.487941030946786" cy="66.05684785321354" r="0.5" style="fill:none;stroke:white;stroke-width:3"/>
<circle cx="51.61589816848045" cy="66.48561819791793" r="0.5" style="fill:none;stroke:white;stroke-width:3"/>
<circle cx="51.72276487964172" cy="71.93099992051721" r="0.5" style="fill:none;stroke:white;stroke-width:3"/>
<circle cx="56.024150003893915" cy="80.39920562915503" r="0.5" style="fill:none;stroke:white;stroke-width:3"/>
<circle cx="58.05461751596358" cy="76.69034681394696" r="0.5" style="fill:none;stroke:white;stroke-width:3"/>
<circle cx="58.10805087154367" cy="75.93999948240817" r="0.5" style="fill:none;stroke:white;stroke-width:3"/>
<circle cx="58.44200934392374" cy="75.68273752704262" r="0.5" style="fill:none;stroke:white;stroke-width:3"/>
<circle cx="59.53739313333008" cy="74.91095162294805" r="0.5" style="fill:none;stroke:white;stroke-width:3"/>
<circle cx="62.983844568289896" cy="66.35698710009456" r="0.5" style="fill:none;stroke:white;stroke-width:3"/>
<circle cx="62.95712789049903" cy="66.29267154447734" r="0.5" style="fill:none;stroke:white;stroke-width:3"/>
<circle cx="62.95712789049903" cy="66.33554858341813" r="0.5" style="fill:none;stroke:white;stroke-width:3"/>
<circle cx="54.207415914147894" cy="85.60875639058649" r="0.5" style="fill:none;stroke:white;stroke-width:3"/>
<circle cx="55.20929133128702" cy="83.65785498954355" r="0.5" style="fill:none;stroke:white;stroke-width:3"/>
<circle cx="50.58730607354992" cy="85.8445796046406" r="0.5" style="fill:none;stroke:white;stroke-width:3"/>
<circle cx="57.400058910098046" cy="72.0167539369315" r="0.5" style="fill:none;stroke:white;stroke-width:3"/>
<circle cx="48.98430540612808" cy="86.5949261829257" r="0.5" style="fill:none;stroke:white;stroke-width:3"/>
<circle cx="51.175072984939106" cy="86.01608739942311" r="0.5" style="fill:none;stroke:white;stroke-width:3"/>
<circle cx="49.1579638117646" cy="84.96560212299228" r="0.5" style="fill:none;stroke:white;stroke-width:3"/>
<circle cx="49.29154720071674" cy="87.06657256297767" r="0.5" style="fill:none;stroke:white;stroke-width:3"/>
<circle cx="47.24772134975192" cy="79.69173555895686" r="0.5" style="fill:none;stroke:white;stroke-width:3"/>
<circle cx="46.873687860686914" cy="76.58315434455871" r="0.5" style="fill:none;stroke:white;stroke-width:3"/>
<circle cx="47.06070460521969" cy="82.47873856835066" r="0.5" style="fill:none;stroke:white;stroke-width:3"/>
<circle cx="50.69417278471173" cy="89.59631188362836" r="0.5" style="fill:none;stroke:white;stroke-width:3"/>
<circle cx="50.19991424558975" cy="87.19520339481532" r="0.5" style="fill:none;stroke:white;stroke-width:3"/>
<circle cx="51.3086563738907" cy="87.6454112816602" r="0.5" style="fill:none;stroke:white;stroke-width:3"/>
<circle cx="51.175072984939106" cy="83.8293628167361" r="0.5" style="fill:none;stroke:white;stroke-width:3"/>
<circle cx="50.56058939576014" cy="86.05896434672177" r="0.5" style="fill:none;stroke:white;stroke-width:3"/>
<circle cx="55.07570794233488" cy="90.32521970160305" r="0.5" style="fill:none;stroke:white;stroke-width:3"/>
<circle cx="50.333497634541345" cy="89.7249426819384" r="0.5" style="fill:none;stroke:white;stroke-width:3"/>
<circle cx="48.66370527264207" cy="88.46007311940193" r="0.5" style="fill:none;stroke:white;stroke-width:3"/>
<circle cx="50.22663092338007" cy="87.28095727711916" r="0.5" style="fill:none;stroke:white;stroke-width:3"/>
<circle cx="47.71526321108358" cy="88.2885653693229" r="0.5" style="fill:none;stroke:white;stroke-width:3"/>
<circle cx="47.42137975539008" cy="87.45246504619718" r="0.5" style="fill:none;stroke:white;stroke-width:3"/>
<circle cx="46.272562610403654" cy="86.5949261829257" r="0.5" style="fill:none;stroke:white;stroke-width:3"/>
<circle cx="47.180929655276124" cy="85.9088950317353" r="0.5" style="fill:none;stroke:white;stroke-width:3"/>
<circle cx="47.755338227769606" cy="87.08801103830338" r="0.5" style="fill:none;stroke:white;stroke-width:3"/>
<circle cx="49.27818886182158" cy="86.57348770424723" r="0.5" style="fill:none;stroke:white;stroke-width:3"/>
<circle cx="46.993912910743894" cy="87.36671115942299" r="0.5" style="fill:none;stroke:white;stroke-width:3"/>
<circle cx="47.354588060913734" cy="86.98081867732107" r="0.5" style="fill:none;stroke:white;stroke-width:3"/>
<circle cx="46.900404538476685" cy="85.97321045324206" r="0.5" style="fill:none;stroke:white;stroke-width:3"/>
<circle cx="47.82212992224595" cy="87.02369562126695" r="0.5" style="fill:none;stroke:white;stroke-width:3"/>
<circle cx="49.251472184031265" cy="87.7740421000868" r="0.5" style="fill:none;stroke:white;stroke-width:3"/>
<circle cx="46.05882918808002" cy="84.36532476805151" r="0.5" style="fill:none;stroke:white;stroke-width:3"/>
<circle cx="41.30326054139132" cy="82.41442312449216" r="0.5" style="fill:none;stroke:white;stroke-width:3"/>
<circle cx="36.0" cy="76.66890832073986" r="0.5" style="fill:none;stroke:white;stroke-width:3"/>
<circle cx="47.52824646655135" cy="45.711673489585515" r="0.5" style="fill:none;stroke:white;stroke-width:3"/>
<circle cx="48.99766374502269" cy="40.20196146033704" r="0.5" style="fill:none;stroke:white;stroke-width:3"/>
<circle cx="49.87931411210484" cy="36.0" r="0.5" style="fill:none;stroke:white;stroke-width:3"/>
<circle cx="56.10430003726542" cy="41.85273153595626" r="0.5" style="fill:none;stroke:white;stroke-width:3"/>
<circle cx="61.68808569545563" cy="54.75874255187809" r="0.5" style="fill:none;stroke:white;stroke-width:3"/>
<circle cx="65.3616288916337" cy="68.20069938227535" r="0.5" style="fill:none;stroke:white;stroke-width:3"/>
<circle cx="73.28312385648277" cy="77.78370996080339" r="0.5" style="fill:none;stroke:white;stroke-width:3"/>
<circle cx="84.0232283282181" cy="81.32106048837304" r="0.5" style="fill:none;stroke:white;stroke-width:3"/>
<circle cx="93.06682376026329" cy="83.44347019605338" r="0.5" style="fill:none;stroke:white;stroke-width:3"/>
<circle cx="101.69631068655853" cy="85.30861773490905" r="0.5" style="fill:none;stroke:white;stroke-width:3"/>
<circle cx="110.51281435738493" cy="87.38814962916076" r="0.5" style="fill:none;stroke:white;stroke-width:3"/>
<circle cx="119.82357656733492" cy="87.51678045652807" r="0.5" style="fill:none;stroke:white;stroke-width:3"/>
<circle cx="130.8041311391831" cy="89.98220426850021" r="0.5" style="fill:none;stroke:white;stroke-width:3"/>
<circle cx="141.37057720528082" cy="91.11844285279513" r="0.5" style="fill:none;stroke:white;stroke-width:3"/>
<circle cx="150.86835615976307" cy="94.48428091853857" r="0.5" style="fill:none;stroke:white;stroke-width:3"/>
<circle cx="157.70782567410205" cy="95.96353422515094" r="0.5" style="fill:none;stroke:white;stroke-width:3"/>
<circle cx="166.88500449509883" cy="96.9282645240426" r="0.5" style="fill:none;stroke:white;stroke-width:3"/>
<circle cx="175.78165819929725" cy="97.42134885974228" r="0.5" style="fill:none;stroke:white;stroke-width:3"/>
<circle cx="183.97031994205062" cy="98.12881764918565" r="0.5" style="fill:none;stroke:white;stroke-width:3"/>
<circle cx="196.50044182574166" cy="99.17930151298641" r="0.5" style="fill:none;stroke:white;stroke-width:3"/>
<circle cx="209.03056370943213" cy="99.58663195744157" r="0.5" style="fill:none;stroke:white;stroke-width:3"/>
<circle cx="216.53795016853127" cy="99.92964706197381" r="0.5" style="fill:none;stroke:white;stroke-width:3"/>
<circle cx="227.06432121794296" cy="101.06588449291884" r="0.5" style="fill:none;stroke:white;stroke-width:3"/>
<circle cx="235.82739153318926" cy="102.41650618202983" r="0.5" style="fill:none;stroke:white;stroke-width:3"/>
<circle cx="245.19158709871988" cy="104.30308853723109" r="0.5" style="fill:none;stroke:white;stroke-width:3"/>
<circle cx="255.73131648702673" cy="105.0105568293482" r="0.5" style="fill:none;stroke:white;stroke-width:3"/>
<circle cx="266.19089584196314" cy="105.9109709456563" r="0.5" style="fill:none;stroke:white;stroke-width:3"/>
<circle cx="273.9120157233843" cy="107.71179892122746" r="0.5" style="fill:none;stroke:white;stroke-width:3"/>
<circle cx="281.5529855714345" cy="108.84803545251488" r="0.5" style="fill:none;stroke:white;stroke-width:3"/>
<circle cx="289.74164731418733" cy="109.81276448182761" r="0.5" style="fill:none;stroke:white;stroke-width:3"/>
<circle cx="300.78899358051183" cy="112.02092167474329" r="0.5" style="fill:none;stroke:white;stroke-width:3"/>
<circle cx="311.78290649125574" cy="115.12949163280427" r="0.5" style="fill:none;stroke:white;stroke-width:3"/>
<circle cx="320.2654516897031" cy="120.0174479149282" r="0.5" style="fill:none;stroke:white;stroke-width:3"/>
<circle cx="330.80518107801" cy="126.8348565481603" r="0.5" style="fill:none;stroke:white;stroke-width:3"/>
<circle cx="337.3106921199689" cy="134.25253476016223" r="0.5" style="fill:none;stroke:white;stroke-width:3"/>
<circle cx="341.25140209405123" cy="143.98554908595978" r="0.5" style="fill:none;stroke:white;stroke-width:3"/>
<circle cx="341.62543558311626" cy="154.5332100726664" r="0.5" style="fill:none;stroke:white;stroke-width:3"/>
<circle cx="339.1808595652961" cy="164.18045101873577" r="0.5" style="fill:none;stroke:white;stroke-width:3"/>
<circle cx="339.9422848823224" cy="164.56634045653044" r="0.5" style="fill:none;stroke:white;stroke-width:3"/>
<circle cx="339.4480263432004" cy="163.3872337885201" r="0.5" style="fill:none;stroke:white;stroke-width:3"/>
<circle cx="349.8942473592411" cy="161.5221011247486" r="0.5" style="fill:none;stroke:white;stroke-width:3"/>
<circle cx="359.37866797482764" cy="158.69224400036038" r="0.5" style="fill:none;stroke:white;stroke-width:3"/>
<circle cx="371.3343812860252" cy="159.50689992271364" r="0.5" style="fill:none;stroke:white;stroke-width:3"/>
<circle cx="382.8359110747862" cy="162.50826326720417" r="0.5" style="fill:none;stroke:white;stroke-width:3"/>
<circle cx="391.7859981345653" cy="169.19701255224643" r="0.5" style="fill:none;stroke:white;stroke-width:3"/>
<circle cx="400.161676621852" cy="174.08494182676077" r="0.5" style="fill:none;stroke:white;stroke-width:3"/>
<circle cx="407.4553296586269" cy="176.50746727734804" r="0.5" style="fill:none;stroke:white;stroke-width:3"/>
<circle cx="415.5638413680088" cy="177.87951682023703" r="0.5" style="fill:none;stroke:white;stroke-width:3"/>
<circle cx="425.66274557277427" cy="179.48738713301717" r="0.5" style="fill:none;stroke:white;stroke-width:3"/>
<circle cx="435.57463303300807" cy="180.9880658559501" r="0.5" style="fill:none;stroke:white;stroke-width:3"/>
<circle cx="446.39488753811384" cy="183.4320278584957" r="0.5" style="fill:none;stroke:white;stroke-width:3"/>
<circle cx="453.07405698571034" cy="183.1962069891393" r="0.5" style="fill:none;stroke:white;stroke-width:3"/>
<circle cx="462.30466916228886" cy="179.3801957901567" r="0.5" style="fill:none;stroke:white;stroke-width:3"/>
<circle cx="471.2146812053819" cy="181.20244851373135" r="0.5" style="fill:none;stroke:white;stroke-width:3"/>
<circle cx="480.1781266040567" cy="180.8379979982972" r="0.5" style="fill:none;stroke:white;stroke-width:3"/>
<circle cx="488.91448024151214" cy="180.1948499891907" r="0.5" style="fill:none;stroke:white;stroke-width:3"/>
<circle cx="494.8322243720835" cy="180.9023127950728" r="0.5" style="fill:none;stroke:white;stroke-width:3"/>
<circle cx="501.77856059758324" cy="180.7736831948161" r="0.5" style="fill:none;stroke:white;stroke-width:3"/>
<circle cx="512.6522484582702" cy="179.1658130932599" r="0.5" style="fill:none;stroke:white;stroke-width:3"/>
<circle cx="523.0851111354157" cy="180.38779439739884" r="0.5" style="fill:none;stroke:white;stroke-width:3"/>
<circle cx="531.2203395225879" cy="181.8027199231088" r="0.5" style="fill:none;stroke:white;stroke-width:3"/>
<circle cx="539.2620595374945" cy="178.99430693686008" r="0.5" style="fill:none;stroke:white;stroke-width:3"/>
<circle cx="549.8952972980679" cy="177.23636861778795" r="0.5" style="fill:none;stroke:white;stroke-width:3"/>
<circle cx="556.6946917957209" cy="175.0282261457294" r="0.5" style="fill:none;stroke:white;stroke-width:3"/>
<circle cx="566.6867292893257" cy="176.1858931325376" r="0.5" style="fill:none;stroke:white;stroke-width:3"/>
<circle cx="570.8010976690446" cy="170.89063744358717" r="0.5" style="fill:none;stroke:white;stroke-width:3"/>
<circle cx="571.1751311581107" cy="170.09742075651883" r="0.5" style="fill:none;stroke:white;stroke-width:3"/>
<circle cx="573.1254486368083" cy="172.92727458626032" r="0.5" style="fill:none;stroke:white;stroke-width:3"/>
<circle cx="573.7532905648824" cy="172.94871287494897" r="0.5" style="fill:none;stroke:white;stroke-width:3"/>
<circle cx="575.6100996713145" cy="172.36987920105457" r="0.5" style="fill:none;stroke:white;stroke-width:3"/>
<circle cx="574.915466048764" cy="172.5413854781538" r="0.5" style="fill:none;stroke:white;stroke-width:3"/>
<circle cx="576.0776415326461" cy="172.17693463414906" r="0.5" style="fill:none;stroke:white;stroke-width:3"/>
<circle cx="569.2782470349927" cy="172.5413854781538" r="0.5" style="fill:none;stroke:white;stroke-width:3"/>
<circle cx="568.3431633123288" cy="172.43419405147432" r="0.5" style="fill:none;stroke:white;stroke-width:3"/>
<circle cx="574.915466048764" cy="171.49090948998926" r="0.5" style="fill:none;stroke:white;stroke-width:3"/>
<circle cx="573.6864988704066" cy="170.61193969510495" r="0.5" style="fill:none;stroke:white;stroke-width:3"/>
<circle cx="573.152165314598" cy="170.82632257975638" r="0.5" style="fill:none;stroke:white;stroke-width:3"/>
<circle cx="572.6311900976858" cy="171.31940319389105" r="0.5" style="fill:none;stroke:white;stroke-width:3"/>
<circle cx="570.3869891632936" cy="171.12645860798656" r="0.5" style="fill:none;stroke:white;stroke-width:3"/>
<circle cx="569.7725055741151" cy="171.4265946317464" r="0.5" style="fill:none;stroke:white;stroke-width:3"/>
<circle cx="568.4500300234905" cy="170.16173562481998" r="0.5" style="fill:none;stroke:white;stroke-width:3"/>
<circle cx="565.3776120775968" cy="170.52618654370306" r="0.5" style="fill:none;stroke:white;stroke-width:3"/>
<circle cx="564.2555116104002" cy="170.05454417914152" r="0.5" style="fill:none;stroke:white;stroke-width:3"/>
<circle cx="563.6944613768019" cy="171.06214374750851" r="0.5" style="fill:none;stroke:white;stroke-width:3"/>
<circle cx="563.3872195822127" cy="174.70665195286273" r="0.5" style="fill:none;stroke:white;stroke-width:3"/>
<circle cx="562.3719858261778" cy="173.7848058912903" r="0.5" style="fill:none;stroke:white;stroke-width:3"/>
<circle cx="564.8432785217889" cy="171.55522434823214" r="0.5" style="fill:none;stroke:white;stroke-width:3"/>
<circle cx="561.8242939314747" cy="171.2336500480771" r="0.5" style="fill:none;stroke:white;stroke-width:3"/>
<circle cx="561.557127153571" cy="172.69145346432924" r="0.5" style="fill:none;stroke:white;stroke-width:3"/>
<circle cx="562.0647440315886" cy="174.29932463541627" r="0.5" style="fill:none;stroke:white;stroke-width:3"/>
<circle cx="562.2116857594359" cy="173.18453398458658" r="0.5" style="fill:none;stroke:white;stroke-width:3"/>
<circle cx="564.2154365937147" cy="172.28412606306372" r="0.5" style="fill:none;stroke:white;stroke-width:3"/>
<circle cx="565.6581371943952" cy="171.8767986394465" r="0.5" style="fill:none;stroke:white;stroke-width:3"/>
<circle cx="566.6199375948494" cy="172.00542835481465" r="0.5" style="fill:none;stroke:white;stroke-width:3"/>
<circle cx="563.333786226632" cy="174.23500978834926" r="0.5" style="fill:none;stroke:white;stroke-width:3"/>
<circle cx="557.883583957394" cy="171.08358203396202" r="0.5" style="fill:none;stroke:white;stroke-width:3"/>
<circle cx="557.7900755851267" cy="171.8767986394465" r="0.5" style="fill:none;stroke:white;stroke-width:3"/>
<circle cx="557.1355169792623" cy="171.01926717348397" r="0.5" style="fill:none;stroke:white;stroke-width:3"/>
<circle cx="554.3836991668529" cy="168.51098719462752" r="0.5" style="fill:none;stroke:white;stroke-width:3"/>
<circle cx="555.626024684106" cy="170.44043339006603" r="0.5" style="fill:none;stroke:white;stroke-width:3"/>
<circle cx="554.9447494004513" cy="171.85536035969852" r="0.5" style="fill:none;stroke:white;stroke-width:3"/>
<circle cx="554.3436241501669" cy="172.45563234239816" r="0.5" style="fill:none;stroke:white;stroke-width:3"/>
<circle cx="555.1985578394593" cy="171.74816892631353" r="0.5" style="fill:none;stroke:white;stroke-width:3"/>
<circle cx="555.6393830230006" cy="171.34084148034452" r="0.5" style="fill:none;stroke:white;stroke-width:3"/>
<circle cx="558.7919510022664" cy="174.87815818972885" r="0.5" style="fill:none;stroke:white;stroke-width:3"/>
<circle cx="552.0326315212989" cy="175.97151037193834" r="0.5" style="fill:none;stroke:white;stroke-width:3"/>
<circle cx="550.1758224148674" cy="176.31452278755606" r="0.5" style="fill:none;stroke:white;stroke-width:3"/>
<circle cx="548.4659550362827" cy="176.67897347733378" r="0.5" style="fill:none;stroke:white;stroke-width:3"/>
<circle cx="552.3398733158881" cy="174.79240507408977" r="0.5" style="fill:none;stroke:white;stroke-width:3"/>
<circle cx="552.0192731824033" cy="174.40651603639125" r="0.5" style="fill:none;stroke:white;stroke-width:3"/>
<circle cx="548.960213575404" cy="173.0987808533013" r="0.5" style="fill:none;stroke:white;stroke-width:3"/>
<circle cx="547.7312463970472" cy="172.86295973695815" r="0.5" style="fill:none;stroke:white;stroke-width:3"/>
<circle cx="549.7483555702207" cy="174.87815818972885" r="0.5" style="fill:none;stroke:white;stroke-width:3"/>
<circle cx="553.7157822220928" cy="175.9071955382824" r="0.5" style="fill:none;stroke:white;stroke-width:3"/>
<circle cx="556.8683502013591" cy="175.82144242711365" r="0.5" style="fill:none;stroke:white;stroke-width:3"/>
<circle cx="553.9161573055208" cy="176.486029003188" r="0.5" style="fill:none;stroke:white;stroke-width:3"/>
<circle cx="555.3722162450964" cy="176.12157830558718" r="0.5" style="fill:none;stroke:white;stroke-width:3"/>
<circle cx="554.8378826892895" cy="175.6284979339689" r="0.5" style="fill:none;stroke:white;stroke-width:3"/>
<circle cx="551.8723314545565" cy="175.99294864833354" r="0.5" style="fill:none;stroke:white;stroke-width:3"/>
<circle cx="554.0630990333681" cy="176.55034382678568" r="0.5" style="fill:none;stroke:white;stroke-width:3"/>
<circle cx="554.2367574390056" cy="178.13677608780563" r="0.5" style="fill:none;stroke:white;stroke-width:3"/>
<circle cx="555.1451244838792" cy="177.4507513616234" r="0.5" style="fill:none;stroke:white;stroke-width:3"/>
<circle cx="554.7042993003373" cy="177.53650445379316" r="0.5" style="fill:none;stroke:white;stroke-width:3"/>
<circle cx="553.2081653440756" cy="176.74328830093145" r="0.5" style="fill:none;stroke:white;stroke-width:3"/>
<circle cx="551.2845645431678" cy="176.9362327761948" r="0.5" style="fill:none;stroke:white;stroke-width:3"/>
<circle cx="551.3112812209581" cy="176.3573993436992" r="0.5" style="fill:none;stroke:white;stroke-width:3"/>
<circle cx="549.2540970310981" cy="176.05726347751914" r="0.5" style="fill:none;stroke:white;stroke-width:3"/>
<circle cx="550.2025390926572" cy="176.03582520112394" r="0.5" style="fill:none;stroke:white;stroke-width:3"/>
<circle cx="551.8856897934517" cy="176.01438692472874" r="0.5" style="fill:none;stroke:white;stroke-width:3"/>
<circle cx="550.229255770448" cy="176.82904139980673" r="0.5" style="fill:none;stroke:white;stroke-width:3"/>
<circle cx="556.9217835569386" cy="174.7280902314931" r="0.5" style="fill:none;stroke:white;stroke-width:3"/>
<circle cx="557.6030588405939" cy="175.24260893315076" r="0.5" style="fill:none;stroke:white;stroke-width:3"/>
<circle cx="561.3834687479339" cy="175.22117065005003" r="0.5" style="fill:none;stroke:white;stroke-width:3"/>
<circle cx="565.2440286886441" cy="177.30068343803285" r="0.5" style="fill:none;stroke:white;stroke-width:3"/>
<circle cx="573.8200822593582" cy="185.5115389019251" r="0.5" style="fill:none;stroke:white;stroke-width:3"/>
<circle cx="572.2304399308305" cy="190.0564480997622" r="0.5" style="fill:none;stroke:white;stroke-width:3"/>
<circle cx="555.7996830897431" cy="175.75712759569288" r="0.5" style="fill:none;stroke:white;stroke-width:3"/>
<circle cx="534.5332075685956" cy="187.26947572790087" r="0.5" style="fill:none;stroke:white;stroke-width:3"/>
<circle cx="526.5449209092707" cy="187.61248775795102" r="0.5" style="fill:none;stroke:white;stroke-width:3"/>
<circle cx="524.1270615692408" cy="191.9430135592818" r="0.5" style="fill:none;stroke:white;stroke-width:3"/>
<circle cx="530.2451807832391" cy="196.8952461708337" r="0.5" style="fill:none;stroke:white;stroke-width:3"/>
<circle cx="545.3133870570169" cy="192.65047551468015" r="0.5" style="fill:none;stroke:white;stroke-width:3"/>
<circle cx="557.9770923296595" cy="187.4838582482189" r="0.5" style="fill:none;stroke:white;stroke-width:3"/>
<circle cx="568.7706301569755" cy="184.5896938573569" r="0.5" style="fill:none;stroke:white;stroke-width:3"/>
<circle cx="577.3466837276895" cy="185.2114033140242" r="0.5" style="fill:none;stroke:white;stroke-width:3"/>
<circle cx="586.9112543766475" cy="185.49010064564644" r="0.5" style="fill:none;stroke:white;stroke-width:3"/>
<circle cx="596.2754499421771" cy="186.43338386379182" r="0.5" style="fill:none;stroke:white;stroke-width:3"/>
<circle cx="598.1589757264001" cy="194.9014904871583" r="0.5" style="fill:none;stroke:white;stroke-width:3"/>
<circle cx="597.3841920704787" cy="207.82873785942792" r="0.5" style="fill:none;stroke:white;stroke-width:3"/>
<circle cx="598.7601009766832" cy="222.17088784910737" r="0.5" style="fill:none;stroke:white;stroke-width:3"/>
<circle cx="601.3516187223502" cy="231.83950026333332" r="0.5" style="fill:none;stroke:white;stroke-width:3"/>
<circle cx="604.9316535462627" cy="247.21064491309224" r="0.5" style="fill:none;stroke:white;stroke-width:3"/>
<circle cx="609.6738638540556" cy="258.5728423140943" r="0.5" style="fill:none;stroke:white;stroke-width:3"/>
<circle cx="611.5974646549636" cy="271.500005575642" r="0.5" style="fill:none;stroke:white;stroke-width:3"/>
<circle cx="612.8932235277967" cy="275.35885697007177" r="0.5" style="fill:none;stroke:white;stroke-width:3"/>
<circle cx="616.3530333016522" cy="286.1636327840388" r="0.5" style="fill:none;stroke:white;stroke-width:3"/>
<circle cx="617.3415503798961" cy="303.09966609813273" r="0.5" style="fill:none;stroke:white;stroke-width:3"/>
<circle cx="618.4369341693025" cy="316.9700411763042" r="0.5" style="fill:none;stroke:white;stroke-width:3"/>
<circle cx="617.7823755634375" cy="327.1745085865259" r="0.5" style="fill:none;stroke:white;stroke-width:3"/>
<circle cx="622.6047359046025" cy="333.970334970206" r="0.5" style="fill:none;stroke:white;stroke-width:3"/>
<circle cx="618.3701424748261" cy="345.84694135710595" r="0.5" style="fill:none;stroke:white;stroke-width:3"/>
<circle cx="617.7556588856478" cy="358.731113576889" r="0.5" style="fill:none;stroke:white;stroke-width:3"/>
<circle cx="617.2213253298397" cy="372.9229774855077" r="0.5" style="fill:none;stroke:white;stroke-width:3"/>
<circle cx="614.2290574173164" cy="384.62803404964507" r="0.5" style="fill:none;stroke:white;stroke-width:3"/>
<circle cx="613.8015905726703" cy="393.1817203681916" r="0.5" style="fill:none;stroke:white;stroke-width:3"/>
<circle cx="612.4390400053613" cy="403.2146060798317" r="0.5" style="fill:none;stroke:white;stroke-width:3"/>
<circle cx="608.5384050479644" cy="414.8553131394088" r="0.5" style="fill:none;stroke:white;stroke-width:3"/>
<circle cx="610.194839070968" cy="420.79356905557216" r="0.5" style="fill:none;stroke:white;stroke-width:3"/>
<circle cx="606.895329363856" cy="435.6713496342301" r="0.5" style="fill:none;stroke:white;stroke-width:3"/>
<circle cx="606.8819710249603" cy="447.9337108623236" r="0.5" style="fill:none;stroke:white;stroke-width:3"/>
<circle cx="603.2084278287822" cy="459.7887412894517" r="0.5" style="fill:none;stroke:white;stroke-width:3"/>
<circle cx="602.6607359340791" cy="469.1355544220656" r="0.5" style="fill:none;stroke:white;stroke-width:3"/>
<circle cx="599.521526293709" cy="479.489926443994" r="0.5" style="fill:none;stroke:white;stroke-width:3"/>
<circle cx="598.7200259599983" cy="490.8089789785445" r="0.5" style="fill:none;stroke:white;stroke-width:3"/>
<circle cx="594.7258826303348" cy="501.52776665389536" r="0.5" style="fill:none;stroke:white;stroke-width:3"/>
<circle cx="587.7795464048351" cy="509.80266270674764" r="0.5" style="fill:none;stroke:white;stroke-width:3"/>
<circle cx="586.617370920953" cy="519.749678760767" r="0.5" style="fill:none;stroke:white;stroke-width:3"/>
<circle cx="582.7167359635561" cy="524.7660580214113" r="0.5" style="fill:none;stroke:white;stroke-width:3"/>
<circle cx="578.1749007391916" cy="534.1128090932965" r="0.5" style="fill:none;stroke:white;stroke-width:3"/>
<circle cx="574.0605323594716" cy="543.7382383715361" r="0.5" style="fill:none;stroke:white;stroke-width:3"/>
<circle cx="570.6808726189881" cy="556.4506505034864" r="0.5" style="fill:none;stroke:white;stroke-width:3"/>
<circle cx="569.558772151792" cy="567.4051779013126" r="0.5" style="fill:none;stroke:white;stroke-width:3"/>
<circle cx="559.7270347249297" cy="570.6207902647554" r="0.5" style="fill:none;stroke:white;stroke-width:3"/>
<circle cx="559.7938264194055" cy="570.8994766194373" r="0.5" style="fill:none;stroke:white;stroke-width:3"/>
<circle cx="560.1411432306813" cy="571.221037793532" r="0.5" style="fill:none;stroke:white;stroke-width:3"/>
<circle cx="560.5819684142222" cy="571.6926608160138" r="0.5" style="fill:none;stroke:white;stroke-width:3"/>
<circle cx="561.0895852922398" cy="571.9070349141955" r="0.5" style="fill:none;stroke:white;stroke-width:3"/>
<circle cx="559.1125511357508" cy="572.6573442164809" r="0.5" style="fill:none;stroke:white;stroke-width:3"/>
<circle cx="553.9295156444165" cy="573.7292145453393" r="0.5" style="fill:none;stroke:white;stroke-width:3"/>
<circle cx="552.0727065379839" cy="576.5803890589624" r="0.5" style="fill:none;stroke:white;stroke-width:3"/>
<circle cx="552.5135317215257" cy="580.3962453670799" r="0.5" style="fill:none;stroke:white;stroke-width:3"/>
<circle cx="546.7694459965925" cy="575.7657678510993" r="0.5" style="fill:none;stroke:white;stroke-width:3"/>
<circle cx="541.9604439943238" cy="571.2853500243276" r="0.5" style="fill:none;stroke:white;stroke-width:3"/>
<circle cx="541.6131271830479" cy="569.0772964596748" r="0.5" style="fill:none;stroke:white;stroke-width:3"/>
<circle cx="540.0502015323106" cy="567.5766772516072" r="0.5" style="fill:none;stroke:white;stroke-width:3"/>
<circle cx="539.275417876389" cy="566.1832449238747" r="0.5" style="fill:none;stroke:white;stroke-width:3"/>
<circle cx="539.9299764822541" cy="565.0256240654736" r="0.5" style="fill:none;stroke:white;stroke-width:3"/>
<circle cx="540.5311017325379" cy="563.0533808112144" r="0.5" style="fill:none;stroke:white;stroke-width:3"/>
</g>
</svg>
