<?xml version="1.0" encoding="UTF-8" standalone="no"?>
<!DOCTYPE svg PUBLIC "-//W3C//DTD SVG 1.1//EN" "http://www.w3.org/Graphics/SVG/1.1/DTD/svg11.dtd">
<!-- Created with gpx2svg 0.2.0 -->
<svg xmlns="http://www.w3.org/2000/svg" version="1.1" width="1083.8941713108563px" height="532.9574211895466px" viewBox="0 0 1083.8941713108563 532.9574211895466" viewport-fill="black" >
<rect width="100%" height="100%" fill="#3B3434" />
<g>
<circle cx="59.48395977774889" cy="489.6901463538408" r="0.5" style="fill:none;stroke:white;stroke-width:3"/>
<circle cx="57.37334223230773" cy="490.9763900801539" r="0.5" style="fill:none;stroke:white;stroke-width:3"/>
<circle cx="61.54114396760833" cy="491.10501444451506" r="0.5" style="fill:none;stroke:white;stroke-width:3"/>
<circle cx="61.968610812255065" cy="490.1403316788375" r="0.5" style="fill:none;stroke:white;stroke-width:3"/>
<circle cx="67.91307162061511" cy="479.8932510908693" r="0.5" style="fill:none;stroke:white;stroke-width:3"/>
<circle cx="72.02744000033508" cy="465.85173201933503" r="0.5" style="fill:none;stroke:white;stroke-width:3"/>
<circle cx="76.18188339673942" cy="454.33981509022414" r="0.5" style="fill:none;stroke:white;stroke-width:3"/>
<circle cx="78.70660944793107" cy="439.5908216714859" r="0.5" style="fill:none;stroke:white;stroke-width:3"/>
<circle cx="82.39351098300484" cy="429.10787532404066" r="0.5" style="fill:none;stroke:white;stroke-width:3"/>
<circle cx="87.20251298527418" cy="416.8456007324159" r="0.5" style="fill:none;stroke:white;stroke-width:3"/>
<circle cx="91.99815664864782" cy="402.5467401433736" r="0.5" style="fill:none;stroke:white;stroke-width:3"/>
<circle cx="96.36633346737635" cy="388.14067057594656" r="0.5" style="fill:none;stroke:white;stroke-width:3"/>
<circle cx="99.78606822454584" cy="374.8707752265036" r="0.5" style="fill:none;stroke:white;stroke-width:3"/>
<circle cx="101.96347746446172" cy="363.74462939053774" r="0.5" style="fill:none;stroke:white;stroke-width:3"/>
<circle cx="104.68857859908076" cy="350.71051567196844" r="0.5" style="fill:none;stroke:white;stroke-width:3"/>
<circle cx="106.3316542831897" cy="337.4191318374127" r="0.5" style="fill:none;stroke:white;stroke-width:3"/>
<circle cx="108.69608026763945" cy="323.1201551992446" r="0.5" style="fill:none;stroke:white;stroke-width:3"/>
<circle cx="109.80482239593984" cy="308.45671517439183" r="0.5" style="fill:none;stroke:white;stroke-width:3"/>
<circle cx="110.91356452424134" cy="295.70121950805185" r="0.5" style="fill:none;stroke:white;stroke-width:3"/>
<circle cx="111.87536492469444" cy="283.03145861327647" r="0.5" style="fill:none;stroke:white;stroke-width:3"/>
<circle cx="112.98410705299648" cy="267.9820766385645" r="0.5" style="fill:none;stroke:white;stroke-width:3"/>
<circle cx="112.85052366404433" cy="254.66914252638816" r="0.5" style="fill:none;stroke:white;stroke-width:3"/>
<circle cx="112.38298180271268" cy="242.5138390403241" r="0.5" style="fill:none;stroke:white;stroke-width:3"/>
<circle cx="110.87348950755586" cy="229.8868852134794" r="0.5" style="fill:none;stroke:white;stroke-width:3"/>
<circle cx="110.24564757948174" cy="228.1075338732451" r="0.5" style="fill:none;stroke:white;stroke-width:3"/>
<circle cx="111.00707289650745" cy="227.95746807977557" r="0.5" style="fill:none;stroke:white;stroke-width:3"/>
<circle cx="112.52992353055997" cy="220.73286945149303" r="0.5" style="fill:none;stroke:white;stroke-width:3"/>
<circle cx="110.20557256279571" cy="201.2457207340747" r="0.5" style="fill:none;stroke:white;stroke-width:3"/>
<circle cx="110.16549754611079" cy="187.20380183011292" r="0.5" style="fill:none;stroke:white;stroke-width:3"/>
<circle cx="105.23627049378392" cy="175.34854774586856" r="0.5" style="fill:none;stroke:white;stroke-width:3"/>
<circle cx="101.40242723086394" cy="162.14267818406225" r="0.5" style="fill:none;stroke:white;stroke-width:3"/>
<circle cx="98.33000928496968" cy="148.14357945844532" r="0.5" style="fill:none;stroke:white;stroke-width:3"/>
<circle cx="97.43500057899182" cy="134.0372698355466" r="0.5" style="fill:none;stroke:white;stroke-width:3"/>
<circle cx="96.82051698981286" cy="124.36864769384265" r="0.5" style="fill:none;stroke:white;stroke-width:3"/>
<circle cx="101.8699690921956" cy="119.43786110132932" r="0.5" style="fill:none;stroke:white;stroke-width:3"/>
<circle cx="115.80271655988217" cy="114.46419559456407" r="0.5" style="fill:none;stroke:white;stroke-width:3"/>
<circle cx="134.90514118000792" cy="117.55129862241446" r="0.5" style="fill:none;stroke:white;stroke-width:3"/>
<circle cx="148.89132200327458" cy="115.57898290939629" r="0.5" style="fill:none;stroke:white;stroke-width:3"/>
<circle cx="162.62369438753265" cy="113.28509348519147" r="0.5" style="fill:none;stroke:white;stroke-width:3"/>
<circle cx="175.3274746768613" cy="110.9697652950883" r="0.5" style="fill:none;stroke:white;stroke-width:3"/>
<circle cx="188.19155503293132" cy="108.56868362836539" r="0.5" style="fill:none;stroke:white;stroke-width:3"/>
<circle cx="198.31717591548767" cy="104.62404819019139" r="0.5" style="fill:none;stroke:white;stroke-width:3"/>
<circle cx="210.00572244878148" cy="101.47262633778155" r="0.5" style="fill:none;stroke:white;stroke-width:3"/>
<circle cx="222.081660810036" cy="99.30736312195658" r="0.5" style="fill:none;stroke:white;stroke-width:3"/>
<circle cx="236.10791664998814" cy="97.29216721951961" r="0.5" style="fill:none;stroke:white;stroke-width:3"/>
<circle cx="247.56937142206368" cy="94.22649606540799" r="0.5" style="fill:none;stroke:white;stroke-width:3"/>
<circle cx="261.4620438730637" cy="95.68429785333574" r="0.5" style="fill:none;stroke:white;stroke-width:3"/>
<circle cx="270.54571432179597" cy="97.78524710610509" r="0.5" style="fill:none;stroke:white;stroke-width:3"/>
<circle cx="279.72289314279277" cy="100.91523189358414" r="0.5" style="fill:none;stroke:white;stroke-width:3"/>
<circle cx="294.1766158273911" cy="101.64413231648504" r="0.5" style="fill:none;stroke:white;stroke-width:3"/>
<circle cx="305.07702036586886" cy="102.56597689390182" r="0.5" style="fill:none;stroke:white;stroke-width:3"/>
<circle cx="318.35520922769047" cy="104.17384513020515" r="0.5" style="fill:none;stroke:white;stroke-width:3"/>
<circle cx="331.2727229393422" cy="104.85986883156001" r="0.5" style="fill:none;stroke:white;stroke-width:3"/>
<circle cx="344.28374502326005" cy="107.19663670174778" r="0.5" style="fill:none;stroke:white;stroke-width:3"/>
<circle cx="356.31960836782855" cy="110.26230379454792" r="0.5" style="fill:none;stroke:white;stroke-width:3"/>
<circle cx="369.7580972963926" cy="110.94832706898451" r="0.5" style="fill:none;stroke:white;stroke-width:3"/>
<circle cx="381.7271689464853" cy="112.51331748180091" r="0.5" style="fill:none;stroke:white;stroke-width:3"/>
<circle cx="394.2572908301763" cy="113.17790237255394" r="0.5" style="fill:none;stroke:white;stroke-width:3"/>
<circle cx="406.1996458024787" cy="114.54994846768678" r="0.5" style="fill:none;stroke:white;stroke-width:3"/>
<circle cx="416.9531086131089" cy="116.24356759116053" r="0.5" style="fill:none;stroke:white;stroke-width:3"/>
<circle cx="430.01756405260767" cy="114.2712516222149" r="0.5" style="fill:none;stroke:white;stroke-width:3"/>
<circle cx="443.37590294780017" cy="111.6129120659083" r="0.5" style="fill:none;stroke:white;stroke-width:3"/>
<circle cx="457.8697006490843" cy="109.3404599469155" r="0.5" style="fill:none;stroke:white;stroke-width:3"/>
<circle cx="471.0810978164303" cy="110.86257416456938" r="0.5" style="fill:none;stroke:white;stroke-width:3"/>
<circle cx="483.958536511396" cy="111.82729431688786" r="0.5" style="fill:none;stroke:white;stroke-width:3"/>
<circle cx="498.3721841793089" cy="110.69106834679842" r="0.5" style="fill:none;stroke:white;stroke-width:3"/>
<circle cx="511.23626453538" cy="109.23326879180968" r="0.5" style="fill:none;stroke:white;stroke-width:3"/>
<circle cx="523.2186945243676" cy="106.06041019521653" r="0.5" style="fill:none;stroke:white;stroke-width:3"/>
<circle cx="537.0045002642069" cy="104.15240688957273" r="0.5" style="fill:none;stroke:white;stroke-width:3"/>
<circle cx="549.2674553699939" cy="101.64413231648504" r="0.5" style="fill:none;stroke:white;stroke-width:3"/>
<circle cx="561.1964520034009" cy="97.5923028063029" r="0.5" style="fill:none;stroke:white;stroke-width:3"/>
<circle cx="576.0776415326461" cy="93.96923690289259" r="0.5" style="fill:none;stroke:white;stroke-width:3"/>
<circle cx="586.7375959710095" cy="92.64006446041166" r="0.5" style="fill:none;stroke:white;stroke-width:3"/>
<circle cx="599.1875678213295" cy="88.41672501415015" r="0.5" style="fill:none;stroke:white;stroke-width:3"/>
<circle cx="611.8913481106581" cy="86.2085823431611" r="0.5" style="fill:none;stroke:white;stroke-width:3"/>
<circle cx="626.2382040840946" cy="84.55783458910882" r="0.5" style="fill:none;stroke:white;stroke-width:3"/>
<circle cx="640.9323768688072" cy="81.96380183547735" r="0.5" style="fill:none;stroke:white;stroke-width:3"/>
<circle cx="652.4472649964631" cy="80.9133255623281" r="0.5" style="fill:none;stroke:white;stroke-width:3"/>
<circle cx="664.8304451523069" cy="79.43408328182996" r="0.5" style="fill:none;stroke:white;stroke-width:3"/>
<circle cx="675.0896494238148" cy="76.58278954848647" r="0.5" style="fill:none;stroke:white;stroke-width:3"/>
<circle cx="686.8984210071659" cy="76.41128313615918" r="0.5" style="fill:none;stroke:white;stroke-width:3"/>
<circle cx="697.4381503954727" cy="75.27505305334925" r="0.5" style="fill:none;stroke:white;stroke-width:3"/>
<circle cx="707.6973546669807" cy="71.95211525447667" r="0.5" style="fill:none;stroke:white;stroke-width:3"/>
<circle cx="717.9031255829079" cy="69.87259877063333" r="0.5" style="fill:none;stroke:white;stroke-width:3"/>
<circle cx="729.0039052048131" cy="66.72116573341191" r="0.5" style="fill:none;stroke:white;stroke-width:3"/>
<circle cx="740.1046848267189" cy="66.44246752113104" r="0.5" style="fill:none;stroke:white;stroke-width:3"/>
<circle cx="750.751280926187" cy="65.17760632373393" r="0.5" style="fill:none;stroke:white;stroke-width:3"/>
<circle cx="762.6268442040135" cy="63.48397835567593" r="0.5" style="fill:none;stroke:white;stroke-width:3"/>
<circle cx="776.6130250272802" cy="65.62781117297709" r="0.5" style="fill:none;stroke:white;stroke-width:3"/>
<circle cx="788.34164657726" cy="71.8234853848815" r="0.5" style="fill:none;stroke:white;stroke-width:3"/>
<circle cx="797.9997255984845" cy="78.04059396721422" r="0.5" style="fill:none;stroke:white;stroke-width:3"/>
<circle cx="807.0833960472152" cy="83.63598831519484" r="0.5" style="fill:none;stroke:white;stroke-width:3"/>
<circle cx="811.3179894769912" cy="88.65254604667425" r="0.5" style="fill:none;stroke:white;stroke-width:3"/>
<circle cx="821.7107771374514" cy="95.5342300325632" r="0.5" style="fill:none;stroke:white;stroke-width:3"/>
<circle cx="833.41268200964" cy="100.57221991159021" r="0.5" style="fill:none;stroke:white;stroke-width:3"/>
<circle cx="843.1776277420265" cy="107.00369258411229" r="0.5" style="fill:none;stroke:white;stroke-width:3"/>
<circle cx="855.4138661700227" cy="111.74154141917825" r="0.5" style="fill:none;stroke:white;stroke-width:3"/>
<circle cx="866.6482291808803" cy="112.34181169532239" r="0.5" style="fill:none;stroke:white;stroke-width:3"/>
<circle cx="878.9245426255625" cy="113.19934059977531" r="0.5" style="fill:none;stroke:white;stroke-width:3"/>
<circle cx="890.1455472975243" cy="113.02783482335508" r="0.5" style="fill:none;stroke:white;stroke-width:3"/>
<circle cx="902.3550690477307" cy="118.8375912643969" r="0.5" style="fill:none;stroke:white;stroke-width:3"/>
<circle cx="903.343586125975" cy="123.31817597150803" r="0.5" style="fill:none;stroke:white;stroke-width:3"/>
<circle cx="902.2749190143592" cy="124.21858031116426" r="0.5" style="fill:none;stroke:white;stroke-width:3"/>
<circle cx="902.9561942980142" cy="124.75453523285687" r="0.5" style="fill:none;stroke:white;stroke-width:3"/>
<circle cx="902.6222358256342" cy="124.66878244914113" r="0.5" style="fill:none;stroke:white;stroke-width:3"/>
<circle cx="904.0916531041055" cy="120.70271529033779" r="0.5" style="fill:none;stroke:white;stroke-width:3"/>
<circle cx="911.1047810240818" cy="114.72145421169698" r="0.5" style="fill:none;stroke:white;stroke-width:3"/>
<circle cx="918.0511172495821" cy="109.23326879180968" r="0.5" style="fill:none;stroke:white;stroke-width:3"/>
<circle cx="922.4860857627862" cy="108.50436893552542" r="0.5" style="fill:none;stroke:white;stroke-width:3"/>
<circle cx="922.7398942017948" cy="109.81210099719465" r="0.5" style="fill:none;stroke:white;stroke-width:3"/>
<circle cx="923.2475110798124" cy="110.41237139068544" r="0.5" style="fill:none;stroke:white;stroke-width:3"/>
<circle cx="924.0890864302094" cy="112.89920549355448" r="0.5" style="fill:none;stroke:white;stroke-width:3"/>
<circle cx="924.5699866304365" cy="112.89920549355448" r="0.5" style="fill:none;stroke:white;stroke-width:3"/>
<circle cx="924.5833449693316" cy="112.94208193793892" r="0.5" style="fill:none;stroke:white;stroke-width:3"/>
<circle cx="928.8446550768983" cy="101.96570601426065" r="0.5" style="fill:none;stroke:white;stroke-width:3"/>
<circle cx="929.7129471050856" cy="89.93884248733521" r="0.5" style="fill:none;stroke:white;stroke-width:3"/>
<circle cx="937.1535418697079" cy="81.27777652814984" r="0.5" style="fill:none;stroke:white;stroke-width:3"/>
<circle cx="946.3841540462861" cy="79.13394713513553" r="0.5" style="fill:none;stroke:white;stroke-width:3"/>
<circle cx="948.0005130526042" cy="78.51223652623594" r="0.5" style="fill:none;stroke:white;stroke-width:3"/>
<circle cx="948.3478298638797" cy="78.66230461075902" r="0.5" style="fill:none;stroke:white;stroke-width:3"/>
<circle cx="954.3857990445069" cy="82.34969104640186" r="0.5" style="fill:none;stroke:white;stroke-width:3"/>
<circle cx="962.895060920745" cy="87.28049632720649" r="0.5" style="fill:none;stroke:white;stroke-width:3"/>
<circle cx="959.9295096860117" cy="95.23409438319504" r="0.5" style="fill:none;stroke:white;stroke-width:3"/>
<circle cx="954.5327407723537" cy="101.25824386663734" r="0.5" style="fill:none;stroke:white;stroke-width:3"/>
<circle cx="954.8934159225241" cy="100.40071391388774" r="0.5" style="fill:none;stroke:white;stroke-width:3"/>
<circle cx="955.3075244282749" cy="101.66557056382298" r="0.5" style="fill:none;stroke:white;stroke-width:3"/>
<circle cx="964.7385116882813" cy="108.80450418144464" r="0.5" style="fill:none;stroke:white;stroke-width:3"/>
<circle cx="973.3412819367857" cy="116.02918544635176" r="0.5" style="fill:none;stroke:white;stroke-width:3"/>
<circle cx="982.7589108578961" cy="120.68127708546817" r="0.5" style="fill:none;stroke:white;stroke-width:3"/>
<circle cx="991.1746643618677" cy="113.41372281499207" r="0.5" style="fill:none;stroke:white;stroke-width:3"/>
<circle cx="998.3614506874815" cy="106.44629845507443" r="0.5" style="fill:none;stroke:white;stroke-width:3"/>
<circle cx="1002.9967942841134" cy="93.43328029476106" r="0.5" style="fill:none;stroke:white;stroke-width:3"/>
<circle cx="1012.5079315774908" cy="82.84277168512344" r="0.5" style="fill:none;stroke:white;stroke-width:3"/>
<circle cx="1018.6661258081745" cy="72.9382775567472" r="0.5" style="fill:none;stroke:white;stroke-width:3"/>
<circle cx="1027.8566629680672" cy="64.23431989587843" r="0.5" style="fill:none;stroke:white;stroke-width:3"/>
<circle cx="1035.2037493604232" cy="54.694258883222936" r="0.5" style="fill:none;stroke:white;stroke-width:3"/>
<circle cx="1041.0680601354131" cy="45.34713391140103" r="0.5" style="fill:none;stroke:white;stroke-width:3"/>
<circle cx="1047.159462671621" cy="36.0" r="0.5" style="fill:none;stroke:white;stroke-width:3"/>
<circle cx="1047.8941713108563" cy="37.90801659375429" r="0.5" style="fill:none;stroke:white;stroke-width:3"/>
<circle cx="1046.2778123045382" cy="39.51589545384049" r="0.5" style="fill:none;stroke:white;stroke-width:3"/>
<circle cx="1046.2510956267477" cy="39.85890957936645" r="0.5" style="fill:none;stroke:white;stroke-width:3"/>
<circle cx="1044.5813032648487" cy="41.80980216935277" r="0.5" style="fill:none;stroke:white;stroke-width:3"/>
<circle cx="1044.4076448592107" cy="41.95987081825733" r="0.5" style="fill:none;stroke:white;stroke-width:3"/>
<circle cx="1044.9286200761237" cy="42.195692968368526" r="0.5" style="fill:none;stroke:white;stroke-width:3"/>
<circle cx="1044.7683200093811" cy="41.38103460408747" r="0.5" style="fill:none;stroke:white;stroke-width:3"/>
<circle cx="1043.6061445254995" cy="40.69500645138323" r="0.5" style="fill:none;stroke:white;stroke-width:3"/>
<circle cx="1033.600748693" cy="49.74199882820248" r="0.5" style="fill:none;stroke:white;stroke-width:3"/>
<circle cx="1029.6466803800233" cy="65.30623628050088" r="0.5" style="fill:none;stroke:white;stroke-width:3"/>
<circle cx="1022.2595189709814" cy="75.78957234844565" r="0.5" style="fill:none;stroke:white;stroke-width:3"/>
<circle cx="1013.0422651332985" cy="87.13042837344109" r="0.5" style="fill:none;stroke:white;stroke-width:3"/>
<circle cx="1005.0940534906586" cy="99.65037515200675" r="0.5" style="fill:none;stroke:white;stroke-width:3"/>
<circle cx="999.6037762047348" cy="112.23462057821452" r="0.5" style="fill:none;stroke:white;stroke-width:3"/>
<circle cx="992.4570648958061" cy="120.57408606000244" r="0.5" style="fill:none;stroke:white;stroke-width:3"/>
<circle cx="985.5374453480963" cy="130.19983558505774" r="0.5" style="fill:none;stroke:white;stroke-width:3"/>
<circle cx="980.113959756648" cy="131.27174474224446" r="0.5" style="fill:none;stroke:white;stroke-width:3"/>
<circle cx="969.5475136905507" cy="139.80413747616112" r="0.5" style="fill:none;stroke:white;stroke-width:3"/>
<circle cx="962.3740857038321" cy="147.99351244680582" r="0.5" style="fill:none;stroke:white;stroke-width:3"/>
<circle cx="951.861072993315" cy="153.35304732732473" r="0.5" style="fill:none;stroke:white;stroke-width:3"/>
<circle cx="947.2524460744736" cy="158.62682678774" r="0.5" style="fill:none;stroke:white;stroke-width:3"/>
<circle cx="940.4664099157158" cy="164.50087047703565" r="0.5" style="fill:none;stroke:white;stroke-width:3"/>
<circle cx="933.4799986735301" cy="170.93230114057658" r="0.5" style="fill:none;stroke:white;stroke-width:3"/>
<circle cx="926.3199290257066" cy="177.96399382352828" r="0.5" style="fill:none;stroke:white;stroke-width:3"/>
<circle cx="919.7476262892717" cy="189.56198809482157" r="0.5" style="fill:none;stroke:white;stroke-width:3"/>
<circle cx="911.9062813577935" cy="204.26848231852054" r="0.5" style="fill:none;stroke:white;stroke-width:3"/>
<circle cx="903.9447113762587" cy="218.73913654536008" r="0.5" style="fill:none;stroke:white;stroke-width:3"/>
<circle cx="896.6510583394833" cy="233.87434607706962" r="0.5" style="fill:none;stroke:white;stroke-width:3"/>
<circle cx="891.8286979983187" cy="247.68038081265985" r="0.5" style="fill:none;stroke:white;stroke-width:3"/>
<circle cx="886.7926042348306" cy="260.2215600840747" r="0.5" style="fill:none;stroke:white;stroke-width:3"/>
<circle cx="879.5523845536366" cy="274.64925583451986" r="0.5" style="fill:none;stroke:white;stroke-width:3"/>
<circle cx="870.6156558327524" cy="286.654454517737" r="0.5" style="fill:none;stroke:white;stroke-width:3"/>
<circle cx="863.9364863851562" cy="295.958473360911" r="0.5" style="fill:none;stroke:white;stroke-width:3"/>
<circle cx="859.3278594663144" cy="303.52602134272456" r="0.5" style="fill:none;stroke:white;stroke-width:3"/>
<circle cx="851.2994977903036" cy="311.4580058578402" r="0.5" style="fill:none;stroke:white;stroke-width:3"/>
<circle cx="841.8417938525071" cy="322.8843398094177" r="0.5" style="fill:none;stroke:white;stroke-width:3"/>
<circle cx="837.0728668669235" cy="336.4758716516197" r="0.5" style="fill:none;stroke:white;stroke-width:3"/>
<circle cx="830.4070557582219" cy="345.13671174421904" r="0.5" style="fill:none;stroke:white;stroke-width:3"/>
<circle cx="821.4302520206525" cy="355.9627510841936" r="0.5" style="fill:none;stroke:white;stroke-width:3"/>
<circle cx="812.1729231662839" cy="362.887122438848" r="0.5" style="fill:none;stroke:white;stroke-width:3"/>
<circle cx="812.613748349825" cy="364.0661944750696" r="0.5" style="fill:none;stroke:white;stroke-width:3"/>
<circle cx="813.3885320057464" cy="364.15194516219196" r="0.5" style="fill:none;stroke:white;stroke-width:3"/>
<circle cx="813.5354737335937" cy="364.04475680328903" r="0.5" style="fill:none;stroke:white;stroke-width:3"/>
<circle cx="807.0166043527394" cy="361.4079227831215" r="0.5" style="fill:none;stroke:white;stroke-width:3"/>
<circle cx="792.0151897734381" cy="353.09010023139416" r="0.5" style="fill:none;stroke:white;stroke-width:3"/>
<circle cx="777.2007919386693" cy="344.600768892467" r="0.5" style="fill:none;stroke:white;stroke-width:3"/>
<circle cx="767.3824128507023" cy="340.29178729578854" r="0.5" style="fill:none;stroke:white;stroke-width:3"/>
<circle cx="759.6212179525953" cy="336.4758716516197" r="0.5" style="fill:none;stroke:white;stroke-width:3"/>
<circle cx="750.5642641816545" cy="336.73312444277104" r="0.5" style="fill:none;stroke:white;stroke-width:3"/>
<circle cx="739.6237846264914" cy="333.4317131627351" r="0.5" style="fill:none;stroke:white;stroke-width:3"/>
<circle cx="729.8855555718964" cy="329.8944855619222" r="0.5" style="fill:none;stroke:white;stroke-width:3"/>
<circle cx="717.8496922273271" cy="328.3080921649933" r="0.5" style="fill:none;stroke:white;stroke-width:3"/>
<circle cx="705.7603955271774" cy="325.2424933802336" r="0.5" style="fill:none;stroke:white;stroke-width:3"/>
<circle cx="694.966857699862" cy="320.0974303252995" r="0.5" style="fill:none;stroke:white;stroke-width:3"/>
<circle cx="684.6942950894592" cy="312.52989516332747" r="0.5" style="fill:none;stroke:white;stroke-width:3"/>
<circle cx="676.9731752080374" cy="304.85516514144837" r="0.5" style="fill:none;stroke:white;stroke-width:3"/>
<circle cx="670.6680392495061" cy="296.81598617658017" r="0.5" style="fill:none;stroke:white;stroke-width:3"/>
<circle cx="666.8208376476911" cy="286.654454517737" r="0.5" style="fill:none;stroke:white;stroke-width:3"/>
<circle cx="657.3230586932087" cy="280.24453777112063" r="0.5" style="fill:none;stroke:white;stroke-width:3"/>
<circle cx="648.105804855526" cy="270.87619035691023" r="0.5" style="fill:none;stroke:white;stroke-width:3"/>
<circle cx="639.022134406794" cy="262.1080950591713" r="0.5" style="fill:none;stroke:white;stroke-width:3"/>
<circle cx="632.2895316036171" cy="253.23280233554541" r="0.5" style="fill:none;stroke:white;stroke-width:3"/>
<circle cx="623.9138531163314" cy="243.69292557947335" r="0.5" style="fill:none;stroke:white;stroke-width:3"/>
<circle cx="616.8606501796694" cy="235.5893825098872" r="0.5" style="fill:none;stroke:white;stroke-width:3"/>
<circle cx="609.94103063196" cy="227.4429567877203" r="0.5" style="fill:none;stroke:white;stroke-width:3"/>
<circle cx="599.1608511435392" cy="224.63458213806152" r="0.5" style="fill:none;stroke:white;stroke-width:3"/>
<circle cx="588.060071521634" cy="232.24506119191645" r="0.5" style="fill:none;stroke:white;stroke-width:3"/>
<circle cx="574.6482992708598" cy="238.07618480063974" r="0.5" style="fill:none;stroke:white;stroke-width:3"/>
<circle cx="562.7860943319289" cy="242.23514583818613" r="0.5" style="fill:none;stroke:white;stroke-width:3"/>
<circle cx="551.1242644764253" cy="245.06495336852967" r="0.5" style="fill:none;stroke:white;stroke-width:3"/>
<circle cx="543.7237447284889" cy="244.67907057367265" r="0.5" style="fill:none;stroke:white;stroke-width:3"/>
<circle cx="537.6857755478619" cy="244.8720119755715" r="0.5" style="fill:none;stroke:white;stroke-width:3"/>
<circle cx="526.8655210427553" cy="244.22887395657597" r="0.5" style="fill:none;stroke:white;stroke-width:3"/>
<circle cx="528.5486717435498" cy="242.49240110144018" r="0.5" style="fill:none;stroke:white;stroke-width:3"/>
<circle cx="528.2815049656457" cy="241.8492629315704" r="0.5" style="fill:none;stroke:white;stroke-width:3"/>
<circle cx="528.2948633045409" cy="241.2704385370016" r="0.5" style="fill:none;stroke:white;stroke-width:3"/>
<circle cx="527.987621509952" cy="240.84167971014975" r="0.5" style="fill:none;stroke:white;stroke-width:3"/>
<circle cx="526.3445458258427" cy="240.54154851324856" r="0.5" style="fill:none;stroke:white;stroke-width:3"/>
<circle cx="516.4460167045049" cy="240.56298645995557" r="0.5" style="fill:none;stroke:white;stroke-width:3"/>
<circle cx="505.94636233288327" cy="240.56298645995557" r="0.5" style="fill:none;stroke:white;stroke-width:3"/>
<circle cx="494.9791660999305" cy="234.15303951725363" r="0.5" style="fill:none;stroke:white;stroke-width:3"/>
<circle cx="491.2655478870667" cy="225.85654677450657" r="0.5" style="fill:none;stroke:white;stroke-width:3"/>
<circle cx="490.06329738649964" cy="225.79223285168408" r="0.5" style="fill:none;stroke:white;stroke-width:3"/>
<circle cx="492.7483235044332" cy="226.52112397402524" r="0.5" style="fill:none;stroke:white;stroke-width:3"/>
<circle cx="494.7921493553972" cy="226.52112397402524" r="0.5" style="fill:none;stroke:white;stroke-width:3"/>
<circle cx="494.31124915517063" cy="226.45681005455552" r="0.5" style="fill:none;stroke:white;stroke-width:3"/>
<circle cx="494.9791660999305" cy="227.27145301289855" r="0.5" style="fill:none;stroke:white;stroke-width:3"/>
<circle cx="494.9257327443493" cy="227.59302258342504" r="0.5" style="fill:none;stroke:white;stroke-width:3"/>
<circle cx="494.65856596644534" cy="227.85027823112904" r="0.5" style="fill:none;stroke:white;stroke-width:3"/>
<circle cx="494.5383409163892" cy="227.80740229189396" r="0.5" style="fill:none;stroke:white;stroke-width:3"/>
<circle cx="494.5116242385986" cy="227.8288402620703" r="0.5" style="fill:none;stroke:white;stroke-width:3"/>
<circle cx="494.484907560808" cy="227.80740229189396" r="0.5" style="fill:none;stroke:white;stroke-width:3"/>
<circle cx="494.4715492219128" cy="227.7859643228352" r="0.5" style="fill:none;stroke:white;stroke-width:3"/>
<circle cx="494.4715492219128" cy="227.7859643228352" r="0.5" style="fill:none;stroke:white;stroke-width:3"/>
<circle cx="494.3246074940655" cy="227.42151881754398" r="0.5" style="fill:none;stroke:white;stroke-width:3"/>
<circle cx="494.2845324773803" cy="227.314328956604" r="0.5" style="fill:none;stroke:white;stroke-width:3"/>
<circle cx="494.27117413848487" cy="227.2928909841925" r="0.5" style="fill:none;stroke:white;stroke-width:3"/>
<circle cx="494.27117413848487" cy="227.25001504160463" r="0.5" style="fill:none;stroke:white;stroke-width:3"/>
<circle cx="494.2578157995897" cy="227.25001504160463" r="0.5" style="fill:none;stroke:white;stroke-width:3"/>
<circle cx="494.24445746069455" cy="227.2285770703107" r="0.5" style="fill:none;stroke:white;stroke-width:3"/>
<circle cx="493.95057400500025" cy="227.16426315754651" r="0.5" style="fill:none;stroke:white;stroke-width:3"/>
<circle cx="493.92385732720993" cy="227.16426315754651" r="0.5" style="fill:none;stroke:white;stroke-width:3"/>
<circle cx="493.91049898831477" cy="227.16426315754651" r="0.5" style="fill:none;stroke:white;stroke-width:3"/>
<circle cx="493.85706563273413" cy="227.16426315754651" r="0.5" style="fill:none;stroke:white;stroke-width:3"/>
<circle cx="493.7769155993626" cy="227.18570112772287" r="0.5" style="fill:none;stroke:white;stroke-width:3"/>
<circle cx="493.7101239048868" cy="227.2285770703107" r="0.5" style="fill:none;stroke:white;stroke-width:3"/>
<circle cx="493.6433322104105" cy="227.2285770703107" r="0.5" style="fill:none;stroke:white;stroke-width:3"/>
<circle cx="493.6032571937253" cy="227.27145301289855" r="0.5" style="fill:none;stroke:white;stroke-width:3"/>
<circle cx="493.56318217703955" cy="227.25001504160463" r="0.5" style="fill:none;stroke:white;stroke-width:3"/>
<circle cx="493.53646549924895" cy="227.2285770703107" r="0.5" style="fill:none;stroke:white;stroke-width:3"/>
<circle cx="493.5097488214592" cy="227.25001504160463" r="0.5" style="fill:none;stroke:white;stroke-width:3"/>
<circle cx="493.4830321436686" cy="227.25001504160463" r="0.5" style="fill:none;stroke:white;stroke-width:3"/>
<circle cx="493.4830321436686" cy="227.25001504160463" r="0.5" style="fill:none;stroke:white;stroke-width:3"/>
<circle cx="493.46967380477315" cy="227.25001504160463" r="0.5" style="fill:none;stroke:white;stroke-width:3"/>
<circle cx="493.44295712698283" cy="227.25001504160463" r="0.5" style="fill:none;stroke:white;stroke-width:3"/>
<circle cx="493.40288211029736" cy="227.27145301289855" r="0.5" style="fill:none;stroke:white;stroke-width:3"/>
<circle cx="493.3895237714022" cy="227.2928909841925" r="0.5" style="fill:none;stroke:white;stroke-width:3"/>
<circle cx="493.37616543250704" cy="227.314328956604" r="0.5" style="fill:none;stroke:white;stroke-width:3"/>
<circle cx="493.456315465878" cy="227.61446055807173" r="0.5" style="fill:none;stroke:white;stroke-width:3"/>
<circle cx="493.3360904158213" cy="227.67877446971832" r="0.5" style="fill:none;stroke:white;stroke-width:3"/>
<circle cx="493.3360904158213" cy="227.7216504111886" r="0.5" style="fill:none;stroke:white;stroke-width:3"/>
<circle cx="493.3494487547167" cy="227.74308838136494" r="0.5" style="fill:none;stroke:white;stroke-width:3"/>
<circle cx="493.3494487547167" cy="227.76452635265886" r="0.5" style="fill:none;stroke:white;stroke-width:3"/>
<circle cx="493.1357153323936" cy="228.0217819970101" r="0.5" style="fill:none;stroke:white;stroke-width:3"/>
<circle cx="492.82847353780414" cy="228.79354888759553" r="0.5" style="fill:none;stroke:white;stroke-width:3"/>
<circle cx="492.8017568600138" cy="228.79354888759553" r="0.5" style="fill:none;stroke:white;stroke-width:3"/>
<circle cx="492.50787340431975" cy="228.60060716830193" r="0.5" style="fill:none;stroke:white;stroke-width:3"/>
<circle cx="492.46779838763376" cy="228.5577312324196" r="0.5" style="fill:none;stroke:white;stroke-width:3"/>
<circle cx="492.4544400487386" cy="228.5577312324196" r="0.5" style="fill:none;stroke:white;stroke-width:3"/>
<circle cx="492.4544400487386" cy="228.5577312324196" r="0.5" style="fill:none;stroke:white;stroke-width:3"/>
<circle cx="492.42772337094857" cy="228.5577312324196" r="0.5" style="fill:none;stroke:white;stroke-width:3"/>
<circle cx="492.4143650320534" cy="228.57916920036078" r="0.5" style="fill:none;stroke:white;stroke-width:3"/>
<circle cx="492.4010066931574" cy="228.60060716830193" r="0.5" style="fill:none;stroke:white;stroke-width:3"/>
<circle cx="492.3876483542628" cy="228.60060716830193" r="0.5" style="fill:none;stroke:white;stroke-width:3"/>
<circle cx="492.3876483542628" cy="229.15799434706568" r="0.5" style="fill:none;stroke:white;stroke-width:3"/>
<circle cx="492.16055659304453" cy="229.43668791577218" r="0.5" style="fill:none;stroke:white;stroke-width:3"/>
<circle cx="492.4010066931574" cy="230.50858621001242" r="0.5" style="fill:none;stroke:white;stroke-width:3"/>
<circle cx="492.4143650320534" cy="229.9940750453621" r="0.5" style="fill:none;stroke:white;stroke-width:3"/>
<circle cx="493.69676556599165" cy="229.2437462154776" r="0.5" style="fill:none;stroke:white;stroke-width:3"/>
<circle cx="494.7654326776074" cy="218.35325271226466" r="0.5" style="fill:none;stroke:white;stroke-width:3"/>
<circle cx="487.04431279618575" cy="205.83345780707896" r="0.5" style="fill:none;stroke:white;stroke-width:3"/>
<circle cx="479.3632679314495" cy="194.34267303943633" r="0.5" style="fill:none;stroke:white;stroke-width:3"/>
<circle cx="472.0562565557794" cy="182.53030374348162" r="0.5" style="fill:none;stroke:white;stroke-width:3"/>
<circle cx="466.3656041864271" cy="170.01046300269664" r="0.5" style="fill:none;stroke:white;stroke-width:3"/>
<circle cx="460.0203932112109" cy="160.4705051153898" r="0.5" style="fill:none;stroke:white;stroke-width:3"/>
<circle cx="453.2877904080332" cy="150.69471838809548" r="0.5" style="fill:none;stroke:white;stroke-width:3"/>
<circle cx="446.3147375047423" cy="138.32490409277378" r="0.5" style="fill:none;stroke:white;stroke-width:3"/>
<circle cx="441.8263356359574" cy="128.82779168374836" r="0.5" style="fill:none;stroke:white;stroke-width:3"/>
<circle cx="437.9791340341422" cy="118.23732138052583" r="0.5" style="fill:none;stroke:white;stroke-width:3"/>
<circle cx="427.1855962068265" cy="112.79201437756419" r="0.5" style="fill:none;stroke:white;stroke-width:3"/>
<circle cx="414.8558494065637" cy="111.95592366680502" r="0.5" style="fill:none;stroke:white;stroke-width:3"/>
<circle cx="401.63109390032224" cy="110.9697652950883" r="0.5" style="fill:none;stroke:white;stroke-width:3"/>
<circle cx="388.47313008855764" cy="109.16895410344004" r="0.5" style="fill:none;stroke:white;stroke-width:3"/>
<circle cx="376.63764182741704" cy="107.60396315641701" r="0.5" style="fill:none;stroke:white;stroke-width:3"/>
<circle cx="364.5082701105819" cy="107.06800729483366" r="0.5" style="fill:none;stroke:white;stroke-width:3"/>
<circle cx="352.4189734104328" cy="105.91034252978861" r="0.5" style="fill:none;stroke:white;stroke-width:3"/>
<circle cx="340.6369185048723" cy="104.9241835501045" r="0.5" style="fill:none;stroke:white;stroke-width:3"/>
<circle cx="329.0953136994258" cy="103.91658622920512" r="0.5" style="fill:none;stroke:white;stroke-width:3"/>
<circle cx="316.6453418491057" cy="103.42350665219128" r="0.5" style="fill:none;stroke:white;stroke-width:3"/>
<circle cx="304.14193664320555" cy="102.58741514012218" r="0.5" style="fill:none;stroke:white;stroke-width:3"/>
<circle cx="289.39433050291206" cy="102.56597689390182" r="0.5" style="fill:none;stroke:white;stroke-width:3"/>
<circle cx="280.8984269655701" cy="101.60125582292676" r="0.5" style="fill:none;stroke:white;stroke-width:3"/>
<circle cx="269.4236138545988" cy="100.67941115610301" r="0.5" style="fill:none;stroke:white;stroke-width:3"/>
<circle cx="259.31135131093816" cy="99.41455437876284" r="0.5" style="fill:none;stroke:white;stroke-width:3"/>
<circle cx="252.7791235911889" cy="99.86475766003132" r="0.5" style="fill:none;stroke:white;stroke-width:3"/>
<circle cx="240.6764685521446" cy="99.65037515200675" r="0.5" style="fill:none;stroke:white;stroke-width:3"/>
<circle cx="227.1177545735236" cy="101.57981757782399" r="0.5" style="fill:none;stroke:white;stroke-width:3"/>
<circle cx="217.3260921633473" cy="103.85227150395512" r="0.5" style="fill:none;stroke:white;stroke-width:3"/>
<circle cx="206.6928544027738" cy="105.1600041847676" r="0.5" style="fill:none;stroke:white;stroke-width:3"/>
<circle cx="196.7008169091696" cy="107.08944552317261" r="0.5" style="fill:none;stroke:white;stroke-width:3"/>
<circle cx="187.68393815491416" cy="107.9684131231159" r="0.5" style="fill:none;stroke:white;stroke-width:3"/>
<circle cx="177.1575671055025" cy="110.41237139068544" r="0.5" style="fill:none;stroke:white;stroke-width:3"/>
<circle cx="165.86977073906453" cy="112.599070372805" r="0.5" style="fill:none;stroke:white;stroke-width:3"/>
<circle cx="155.86437490656516" cy="114.48563381284475" r="0.5" style="fill:none;stroke:white;stroke-width:3"/>
<circle cx="147.67571316381182" cy="115.4503536120057" r="0.5" style="fill:none;stroke:white;stroke-width:3"/>
<circle cx="134.54446602983697" cy="117.55129862241446" r="0.5" style="fill:none;stroke:white;stroke-width:3"/>
<circle cx="122.66890275201094" cy="119.43786110132932" r="0.5" style="fill:none;stroke:white;stroke-width:3"/>
<circle cx="116.32369177679392" cy="129.08504992984234" r="0.5" style="fill:none;stroke:white;stroke-width:3"/>
<circle cx="120.66515191773215" cy="139.9542046163231" r="0.5" style="fill:none;stroke:white;stroke-width:3"/>
<circle cx="120.99911039011167" cy="152.2382643107325" r="0.5" style="fill:none;stroke:white;stroke-width:3"/>
<circle cx="127.66492149881304" cy="166.10872854106128" r="0.5" style="fill:none;stroke:white;stroke-width:3"/>
<circle cx="128.92060535496128" cy="179.18596429266034" r="0.5" style="fill:none;stroke:white;stroke-width:3"/>
<circle cx="129.6553139941967" cy="192.9492000930011" r="0.5" style="fill:none;stroke:white;stroke-width:3"/>
<circle cx="129.5083722663494" cy="205.55476355552673" r="0.5" style="fill:none;stroke:white;stroke-width:3"/>
<circle cx="130.06942249994827" cy="220.94724931083618" r="0.5" style="fill:none;stroke:white;stroke-width:3"/>
<circle cx="129.36143053850265" cy="235.5893825098872" r="0.5" style="fill:none;stroke:white;stroke-width:3"/>
<circle cx="127.0771545874244" cy="246.56560854725538" r="0.5" style="fill:none;stroke:white;stroke-width:3"/>
<circle cx="118.88849284467159" cy="249.2024735122919" r="0.5" style="fill:none;stroke:white;stroke-width:3"/>
<circle cx="109.65788066809255" cy="249.45972859226165" r="0.5" style="fill:none;stroke:white;stroke-width:3"/>
<circle cx="111.07386459098379" cy="264.1018191296607" r="0.5" style="fill:none;stroke:white;stroke-width:3"/>
<circle cx="110.65975608523222" cy="277.17892392911017" r="0.5" style="fill:none;stroke:white;stroke-width:3"/>
<circle cx="109.71131402367428" cy="290.19169774800537" r="0.5" style="fill:none;stroke:white;stroke-width:3"/>
<circle cx="108.72279694542976" cy="303.0758274324238" r="0.5" style="fill:none;stroke:white;stroke-width:3"/>
<circle cx="106.01105414970534" cy="315.3811201427132" r="0.5" style="fill:none;stroke:white;stroke-width:3"/>
<circle cx="101.22876882522577" cy="326.2715056657791" r="0.5" style="fill:none;stroke:white;stroke-width:3"/>
<circle cx="102.52452769806004" cy="338.4910182986408" r="0.5" style="fill:none;stroke:white;stroke-width:3"/>
<circle cx="100.7478686249995" cy="350.5604517649859" r="0.5" style="fill:none;stroke:white;stroke-width:3"/>
<circle cx="99.31852636321419" cy="364.75219995751974" r="0.5" style="fill:none;stroke:white;stroke-width:3"/>
<circle cx="95.88543326714952" cy="377.464730335772" r="0.5" style="fill:none;stroke:white;stroke-width:3"/>
<circle cx="92.46569850998057" cy="388.097795336321" r="0.5" style="fill:none;stroke:white;stroke-width:3"/>
<circle cx="89.05932209170568" cy="401.4105479288846" r="0.5" style="fill:none;stroke:white;stroke-width:3"/>
<circle cx="84.69114527297769" cy="417.1028514057398" r="0.5" style="fill:none;stroke:white;stroke-width:3"/>
<circle cx="80.00236832076534" cy="430.8014400154352" r="0.5" style="fill:none;stroke:white;stroke-width:3"/>
<circle cx="75.66090817982658" cy="443.1708846129477" r="0.5" style="fill:none;stroke:white;stroke-width:3"/>
<circle cx="72.16102338928667" cy="455.19731402881445" r="0.5" style="fill:none;stroke:white;stroke-width:3"/>
<circle cx="67.48560477596948" cy="467.7382273580879" r="0.5" style="fill:none;stroke:white;stroke-width:3"/>
<circle cx="62.94376955160387" cy="480.4934987839311" r="0.5" style="fill:none;stroke:white;stroke-width:3"/>
<circle cx="58.50880103840009" cy="491.7695736262947" r="0.5" style="fill:none;stroke:white;stroke-width:3"/>
<circle cx="53.8333824250818" cy="495.79980254955586" r="0.5" style="fill:none;stroke:white;stroke-width:3"/>
<circle cx="54.968841231173606" cy="492.5413197185844" r="0.5" style="fill:none;stroke:white;stroke-width:3"/>
<circle cx="55.089066281230586" cy="492.1983214650303" r="0.5" style="fill:none;stroke:white;stroke-width:3"/>
<circle cx="56.33139179848367" cy="491.49088752306994" r="0.5" style="fill:none;stroke:white;stroke-width:3"/>
<circle cx="57.22640050446152" cy="492.97006752379235" r="0.5" style="fill:none;stroke:white;stroke-width:3"/>
<circle cx="56.47833352633097" cy="493.50600224845107" r="0.5" style="fill:none;stroke:white;stroke-width:3"/>
<circle cx="56.171091731741214" cy="495.41392964087424" r="0.5" style="fill:none;stroke:white;stroke-width:3"/>
<circle cx="56.22452508732185" cy="496.95742118954655" r="0.5" style="fill:none;stroke:white;stroke-width:3"/>
<circle cx="55.409666414714955" cy="495.6926156334579" r="0.5" style="fill:none;stroke:white;stroke-width:3"/>
<circle cx="51.816273251908385" cy="492.1983214650303" r="0.5" style="fill:none;stroke:white;stroke-width:3"/>
<circle cx="51.01477291819665" cy="490.63339177183803" r="0.5" style="fill:none;stroke:white;stroke-width:3"/>
<circle cx="49.33162221740222" cy="489.00414963327347" r="0.5" style="fill:none;stroke:white;stroke-width:3"/>
<circle cx="48.11601337794" cy="488.55396425798534" r="0.5" style="fill:none;stroke:white;stroke-width:3"/>
<circle cx="44.148586726067876" cy="487.7607804447412" r="0.5" style="fill:none;stroke:white;stroke-width:3"/>
<circle cx="41.757444063828366" cy="486.4530988924205" r="0.5" style="fill:none;stroke:white;stroke-width:3"/>
<circle cx="39.01898459031363" cy="484.6309193897992" r="0.5" style="fill:none;stroke:white;stroke-width:3"/>
<circle cx="38.91211787915181" cy="484.6523567955941" r="0.5" style="fill:none;stroke:white;stroke-width:3"/>
<circle cx="38.80525116798999" cy="484.6523567955941" r="0.5" style="fill:none;stroke:white;stroke-width:3"/>
<circle cx="36.0" cy="485.3169164199382" r="0.5" style="fill:none;stroke:white;stroke-width:3"/>
<circle cx="39.673543196177526" cy="485.70278972536323" r="0.5" style="fill:none;stroke:white;stroke-width:3"/>
</g>
</svg>
